<svg width="241" height="200" viewBox="0 0 241 200" fill="none" xmlns="http://www.w3.org/2000/svg">
<rect width="240" height="180" transform="translate(0.5 7)" fill="white"/>
<g clip-path="url(#clip0_58_31512)">
<path opacity="0.05" d="M193.317 26.3663H157.918C157.315 26.3663 156.826 26.8551 156.826 27.4581V51.8995C156.826 52.5024 157.315 52.9912 157.918 52.9912H193.317C193.92 52.9912 194.409 52.5024 194.409 51.8995V27.4581C194.409 26.8551 193.92 26.3663 193.317 26.3663Z" fill="#292A2E"/>
<path opacity="0.05" d="M172.654 34.4442C174.156 34.4442 175.373 33.2267 175.373 31.7248C175.373 30.2229 174.156 29.0054 172.654 29.0054C171.152 29.0054 169.935 30.2229 169.935 31.7248C169.935 33.2267 171.152 34.4442 172.654 34.4442Z" fill="#292A2E"/>
<path opacity="0.05" d="M173.679 44.1702L181.562 35.3757C182.054 34.8266 182.743 34.4937 183.479 34.4492C184.215 34.4047 184.939 34.6522 185.494 35.1379L194.409 42.9438V51.9034C194.409 52.1919 194.295 52.4686 194.091 52.6726C193.887 52.8766 193.61 52.9911 193.322 52.9911H183.632" fill="#292A2E"/>
<path opacity="0.1" d="M183.632 52.9912L166.538 37.8423C166.033 37.3946 165.383 37.1444 164.708 37.1376C164.033 37.1308 163.379 37.3679 162.865 37.8054L156.826 42.9438V52.0076C156.826 52.1368 156.852 52.2647 156.901 52.3841C156.951 52.5034 157.023 52.6119 157.114 52.7032C157.206 52.7946 157.314 52.867 157.434 52.9164C157.553 52.9658 157.681 52.9913 157.81 52.9912H183.632Z" fill="#292A2E"/>
<path opacity="0.05" d="M102.013 27.9045H70.1733C69.631 27.9045 69.1914 28.3441 69.1914 28.8864V50.8703C69.1914 51.4126 69.631 51.8522 70.1733 51.8522H102.013C102.556 51.8522 102.995 51.4126 102.995 50.8703V28.8864C102.995 28.3441 102.556 27.9045 102.013 27.9045Z" fill="#292A2E"/>
<path opacity="0.05" d="M83.4274 35.1699C84.7782 35.1699 85.8733 34.0748 85.8733 32.724C85.8733 31.3732 84.7782 30.2781 83.4274 30.2781C82.0765 30.2781 80.9814 31.3732 80.9814 32.724C80.9814 34.0748 82.0765 35.1699 83.4274 35.1699Z" fill="#292A2E"/>
<path opacity="0.05" d="M84.3496 43.9182L91.4403 36.008C91.8829 35.5141 92.5024 35.2147 93.1644 35.1746C93.8264 35.1346 94.4775 35.3572 94.9764 35.7941L102.995 42.8151V50.8728C102.995 51.1323 102.892 51.3812 102.709 51.5647C102.525 51.7481 102.277 51.8512 102.017 51.8512H93.3022" fill="#292A2E"/>
<path opacity="0.1" d="M93.3017 51.8532L77.9263 38.2285C77.472 37.8258 76.8875 37.6007 76.2805 37.5946C75.6734 37.5885 75.0845 37.8018 74.6222 38.1953L69.1924 42.8172V50.9694C69.1924 51.2041 69.2856 51.4291 69.4516 51.5951C69.6175 51.761 69.8426 51.8543 70.0772 51.8543L93.3017 51.8532Z" fill="#292A2E"/>
<path d="M60.368 28.7499C58.5596 28.7372 56.8196 28.0563 55.4828 26.8382C54.146 25.6201 53.3067 23.9508 53.1264 22.1513C52.946 20.3517 53.4374 18.5491 54.5059 17.0899C55.5743 15.6308 57.1446 14.6181 58.9146 14.2468C58.4429 11.5679 58.9535 8.80886 60.3525 6.47615C61.3677 4.76031 62.8221 3.34619 64.5658 2.37946C66.3094 1.41274 68.2793 0.928369 70.2724 0.976259C72.2656 1.02415 74.2099 1.60256 75.9051 2.65192C77.6003 3.70127 78.9851 5.18361 79.9168 6.94623C81.0127 6.19334 82.3397 5.85254 83.6628 5.98417C84.9859 6.1158 86.2197 6.71137 87.1458 7.66542C88.0429 8.58823 88.6037 9.78586 88.738 11.0658C90.4162 11.1793 92.0275 11.7679 93.3838 12.7628C94.74 13.7577 95.7853 15.118 96.3974 16.6846C97.0096 18.2513 97.1635 19.9598 96.841 21.6107C96.5186 23.2616 95.7332 24.7866 94.5765 26.0078C93.7833 26.8498 92.8305 27.5254 91.7736 27.9954C90.7166 28.4654 89.5767 28.7203 88.4203 28.7454L60.368 28.7499Z" fill="#292A2E"/>
<path d="M58.2763 28.7499C56.4678 28.7371 54.7278 28.0563 53.391 26.8382C52.0542 25.6201 51.2149 23.9507 51.0346 22.1512C50.8543 20.3517 51.3456 18.549 52.4141 17.0899C53.4825 15.6307 55.0528 14.6181 56.8228 14.2468C56.3511 11.5679 56.8615 8.80885 58.2604 6.47611C59.2757 4.76028 60.7301 3.34617 62.4738 2.37945C64.2175 1.41273 66.1874 0.928369 68.1805 0.976259C70.1737 1.02415 72.118 1.60256 73.8132 2.6519C75.5085 3.70125 76.8933 5.18358 77.825 6.94619C78.921 6.1933 80.2479 5.8525 81.571 5.98413C82.8941 6.11576 84.1279 6.71133 85.054 7.66538C85.951 8.58826 86.5117 9.78586 86.6462 11.0658C88.3244 11.1793 89.9357 11.7679 91.292 12.7628C92.6482 13.7577 93.6935 15.1179 94.3056 16.6846C94.9178 18.2513 95.0717 19.9598 94.7493 21.6107C94.4268 23.2615 93.6414 24.7866 92.4848 26.0078C91.6915 26.8497 90.7387 27.5253 89.6817 27.9953C88.6248 28.4653 87.4849 28.7202 86.3285 28.7453L58.2763 28.7499Z" fill="white"/>
<path d="M58.2768 29.0014C56.275 28.9922 54.3586 28.1893 52.948 26.7689C51.5374 25.3485 50.7478 23.4266 50.7525 21.4248C50.7315 19.7206 51.2936 18.0605 52.3456 16.7197C53.3976 15.3788 54.8763 14.4379 56.5365 14.0528C56.1297 11.3875 56.663 8.66369 58.0448 6.34853C59.0707 4.61414 60.5356 3.18084 62.292 2.19308C64.0484 1.20531 66.0341 0.697999 68.049 0.722267C70.064 0.746535 72.0369 1.30153 73.769 2.3313C75.501 3.36108 76.931 4.82925 77.9149 6.58784C79.0552 5.88162 80.4026 5.58621 81.7338 5.75057C83.0651 5.91492 84.3002 6.52918 85.2345 7.49155C86.1202 8.40296 86.6932 9.57242 86.8705 10.8309C88.5756 10.9855 90.2028 11.6171 91.5657 12.6534C92.9286 13.6896 93.9722 15.0886 94.5771 16.6903C95.182 18.292 95.3237 20.0317 94.9861 21.7102C94.6484 23.3887 93.845 24.9382 92.6678 26.1814C91.8517 27.0473 90.8714 27.7421 89.7841 28.2255C88.6968 28.7089 87.5242 28.9711 86.3346 28.9968L58.2768 29.0014ZM67.9142 1.22541C66.3038 1.23374 64.7146 1.59342 63.2576 2.27936C61.8006 2.96529 60.5108 3.96095 59.4783 5.19683C58.4458 6.4327 57.6955 7.87903 57.2797 9.43484C56.8639 10.9906 56.7927 12.6185 57.071 14.2046L57.1129 14.446L56.8729 14.4942C55.2743 14.8112 53.8373 15.6779 52.8111 16.9439C51.785 18.2099 51.2345 19.7953 51.2553 21.4248C51.2505 23.2933 51.987 25.0874 53.3034 26.4136C54.6197 27.7397 56.4083 28.4896 58.2768 28.4986L86.329 28.4951C87.4514 28.47 88.5576 28.2219 89.5832 27.7653C90.6088 27.3087 91.5334 26.6527 92.3031 25.8355C93.4268 24.6489 94.1897 23.1672 94.503 21.5634C94.8162 19.9595 94.6668 18.2996 94.0722 16.7774C93.4776 15.2553 92.4622 13.9337 91.1447 12.9669C89.8272 12.0001 88.2619 11.4279 86.6314 11.3173L86.4188 11.3047L86.3967 11.0928C86.2678 9.8692 85.7318 8.72429 84.8746 7.84172C83.9899 6.93017 82.8112 6.36107 81.5472 6.23519C80.2832 6.10931 79.0155 6.43477 77.9684 7.15395L77.7361 7.31408L77.6036 7.06521C76.6713 5.3035 75.2768 3.82903 73.5697 2.80016C71.8625 1.77129 69.9074 1.22688 67.9142 1.22541Z" fill="#292A2E"/>
<path d="M73.108 9.57531C73.1747 9.57531 73.2386 9.60179 73.2857 9.64894C73.3329 9.69608 73.3594 9.76002 73.3594 9.82669L73.3594 24.4276C73.3594 24.4942 73.3329 24.5582 73.2857 24.6053C73.2386 24.6525 73.1747 24.679 73.108 24.679C73.0413 24.679 72.9774 24.6525 72.9302 24.6053C72.8831 24.5582 72.8566 24.4942 72.8566 24.4276L72.8566 9.82669C72.8566 9.76002 72.8831 9.69608 72.9302 9.64894C72.9774 9.60179 73.0413 9.57531 73.108 9.57531Z" fill="#292A2E" stroke="black" stroke-width="0.754139"/>
<path d="M67.5945 18.6623C67.6275 18.6622 67.6603 18.6686 67.6908 18.6813C67.7213 18.6939 67.749 18.7125 67.7723 18.7359L73.1088 24.0722L78.4451 18.7359C78.4925 18.6901 78.556 18.6648 78.6219 18.6654C78.6878 18.6659 78.7509 18.6924 78.7975 18.739C78.8441 18.7856 78.8705 18.8486 78.8711 18.9145C78.8717 18.9804 78.8463 19.0439 78.8005 19.0914L73.2868 24.6054C73.2387 24.6507 73.175 24.676 73.1089 24.676C73.0428 24.676 72.9792 24.6507 72.9311 24.6054L67.4171 19.0914C67.3819 19.0562 67.358 19.0114 67.3483 18.9627C67.3386 18.9139 67.3436 18.8634 67.3626 18.8174C67.3816 18.7715 67.4138 18.7323 67.4551 18.7046C67.4965 18.677 67.5451 18.6623 67.5948 18.6623L67.5945 18.6623Z" fill="#292A2E" stroke="black" stroke-width="0.754139"/>
<path opacity="0.05" d="M206.307 90.1538H151.417C150.482 90.1538 149.725 90.9117 149.725 91.8466V129.745C149.725 130.68 150.482 131.438 151.417 131.438H206.307C207.242 131.438 208 130.68 208 129.745V91.8466C208 90.9117 207.242 90.1538 206.307 90.1538Z" fill="#292A2E"/>
<path opacity="0.05" d="M174.265 102.679C176.594 102.679 178.482 100.792 178.482 98.4627C178.482 96.134 176.594 94.2461 174.265 94.2461C171.937 94.2461 170.049 96.134 170.049 98.4627C170.049 100.792 171.937 102.679 174.265 102.679Z" fill="#292A2E"/>
<path opacity="0.05" d="M175.855 117.76L188.08 104.124C188.843 103.272 189.911 102.756 191.052 102.687C192.193 102.618 193.315 103.002 194.176 103.755L208 115.859V129.751C208 130.199 207.822 130.628 207.506 130.944C207.189 131.26 206.76 131.438 206.313 131.438H191.289" fill="#292A2E"/>
<path opacity="0.1" d="M191.289 131.438L164.783 107.948C164 107.254 162.992 106.866 161.946 106.856C160.899 106.845 159.884 107.213 159.087 107.891L149.725 115.86V129.914C149.725 130.114 149.764 130.312 149.841 130.497C149.917 130.682 150.03 130.851 150.171 130.992C150.313 131.134 150.481 131.246 150.666 131.323C150.851 131.4 151.049 131.439 151.25 131.439L191.289 131.438Z" fill="#292A2E"/>
<path opacity="0.05" d="M98.9642 126.024H43.2182C42.2687 126.024 41.499 126.794 41.499 127.743V166.233C41.499 167.183 42.2687 167.952 43.2182 167.952H98.9642C99.9136 167.952 100.683 167.183 100.683 166.233V127.743C100.683 126.794 99.9136 126.024 98.9642 126.024Z" fill="#292A2E"/>
<path opacity="0.05" d="M66.4231 138.745C68.7883 138.745 70.7056 136.828 70.7056 134.462C70.7056 132.097 68.7883 130.18 66.4231 130.18C64.058 130.18 62.1406 132.097 62.1406 134.462C62.1406 136.828 64.058 138.745 66.4231 138.745Z" fill="#292A2E"/>
<path opacity="0.05" d="M68.0381 154.062L80.453 140.211C81.228 139.346 82.3126 138.822 83.4716 138.752C84.6305 138.682 85.7704 139.071 86.644 139.836L100.684 152.129V166.238C100.684 166.463 100.639 166.686 100.553 166.894C100.467 167.101 100.341 167.29 100.182 167.449C100.023 167.608 99.8342 167.735 99.6264 167.821C99.4185 167.907 99.1958 167.951 98.9709 167.951H83.7121" fill="#292A2E"/>
<path opacity="0.1" d="M83.7122 167.952L56.7927 144.096C55.9972 143.391 54.9739 142.997 53.9111 142.987C52.8482 142.976 51.8172 143.349 51.0077 144.038L41.499 152.129V166.402C41.499 166.813 41.6622 167.207 41.9527 167.497C42.2432 167.788 42.6372 167.951 43.048 167.951L83.7122 167.952Z" fill="#292A2E"/>
<path d="M185.095 169.247C185.034 169.247 184.976 169.223 184.934 169.181C184.612 168.859 184.088 162.957 182.675 145.387C182.097 138.197 181.552 131.406 181.153 127.279C181.125 126.985 181.011 126.95 180.973 126.939C180.428 126.775 178.77 128.082 177.844 129.227C177.805 129.272 177.75 129.3 177.691 129.306C177.632 129.311 177.573 129.294 177.526 129.256C177.48 129.219 177.45 129.164 177.443 129.105C177.436 129.046 177.452 128.987 177.489 128.939C178.101 128.182 180.096 126.198 181.105 126.501C181.308 126.562 181.56 126.739 181.607 127.235C182.006 131.365 182.552 138.158 183.13 145.349C183.988 156.027 184.96 168.123 185.28 168.885C185.304 168.919 185.319 168.959 185.322 169.001C185.325 169.043 185.316 169.085 185.297 169.122C185.278 169.16 185.249 169.191 185.213 169.213C185.177 169.235 185.136 169.246 185.094 169.246L185.095 169.247Z" fill="#494949"/>
<path d="M180.567 134.853C184.355 131.817 185.611 127.09 183.371 124.296C181.132 121.503 176.245 121.7 172.457 124.736C168.669 127.773 167.413 132.499 169.652 135.293C171.892 138.087 176.778 137.89 180.567 134.853Z" fill="#FF6B00"/>
<path opacity="0.2" d="M180.567 134.853C184.355 131.817 185.611 127.09 183.371 124.296C181.132 121.503 176.245 121.7 172.457 124.736C168.669 127.773 167.413 132.499 169.652 135.293C171.892 138.087 176.778 137.89 180.567 134.853Z" fill="white"/>
<path d="M170.715 136.004C170.693 136.004 170.672 135.997 170.653 135.986C170.635 135.974 170.621 135.957 170.611 135.938C170.602 135.918 170.599 135.896 170.601 135.875C170.604 135.853 170.613 135.833 170.627 135.816L181.423 122.797C181.443 122.774 181.47 122.759 181.501 122.756C181.531 122.753 181.561 122.762 181.584 122.782C181.608 122.801 181.622 122.829 181.625 122.859C181.628 122.889 181.619 122.919 181.599 122.943L170.802 135.962C170.791 135.975 170.778 135.986 170.763 135.993C170.748 136 170.731 136.004 170.715 136.004Z" fill="white"/>
<path d="M187.449 166.457C187.424 166.457 187.398 166.453 187.374 166.444C187.317 166.424 187.27 166.383 187.243 166.328C187.217 166.274 187.213 166.211 187.233 166.154L191.288 154.491C191.408 154.149 191.611 153.842 191.88 153.598C192.149 153.354 192.475 153.182 192.827 153.097C193.18 153.012 193.549 153.017 193.899 153.111C194.249 153.205 194.57 153.386 194.833 153.637L196.977 155.685C196.999 155.705 197.016 155.73 197.028 155.758C197.04 155.785 197.047 155.815 197.047 155.845C197.048 155.875 197.043 155.904 197.032 155.932C197.021 155.96 197.005 155.986 196.984 156.008C196.963 156.029 196.939 156.047 196.911 156.059C196.884 156.071 196.854 156.077 196.824 156.078C196.794 156.079 196.765 156.073 196.737 156.063C196.709 156.052 196.683 156.036 196.661 156.015L194.517 153.967C194.31 153.769 194.057 153.626 193.78 153.552C193.503 153.477 193.212 153.473 192.934 153.541C192.655 153.608 192.398 153.744 192.186 153.936C191.974 154.129 191.813 154.372 191.719 154.642L187.664 166.306C187.648 166.35 187.619 166.389 187.58 166.415C187.542 166.442 187.496 166.457 187.449 166.457Z" fill="#494949"/>
<path d="M202.969 162.14C205.777 159.918 205.61 155.031 202.596 151.224C199.583 147.417 194.864 146.132 192.057 148.355C189.25 150.577 189.416 155.464 192.43 159.271C195.443 163.078 200.162 164.363 202.969 162.14Z" fill="#FF6B00"/>
<path d="M183.253 168.504C183.201 168.504 183.151 168.487 183.111 168.455C183.071 168.423 183.043 168.379 183.031 168.329L176.225 139.872C176.179 139.678 176.08 139.501 175.939 139.359C175.798 139.218 175.621 139.118 175.428 139.071C175.234 139.024 175.031 139.031 174.841 139.091C174.651 139.152 174.481 139.264 174.35 139.415L172.253 141.839C172.213 141.885 172.157 141.913 172.096 141.918C172.036 141.922 171.976 141.902 171.931 141.862C171.885 141.823 171.857 141.767 171.852 141.706C171.848 141.646 171.868 141.586 171.907 141.54L174.005 139.116C174.19 138.902 174.431 138.743 174.702 138.656C174.972 138.57 175.26 138.56 175.536 138.627C175.811 138.694 176.063 138.836 176.263 139.037C176.463 139.238 176.604 139.49 176.67 139.766L183.475 168.222C183.483 168.256 183.483 168.291 183.476 168.325C183.469 168.358 183.454 168.39 183.432 168.417C183.411 168.444 183.384 168.466 183.353 168.481C183.321 168.496 183.287 168.504 183.253 168.504L183.253 168.504Z" fill="#494949"/>
<path d="M180.742 148.162C181.57 143.378 179.38 139.005 175.852 138.395C172.324 137.785 168.793 141.169 167.966 145.953C167.138 150.737 169.328 155.11 172.856 155.72C176.384 156.33 179.915 152.947 180.742 148.162Z" fill="#FF6B00"/>
<path d="M185.095 169.247C185.085 169.247 185.076 169.247 185.067 169.246C185.007 169.238 184.952 169.207 184.915 169.16C184.877 169.112 184.861 169.051 184.868 168.991L189.214 133.706C189.261 133.322 189.419 132.96 189.667 132.663C189.916 132.366 190.245 132.147 190.614 132.032C190.984 131.918 191.379 131.913 191.752 132.017C192.125 132.121 192.46 132.331 192.716 132.621L197.683 138.247C197.704 138.27 197.72 138.296 197.731 138.325C197.742 138.353 197.746 138.384 197.745 138.414C197.743 138.445 197.736 138.475 197.722 138.502C197.709 138.53 197.69 138.554 197.668 138.574C197.645 138.595 197.618 138.61 197.589 138.62C197.56 138.629 197.529 138.633 197.499 138.631C197.469 138.628 197.439 138.62 197.412 138.606C197.385 138.592 197.361 138.572 197.341 138.549L192.374 132.923C192.176 132.699 191.917 132.536 191.629 132.455C191.341 132.375 191.035 132.379 190.749 132.467C190.464 132.556 190.209 132.725 190.017 132.955C189.825 133.184 189.704 133.464 189.667 133.761L185.321 169.048C185.314 169.103 185.287 169.153 185.246 169.19C185.204 169.227 185.15 169.247 185.095 169.247Z" fill="#494949"/>
<path d="M202.779 141.374C204.512 138.241 202.473 133.796 198.224 131.446C193.976 129.096 189.127 129.731 187.394 132.864C185.661 135.997 187.7 140.442 191.948 142.792C196.197 145.142 201.046 144.508 202.779 141.374Z" fill="#FF6B00"/>
<path opacity="0.2" d="M202.969 162.14C205.777 159.918 205.61 155.031 202.596 151.224C199.583 147.417 194.864 146.132 192.057 148.355C189.25 150.577 189.416 155.464 192.43 159.271C195.443 163.078 200.162 164.363 202.969 162.14Z" fill="white"/>
<path opacity="0.5" d="M180.742 148.162C181.57 143.378 179.38 139.005 175.852 138.395C172.324 137.785 168.793 141.169 167.966 145.953C167.138 150.737 169.328 155.11 172.856 155.72C176.384 156.33 179.915 152.947 180.742 148.162Z" fill="white"/>
<path opacity="0.5" d="M202.779 141.374C204.512 138.241 202.473 133.796 198.224 131.446C193.976 129.096 189.127 129.731 187.394 132.864C185.661 135.997 187.7 140.442 191.948 142.792C196.197 145.142 201.046 144.508 202.779 141.374Z" fill="white"/>
<path d="M190.654 199.187H179.536L177.694 163.618H192.496L190.654 199.187Z" fill="#292A2E"/>
<path opacity="0.3" d="M190.654 199.187H179.536L177.694 163.618H192.496L190.654 199.187Z" fill="white"/>
<path d="M202.969 162.254C202.952 162.254 202.935 162.25 202.92 162.242C202.904 162.235 202.891 162.224 202.88 162.21L191.968 148.424C191.959 148.412 191.952 148.399 191.948 148.385C191.944 148.37 191.942 148.355 191.944 148.34C191.946 148.325 191.95 148.311 191.958 148.298C191.965 148.285 191.975 148.273 191.987 148.264C191.998 148.255 192.012 148.248 192.026 148.243C192.041 148.239 192.056 148.238 192.071 148.24C192.086 148.242 192.1 148.246 192.113 148.254C192.126 148.261 192.138 148.271 192.147 148.282L203.059 162.068C203.073 162.085 203.081 162.105 203.084 162.127C203.086 162.148 203.082 162.17 203.073 162.189C203.064 162.208 203.049 162.225 203.031 162.236C203.013 162.248 202.991 162.254 202.97 162.254H202.969Z" fill="white"/>
<path d="M202.053 142.479C202.029 142.479 202.006 142.471 201.986 142.457L188.021 132.261C188.009 132.252 187.999 132.241 187.991 132.228C187.983 132.215 187.978 132.201 187.976 132.186C187.974 132.171 187.974 132.156 187.978 132.142C187.981 132.127 187.988 132.113 187.997 132.101C188.005 132.089 188.017 132.079 188.029 132.071C188.042 132.063 188.056 132.058 188.071 132.056C188.086 132.053 188.101 132.054 188.116 132.058C188.13 132.061 188.144 132.068 188.156 132.076L202.12 142.273C202.14 142.287 202.154 142.307 202.162 142.33C202.169 142.353 202.169 142.378 202.162 142.4C202.154 142.423 202.139 142.443 202.12 142.457C202.1 142.472 202.077 142.479 202.053 142.479H202.053Z" fill="white"/>
<path d="M172.289 155.572C172.279 155.572 172.269 155.571 172.259 155.569C172.23 155.561 172.205 155.542 172.19 155.515C172.175 155.489 172.171 155.458 172.179 155.429L176.624 138.774C176.627 138.759 176.634 138.745 176.643 138.733C176.652 138.721 176.663 138.71 176.676 138.702C176.689 138.695 176.704 138.689 176.719 138.687C176.734 138.685 176.75 138.686 176.764 138.69C176.779 138.694 176.793 138.701 176.805 138.71C176.817 138.72 176.827 138.731 176.834 138.745C176.842 138.758 176.847 138.772 176.848 138.788C176.85 138.803 176.849 138.818 176.844 138.833L172.399 155.488C172.393 155.512 172.378 155.533 172.358 155.549C172.339 155.564 172.314 155.572 172.289 155.572Z" fill="white"/>
<path d="M160.062 12.5969H96.2066C90.924 12.5969 86.6416 16.8793 86.6416 22.1619V172.272C86.6416 177.554 90.924 181.837 96.2066 181.837H160.062C165.345 181.837 169.627 177.554 169.627 172.272V22.1619C169.627 16.8793 165.345 12.5969 160.062 12.5969Z" fill="#292A2E"/>
<path d="M160.033 15.5836H96.2367C92.6094 15.5836 89.6689 18.5241 89.6689 22.1514V172.059C89.6689 175.686 92.6094 178.627 96.2367 178.627H160.033C163.66 178.627 166.6 175.686 166.6 172.059V22.1514C166.6 18.5241 163.66 15.5836 160.033 15.5836Z" fill="white"/>
<path d="M112.378 14.3488H143.89V17.6094C143.89 18.5444 143.518 19.441 142.857 20.1021C142.196 20.7631 141.299 21.1345 140.364 21.1345H115.905C114.97 21.1345 114.073 20.763 113.411 20.1017C112.75 19.4405 112.379 18.5436 112.379 17.6084V14.3488H112.378Z" fill="#292A2E"/>
<path opacity="0.6" d="M138.748 111.532V116.218H104.125C103.504 116.218 102.908 115.971 102.468 115.532C102.029 115.093 101.782 114.497 101.782 113.875C101.782 113.254 102.029 112.658 102.468 112.219C102.908 111.779 103.504 111.532 104.125 111.532H138.748Z" fill="#4CB748"/>
<path d="M152.142 116.47H104.125C103.782 116.473 103.442 116.409 103.124 116.28C102.807 116.151 102.518 115.961 102.274 115.719C102.03 115.478 101.837 115.191 101.705 114.874C101.573 114.558 101.505 114.218 101.505 113.876C101.505 113.533 101.573 113.193 101.705 112.877C101.837 112.56 102.03 112.273 102.274 112.032C102.518 111.79 102.807 111.6 103.124 111.471C103.442 111.342 103.782 111.278 104.125 111.281H152.142C152.826 111.288 153.48 111.564 153.961 112.05C154.442 112.536 154.712 113.192 154.712 113.876C154.712 114.559 154.442 115.215 153.961 115.701C153.48 116.187 152.826 116.463 152.142 116.47ZM104.125 111.784C103.849 111.781 103.574 111.832 103.318 111.936C103.061 112.04 102.828 112.194 102.631 112.388C102.434 112.583 102.278 112.814 102.172 113.07C102.065 113.325 102.01 113.599 102.01 113.876C102.01 114.152 102.065 114.426 102.172 114.681C102.278 114.937 102.434 115.168 102.631 115.363C102.828 115.557 103.061 115.711 103.318 115.815C103.574 115.919 103.849 115.97 104.125 115.967H152.142C152.693 115.961 153.219 115.738 153.607 115.347C153.994 114.955 154.212 114.426 154.212 113.876C154.212 113.325 153.994 112.796 153.607 112.404C153.219 112.013 152.693 111.79 152.142 111.784H104.125Z" fill="#292A2E"/>
<path opacity="0.8" d="M144.92 132.198H111.349C109.37 132.198 107.767 133.801 107.767 135.78V145.397C107.767 147.375 109.37 148.979 111.349 148.979H144.92C146.898 148.979 148.502 147.375 148.502 145.397V135.78C148.502 133.801 146.898 132.198 144.92 132.198Z" fill="#4CB748"/>
<path d="M148.501 145.398V147.046C148.501 147.995 148.124 148.906 147.452 149.578C146.781 150.249 145.87 150.627 144.92 150.627H111.349C110.399 150.627 109.488 150.249 108.816 149.578C108.145 148.906 107.768 147.995 107.768 147.046V145.398C107.768 146.347 108.145 147.258 108.816 147.93C109.488 148.601 110.399 148.979 111.349 148.979H144.92C145.87 148.979 146.781 148.601 147.452 147.93C148.124 147.258 148.501 146.347 148.501 145.398Z" fill="#4CB748"/>
<path d="M125.897 145.546C125.756 145.546 125.621 145.496 125.514 145.404L121.671 142.111C121.613 142.061 121.565 141.999 121.53 141.93C121.495 141.862 121.474 141.786 121.468 141.709C121.462 141.632 121.471 141.555 121.495 141.481C121.519 141.408 121.557 141.34 121.607 141.281C121.658 141.222 121.719 141.174 121.788 141.139C121.857 141.104 121.932 141.083 122.009 141.077C122.086 141.071 122.164 141.081 122.237 141.105C122.311 141.129 122.379 141.167 122.437 141.217L125.847 144.139L133.781 135.459C133.833 135.402 133.896 135.355 133.966 135.323C134.036 135.29 134.112 135.271 134.189 135.268C134.266 135.264 134.343 135.276 134.416 135.302C134.489 135.329 134.556 135.369 134.613 135.421C134.67 135.473 134.716 135.536 134.749 135.606C134.781 135.676 134.8 135.752 134.803 135.829C134.807 135.906 134.795 135.984 134.769 136.056C134.742 136.129 134.702 136.196 134.65 136.253L126.332 145.354C126.276 145.415 126.209 145.463 126.134 145.496C126.06 145.529 125.979 145.546 125.897 145.546Z" fill="white"/>
<path d="M76.9312 75.5491L79.7371 71.1844C79.7987 71.0885 79.8797 71.0064 79.9748 70.9435C80.0699 70.8806 80.1771 70.8382 80.2895 70.8189C80.4019 70.7997 80.517 70.8041 80.6276 70.8318C80.7382 70.8596 80.8419 70.91 80.9319 70.98C81.094 71.1144 81.2005 71.3041 81.2307 71.5125C81.2609 71.7209 81.2126 71.9331 81.0953 72.1079L80.4937 73.0441L83.7365 70.9689C84.093 70.7319 84.682 70.669 84.9215 71.0866C85.0242 71.2412 85.0715 71.4261 85.0556 71.611C85.0397 71.796 84.9616 71.9701 84.8341 72.1049C84.8371 72.1076 84.8398 72.1107 84.8421 72.114C84.8436 72.1168 84.8448 72.1199 84.8456 72.123L85.3956 71.7575C85.4975 71.6899 85.6132 71.6458 85.7342 71.6285C85.8553 71.6112 85.9787 71.6212 86.0954 71.6577C86.2121 71.6941 86.3192 71.7562 86.4089 71.8393C86.4986 71.9224 86.5686 72.0245 86.6138 72.1381C86.6815 72.3184 86.6852 72.5165 86.6243 72.6992C86.5634 72.8819 86.4416 73.0382 86.2792 73.1419L86.0452 73.2975C86.0468 73.3063 86.0468 73.3153 86.0452 73.3241C86.2277 73.2558 86.4285 73.2545 86.6118 73.3206C86.795 73.3867 86.9489 73.5158 87.0457 73.6849C87.1462 73.873 87.1721 74.0921 87.1181 74.2984C87.0642 74.5048 86.9345 74.6833 86.7549 74.7982L86.1737 75.1843C86.1857 75.1846 86.1976 75.1878 86.2082 75.1936C86.2187 75.1994 86.2278 75.2077 86.2345 75.2178C86.2421 75.23 86.2459 75.2441 86.2453 75.2585C86.4247 75.2427 86.6043 75.2863 86.7565 75.3825C86.9087 75.4788 87.025 75.6223 87.0877 75.7912C87.1499 75.9699 87.1499 76.1643 87.0878 76.3431C87.0257 76.5218 86.9051 76.6744 86.7456 76.7761L81.8421 80.0352C81.1562 80.4912 80.3496 80.732 79.5259 80.7265C78.7022 80.7211 77.8989 80.4698 77.219 80.0048C76.6329 79.6038 76.2263 78.99 76.0854 78.294C75.9446 77.5979 76.0807 76.8744 76.4649 76.2771L76.9312 75.5491Z" fill="#E98862"/>
<g opacity="0.2">
<path d="M81.6361 74.1745C81.6471 74.191 81.6642 74.2024 81.6836 74.2064C81.7031 74.2104 81.7233 74.2066 81.7399 74.1958L84.8216 72.2185C84.8385 72.2076 84.8504 72.1905 84.8547 72.1708C84.8589 72.1512 84.8552 72.1307 84.8444 72.1138C84.8335 72.0969 84.8164 72.085 84.7967 72.0807C84.7771 72.0764 84.7566 72.0802 84.7397 72.091L81.658 74.0684C81.6496 74.0737 81.6423 74.0807 81.6366 74.0888C81.6309 74.097 81.6269 74.1062 81.6248 74.1159C81.6227 74.1256 81.6225 74.1357 81.6243 74.1455C81.626 74.1552 81.6297 74.1646 81.6351 74.1729L81.6361 74.1745Z" fill="#0C0C0C"/>
</g>
<g opacity="0.2">
<path d="M82.469 75.5586C82.48 75.5751 82.4971 75.5866 82.5166 75.5906C82.536 75.5946 82.5562 75.5907 82.5729 75.5799L86.012 73.3716C86.0204 73.3662 86.0277 73.3593 86.0334 73.3511C86.0391 73.3429 86.0432 73.3337 86.0453 73.3239C86.0474 73.3142 86.0476 73.3041 86.0458 73.2943C86.044 73.2845 86.0403 73.2751 86.0349 73.2667C86.0235 73.2504 86.0063 73.239 85.9869 73.2348C85.9674 73.2306 85.9471 73.2339 85.93 73.2441L82.4901 75.4515C82.4817 75.4568 82.4744 75.4638 82.4687 75.472C82.463 75.4801 82.4589 75.4894 82.4568 75.4991C82.4547 75.5089 82.4545 75.5189 82.4563 75.5288C82.4581 75.5386 82.4618 75.5479 82.4673 75.5563L82.469 75.5586Z" fill="#0C0C0C"/>
</g>
<g opacity="0.2">
<path d="M83.3648 77.061C83.3758 77.0774 83.3929 77.0889 83.4122 77.0929C83.4316 77.0969 83.4518 77.0931 83.4684 77.0824L86.212 75.3227C86.2289 75.3118 86.2408 75.2947 86.245 75.2751C86.2493 75.2554 86.2456 75.2349 86.2347 75.218C86.2238 75.2011 86.2067 75.1892 86.1871 75.185C86.1674 75.1807 86.1469 75.1844 86.13 75.1953L83.3865 76.9549C83.378 76.9603 83.3708 76.9673 83.3651 76.9754C83.3594 76.9836 83.3554 76.9929 83.3533 77.0026C83.3512 77.0124 83.351 77.0224 83.3528 77.0322C83.3546 77.042 83.3584 77.0514 83.3638 77.0597L83.3648 77.061Z" fill="#0C0C0C"/>
</g>
<path d="M52.7151 68.4694L65.6992 89.3226L57.5426 87.996L76.5233 73.3303L83.4398 82.2817L64.4591 96.9474C63.8717 97.4013 63.2006 97.7351 62.4842 97.9296C61.7678 98.1242 61.0201 98.1757 60.2837 98.0813C59.5474 97.9869 58.8369 97.7484 58.1927 97.3793C57.5486 97.0103 56.9835 96.518 56.5296 95.9306C56.4961 95.8867 56.4625 95.8424 56.429 95.7976L56.3018 95.6216L41.9463 75.6872L52.7151 68.4694Z" fill="#4CB748"/>
<path d="M49.0464 190.067C49.0464 190.067 49.9811 194.911 54.5175 195.181C59.0539 195.451 58.07 199.065 58.07 199.065H40.7363V190.404L49.0464 190.067Z" fill="#4CB748"/>
<path d="M43.6994 101.687C43.6994 101.687 43.754 100.23 43.7424 103.534C43.6994 115.857 43.4855 129.933 42.9632 138.17C42.1233 151.412 39.9697 193.158 39.9697 193.158L51.3607 193.063L62.4013 101.186L43.6994 101.687Z" fill="#262626"/>
<path d="M56.5625 116.219C56.5625 116.219 57.0346 125.162 57.1221 127.261C57.3247 132.117 57.3948 137.144 57.3948 142.843L59.1904 127.901C59.1904 127.901 57.8765 123.22 56.5625 116.219Z" fill="#0A0A0A"/>
<path d="M69.3253 190.067C69.3253 190.067 70.2599 194.911 74.7961 195.181C79.3322 195.451 78.3486 199.065 78.3486 199.065H61.0137V190.404L69.3253 190.067Z" fill="#4CB748"/>
<path d="M74.8411 102.644C74.8411 102.644 75.8501 144.762 75.7023 146.82L71.4661 192.839L60.2633 193.046L61.3551 145.156C61.3551 145.156 60.5848 131.945 57.3931 119.678C55.76 113.382 54.7771 106.935 54.46 100.439L74.8411 102.644Z" fill="#262626"/>
<path d="M43.5763 101.686L43.5391 101.688C43.5391 101.688 43.565 100.969 43.5763 101.686Z" fill="#333333"/>
<path d="M76.4447 79.2657C76.2099 82.0256 75.0671 99.2443 74.8411 102.644H43.7122C43.5363 99.5771 42.747 86.1711 42.08 80.1754C41.4435 74.454 41.3573 71.4928 42.2728 69.8015C43.7688 67.0363 46.6934 65.5361 49.4807 65.1587C51.1828 64.9285 53.7426 64.7633 53.7426 64.7633C53.7426 64.7633 53.959 69.1481 59.1274 69.3917C66.1627 69.7235 65.6931 64.7631 65.7278 64.7631C66.8676 64.7631 72.6217 65.2995 74.0892 66.4287C77.2254 68.8412 76.9434 73.4171 76.4447 79.2657Z" fill="#4CB748"/>
<path d="M68.5803 64.9215C68.5476 64.9173 67.6502 68.2973 60.6397 67.7714C55.7868 67.4079 54.6035 64.1045 54.4922 64.1045C55.0156 63.9934 55.8652 63.8783 56.0975 63.7539C56.499 63.5689 56.8524 63.2937 57.1301 62.9498C57.4078 62.6059 57.6023 62.2024 57.6985 61.771C57.9177 60.9321 58.0294 57.7029 58.0294 56.0828L65.4963 57.7607C65.3923 59.5883 64.6638 63.8253 67.2173 64.5751C67.6424 64.6988 68.0999 64.8132 68.5803 64.9215Z" fill="#E98862"/>
<path d="M65.2386 61.3536C62.2947 61.5859 58.5129 60.3431 57.7947 56.4155L57.1467 52.8711C56.4282 48.9435 57.9088 45.3822 61.6069 44.706C65.3049 44.0295 68.6513 46.708 69.3695 50.6355L69.6566 52.2047C69.9321 53.7134 70.4909 60.9394 65.2386 61.3536Z" fill="#E98862"/>
<path d="M67.9677 57.7476C67.4398 55.0925 67.197 53.3213 67.2251 51.4523C67.9695 50.1468 67.7736 48.6484 67.6045 48.0011C68.117 48.3266 68.7197 48.481 69.3256 48.4422C69.3256 48.4422 68.0939 43.5024 63.9112 42.1731C63.142 41.8737 61.1777 41.4956 58.5696 41.8533C56.3512 42.1575 50.8832 43.8161 50.1019 49.9729V49.9764C50.0768 50.1805 49.5511 55.8527 48.5044 58.5736C47.0966 62.2319 45.1218 63.3687 45.1718 67.5896C45.2357 72.9704 58.319 73.5324 61.238 73.3354C67.2586 72.9291 70.6192 70.9498 70.6627 67.037C70.711 62.6525 69.025 63.0597 67.9677 57.7476Z" fill="#0A0A0A"/>
<path d="M101.582 75.5491L104.388 71.1844C104.449 71.0885 104.53 71.0064 104.625 70.9435C104.721 70.8806 104.828 70.8382 104.94 70.8189C105.052 70.7997 105.168 70.8041 105.278 70.8318C105.389 70.8596 105.493 70.91 105.583 70.98C105.745 71.1143 105.851 71.3041 105.881 71.5125C105.912 71.7209 105.863 71.9331 105.746 72.1079L105.144 73.0441L108.387 70.9689C108.744 70.7319 109.333 70.669 109.572 71.0866C109.675 71.2412 109.722 71.4261 109.706 71.611C109.69 71.796 109.612 71.9701 109.485 72.1049C109.488 72.1077 109.491 72.1107 109.493 72.114C109.494 72.1169 109.495 72.1199 109.496 72.123L110.046 71.7575C110.148 71.6899 110.264 71.6458 110.385 71.6285C110.506 71.6112 110.629 71.6212 110.746 71.6577C110.863 71.6941 110.97 71.7562 111.06 71.8393C111.149 71.9224 111.219 72.0245 111.264 72.1381C111.332 72.3184 111.336 72.5165 111.275 72.6992C111.214 72.8819 111.092 73.0382 110.93 73.1419L110.696 73.2975C110.697 73.3063 110.697 73.3153 110.696 73.3241C110.878 73.2558 111.079 73.2545 111.262 73.3206C111.446 73.3867 111.599 73.5158 111.696 73.6849C111.797 73.873 111.822 74.0921 111.769 74.2984C111.715 74.5048 111.585 74.6833 111.405 74.7982L110.824 75.1843C110.836 75.1846 110.848 75.1878 110.859 75.1936C110.869 75.1994 110.878 75.2077 110.885 75.2178C110.892 75.23 110.896 75.2441 110.896 75.2585C111.075 75.2427 111.255 75.2863 111.407 75.3825C111.559 75.4788 111.675 75.6223 111.738 75.7912C111.8 75.9699 111.8 76.1644 111.738 76.3431C111.676 76.5219 111.556 76.6745 111.396 76.7761L106.493 80.0352C105.807 80.4912 105 80.732 104.176 80.7265C103.353 80.7211 102.549 80.4698 101.869 80.0048C101.283 79.6038 100.877 78.99 100.736 78.294C100.595 77.5979 100.731 76.8744 101.115 76.2771L101.582 75.5491Z" fill="#E98862"/>
<g opacity="0.2">
<path d="M106.286 74.1743C106.297 74.1908 106.314 74.2023 106.333 74.2063C106.352 74.2103 106.373 74.2065 106.389 74.1957L109.471 72.2183C109.479 72.213 109.487 72.206 109.492 72.1978C109.498 72.1896 109.502 72.1804 109.504 72.1707C109.506 72.161 109.506 72.1509 109.505 72.1412C109.503 72.1314 109.499 72.122 109.494 72.1136C109.488 72.1053 109.481 72.098 109.473 72.0924C109.465 72.0867 109.456 72.0827 109.446 72.0806C109.436 72.0785 109.426 72.0783 109.417 72.0801C109.407 72.0818 109.397 72.0855 109.389 72.0909L106.307 74.0682C106.299 74.0736 106.292 74.0805 106.286 74.0887C106.28 74.0968 106.276 74.1061 106.274 74.1158C106.272 74.1255 106.272 74.1355 106.274 74.1453C106.275 74.1551 106.279 74.1645 106.285 74.1728L106.286 74.1743Z" fill="#0C0C0C"/>
</g>
<g opacity="0.2">
<path d="M107.12 75.5584C107.131 75.5749 107.148 75.5864 107.167 75.5904C107.187 75.5944 107.207 75.5906 107.223 75.5798L110.663 73.3714C110.671 73.3661 110.678 73.3591 110.684 73.351C110.69 73.3428 110.694 73.3336 110.696 73.3238C110.698 73.3141 110.698 73.304 110.696 73.2942C110.695 73.2843 110.691 73.275 110.685 73.2666C110.674 73.2503 110.657 73.2389 110.637 73.2347C110.618 73.2305 110.598 73.2338 110.581 73.244L107.142 75.4506C107.133 75.4559 107.126 75.4629 107.12 75.4711C107.114 75.4793 107.11 75.4885 107.108 75.4982C107.106 75.508 107.106 75.5181 107.108 75.5279C107.109 75.5377 107.113 75.5471 107.119 75.5554L107.12 75.5584Z" fill="#0C0C0C"/>
</g>
<g opacity="0.2">
<path d="M108.014 77.0609C108.025 77.0773 108.042 77.0888 108.062 77.0928C108.081 77.0968 108.101 77.093 108.118 77.0822L110.861 75.3226C110.878 75.3117 110.89 75.2946 110.894 75.275C110.899 75.2553 110.895 75.2348 110.884 75.2179C110.873 75.201 110.856 75.1891 110.836 75.1848C110.817 75.1806 110.796 75.1843 110.779 75.1951L108.036 76.9548C108.028 76.9601 108.02 76.9671 108.015 76.9753C108.009 76.9835 108.005 76.9927 108.003 77.0024C108.001 77.0122 108 77.0223 108.002 77.0321C108.004 77.0419 108.008 77.0513 108.013 77.0596L108.014 77.0609Z" fill="#0C0C0C"/>
</g>
<path d="M75.0079 67.4772L90.1766 89.0782L82.1938 87.996L101.174 73.3303L108.091 82.2817L89.11 96.9474C87.9374 97.8537 86.4558 98.2633 84.9841 98.0879C83.5125 97.9125 82.1686 97.1663 81.2418 96.0098L81.1262 95.8652L64.6377 75.2549L75.0079 67.4772Z" fill="#4CB748"/>
<path d="M34.2514 199.317H199.694C199.761 199.317 199.825 199.29 199.872 199.243C199.919 199.196 199.946 199.132 199.946 199.065C199.946 198.999 199.919 198.935 199.872 198.887C199.825 198.84 199.761 198.814 199.694 198.814H34.2514C34.1847 198.814 34.1208 198.84 34.0736 198.887C34.0265 198.935 34 198.999 34 199.065C34 199.132 34.0265 199.196 34.0736 199.243C34.1208 199.29 34.1847 199.317 34.2514 199.317Z" fill="#262626"/>
<path d="M137.997 58.3195H136.451C136.146 58.3198 135.845 58.2605 135.563 58.145C135.282 58.0295 135.026 57.86 134.811 57.6463C134.595 57.4325 134.425 57.1787 134.308 56.8994C134.192 56.62 134.132 56.3207 134.133 56.0184V54.4861C134.133 52.9611 133.522 51.4986 132.436 50.4202C131.349 49.3419 129.876 48.7361 128.339 48.7361C126.803 48.7361 125.329 49.3419 124.243 50.4202C123.156 51.4986 122.546 52.9611 122.546 54.4861V56.0184C122.546 56.6259 122.304 57.2088 121.873 57.6399C121.441 58.071 120.856 58.3153 120.244 58.3195H118.687C117.15 58.3195 115.676 58.9252 114.589 60.0034C113.502 61.0817 112.891 62.5442 112.891 64.0695C112.891 65.5947 113.502 67.0573 114.589 68.1355C115.676 69.2138 117.15 69.8195 118.687 69.8195H120.244C120.548 69.8195 120.85 69.879 121.131 69.9947C121.412 70.1103 121.668 70.2798 121.883 70.4935C122.098 70.7071 122.269 70.9608 122.386 71.24C122.502 71.5192 122.562 71.8184 122.562 72.1206V73.6555C122.562 74.9443 122.998 76.1957 123.8 77.2089C124.603 78.2221 125.725 78.9382 126.987 79.2422C128.249 79.5462 129.577 79.4205 130.758 78.8852C131.939 78.3499 132.905 77.4361 133.5 76.2906L127.089 64.7853C126.928 64.4582 126.898 64.0831 127.003 63.7345C127.108 63.3859 127.342 63.0895 127.658 62.9043C127.973 62.7191 128.348 62.6587 128.706 62.7351C129.064 62.8115 129.381 63.0191 129.592 63.3166L133.865 70.1244C133.872 69.819 133.957 69.5203 134.113 69.2567C134.269 68.9932 134.49 68.7735 134.755 68.6186C135.644 68.0327 136.79 68.0884 137.482 69.0216C137.563 69.1289 137.633 69.2434 137.693 69.3635C137.399 68.6186 137.693 67.8445 138.66 67.4813C139.429 67.1924 140.23 67.2295 140.853 68.0592C140.988 68.2515 141.101 68.4588 141.189 68.6769C141.167 68.4649 141.215 68.2514 141.325 68.0685C141.435 67.8855 141.602 67.7428 141.801 67.6616C142.073 67.521 142.375 67.4457 142.682 67.4416C143.403 66.4627 143.791 65.2818 143.791 64.0695C143.791 63.3144 143.641 62.5667 143.35 61.869C143.059 61.1714 142.632 60.5375 142.094 60.0036C141.556 59.4697 140.917 59.0461 140.214 58.7572C139.512 58.4682 138.758 58.3195 137.997 58.3195ZM132.404 65.1325C132.393 65.1754 132.373 65.2155 132.346 65.2508C132.319 65.286 132.285 65.3156 132.247 65.3379C132.208 65.3601 132.166 65.3747 132.121 65.3806C132.077 65.3865 132.032 65.3838 131.989 65.3724C131.946 65.3611 131.906 65.3415 131.87 65.3147C131.835 65.2878 131.805 65.2543 131.782 65.216C131.76 65.1777 131.745 65.1355 131.739 65.0916C131.733 65.0477 131.736 65.003 131.747 64.9602C131.926 64.291 131.9 63.5843 131.674 62.9296C131.447 62.2749 131.03 61.7017 130.475 61.2825C129.92 60.8634 129.252 60.6172 128.556 60.5752C127.86 60.5331 127.167 60.6971 126.564 61.0463C125.962 61.3955 125.478 61.9143 125.173 62.5369C124.868 63.1595 124.757 63.8579 124.852 64.5437C124.947 65.2294 125.246 65.8716 125.709 66.3889C126.173 66.9062 126.78 67.2753 127.455 67.4495C127.534 67.4719 127.602 67.5214 127.647 67.5891C127.691 67.6568 127.71 67.7382 127.7 67.8186C127.69 67.899 127.651 67.9731 127.59 68.0275C127.53 68.0818 127.451 68.1128 127.37 68.1149C127.341 68.119 127.313 68.119 127.284 68.1149C126.479 67.908 125.753 67.4686 125.2 66.8522C124.646 66.2358 124.289 65.4702 124.174 64.6523C124.059 63.8345 124.191 63.0011 124.553 62.2578C124.916 61.5144 125.492 60.8945 126.21 60.4766C126.927 60.0586 127.754 59.8614 128.584 59.9098C129.415 59.9583 130.212 60.2503 130.876 60.7488C131.539 61.2473 132.038 61.93 132.31 62.7104C132.583 63.4907 132.615 64.3337 132.404 65.1325ZM134.878 65.782C134.864 65.8304 134.832 65.8719 134.79 65.8987C134.767 65.9115 134.742 65.9197 134.717 65.9229C134.691 65.9261 134.665 65.9241 134.64 65.9172C134.615 65.9117 134.592 65.9011 134.572 65.886C134.552 65.8709 134.535 65.8518 134.523 65.8297C134.509 65.8077 134.5 65.7831 134.497 65.7577C134.493 65.7322 134.495 65.7062 134.501 65.6813C134.821 64.4726 134.772 63.197 134.361 62.0157C133.951 60.8344 133.197 59.8004 132.194 59.0445C131.191 58.2886 129.986 57.8446 128.729 57.7687C127.472 57.6928 126.221 57.9884 125.134 58.6181C124.046 59.2478 123.171 60.1834 122.619 61.3065C122.067 62.4297 121.863 63.69 122.033 64.9283C122.202 66.1665 122.738 67.3271 123.572 68.2633C124.406 69.1995 125.501 69.8693 126.718 70.188C126.768 70.2017 126.81 70.2341 126.836 70.2781C126.849 70.2999 126.857 70.324 126.86 70.3491C126.863 70.3742 126.861 70.3996 126.854 70.4239C126.844 70.465 126.819 70.5014 126.786 70.5273C126.752 70.5533 126.71 70.5673 126.667 70.5671H126.617C125.322 70.2299 124.158 69.519 123.272 68.5244C122.385 67.5298 121.816 66.2964 121.636 64.9804C121.456 63.6644 121.674 62.3251 122.262 61.1322C122.851 59.9393 123.782 58.9465 124.939 58.2797C126.094 57.6115 127.422 57.298 128.756 57.3791C130.09 57.4602 131.37 57.9321 132.434 58.7351C133.498 59.5382 134.298 60.6363 134.733 61.8907C135.168 63.145 135.218 64.4992 134.878 65.782Z" fill="#FF6B00"/>
<path d="M116.405 56.0952C115.453 56.4409 114.579 56.9698 113.833 57.6513C113.105 58.3192 112.516 59.1227 112.1 60.016C111.694 60.892 111.466 61.8388 111.43 62.8022C111.395 63.7452 111.549 64.6858 111.881 65.5699C111.656 64.6746 111.61 63.7443 111.745 62.8314C111.88 61.9381 112.19 61.0797 112.658 60.305C113.117 59.5494 113.722 58.8909 114.437 58.3671C115.136 57.8567 115.929 57.4867 116.771 57.2775C116.853 57.2596 116.93 57.2256 116.998 57.1777C117.066 57.1297 117.123 57.0687 117.167 56.9984C117.211 56.928 117.24 56.8496 117.253 56.7678C117.266 56.686 117.262 56.6025 117.242 56.5221C117.222 56.4418 117.186 56.3663 117.136 56.3C117.086 56.2338 117.023 56.1781 116.951 56.1364C116.879 56.0946 116.799 56.0676 116.717 56.0569C116.634 56.0461 116.55 56.052 116.47 56.074L116.403 56.0925L116.405 56.0952Z" fill="#FF6B00"/>
</g>
<defs>
<clipPath id="clip0_58_31512">
<rect width="174" height="198.594" fill="white" transform="translate(34 0.722656)"/>
</clipPath>
</defs>
</svg>
