<svg width="319" height="180" viewBox="0 0 319 180" fill="none" xmlns="http://www.w3.org/2000/svg">
<rect width="240" height="180" transform="translate(39)" fill="white"/>
<g clip-path="url(#clip0_58_31701)">
<path d="M18.2215 165.573C7.09208 165.573 -0.985369 155.023 1.87187 144.267C6.43406 127.092 19.5032 104.066 56.0334 93.1438C104.551 78.6379 101.831 20.1693 140.583 20.1693C179.335 20.1693 179.539 49.8624 191.093 52.8827C202.647 55.903 241.377 46.9348 250.029 73.4044C266.021 122.334 287.487 98.7462 304.146 136.426C305.182 138.787 306.079 141.207 306.833 143.673C310.189 154.554 302.04 165.574 290.654 165.574L18.2215 165.573Z" fill="#EEF8ED"/>
<path d="M281.203 120.459C279.657 125.145 274.319 129.308 275.912 132.754C276.519 134.064 277.128 135.434 277.408 136.834C277.59 137.668 277.621 138.528 277.498 139.373C276.923 143.022 273.508 145.446 270.333 147.333C270.137 147.449 269.939 147.568 269.741 147.686C266.732 149.489 263.581 151.565 262.614 154.892C262.078 156.741 262.315 158.717 262.092 160.629C261.882 162.386 261.285 164.074 260.345 165.573H240.068C238.268 163.589 238.417 160.255 239.788 157.915C241.253 155.412 243.731 153.711 245.967 151.859C247.898 150.26 249.78 148.334 250.517 145.985C250.634 145.613 250.721 145.232 250.776 144.847C250.955 143.575 250.858 137.082 253.062 133.085C256.469 126.913 261.996 128.434 263.685 124.951C264.332 123.617 264.891 107.226 275.656 110.254C276.706 110.534 277.688 111.026 278.542 111.698C279.395 112.371 280.103 113.21 280.622 114.165C281.141 115.12 281.46 116.17 281.56 117.252C281.66 118.334 281.539 119.425 281.203 120.459Z" fill="#C1D8ED"/>
<path d="M300.895 146.089C300.586 146.301 300.254 146.478 299.905 146.615C297 147.705 288.921 147.584 287.74 150.453C287.184 151.801 287.051 153.29 286.575 154.67C285.495 157.799 282.643 160.146 279.453 161.028C278.306 161.344 277.117 161.492 275.981 161.844C273.787 162.528 271.969 163.903 270.372 165.573H244.184C244.172 163.836 244.599 162.125 245.426 160.597C246.252 159.07 247.451 157.776 248.911 156.835C251.822 154.998 255.501 154.655 258.359 152.736C260.244 151.47 261.6 149.641 262.675 147.618C263.359 146.295 263.963 144.932 264.485 143.537C265.285 141.461 266.121 139.233 267.938 137.948C268.803 137.337 269.828 136.994 270.855 136.726C273.479 136.039 275.497 136.443 277.408 136.834C279.728 137.308 281.894 137.76 284.801 136.216C289.958 133.476 297.497 119.81 305.032 132.794C308.054 138.001 303.886 144.088 300.895 146.089Z" fill="#8DDBE0"/>
<path d="M40.7073 120.459C42.2539 125.145 47.5921 129.308 45.998 132.754C45.3915 134.064 44.7825 135.434 44.5022 136.834C44.3203 137.668 44.29 138.528 44.4128 139.373C44.988 143.022 48.4024 145.446 51.5778 147.333C51.7736 147.45 51.9718 147.568 52.1699 147.686C55.1785 149.489 58.3296 151.565 59.2961 154.892C59.8328 156.741 59.5959 158.717 59.8183 160.629C60.029 162.386 60.6256 164.074 61.5654 165.573H81.8428C83.643 163.59 83.4932 160.255 82.1229 157.915C80.6571 155.412 78.1791 153.711 75.9439 151.86C74.0129 150.26 72.1305 148.334 71.3934 145.985C71.2764 145.613 71.1899 145.233 71.1351 144.847C70.956 143.576 71.0526 137.082 68.8488 133.085C65.4417 126.914 59.915 128.434 58.2259 124.951C57.5781 123.617 57.02 107.226 46.2543 110.254C45.2045 110.535 44.2228 111.026 43.369 111.698C42.5153 112.371 41.8073 113.21 41.2884 114.165C40.7694 115.12 40.4502 116.17 40.3503 117.252C40.2504 118.334 40.3719 119.425 40.7073 120.459Z" fill="#C1D8ED"/>
<path d="M21.015 146.089C21.3241 146.302 21.6565 146.478 22.0058 146.616C24.9105 147.705 32.9891 147.584 34.1707 150.453C34.7266 151.801 34.8594 153.29 35.3353 154.67C36.4157 157.799 39.2672 160.146 42.457 161.028C43.605 161.344 44.7932 161.492 45.9295 161.844C48.1239 162.528 49.941 163.904 51.5383 165.573H77.7265C77.738 163.837 77.3109 162.125 76.4846 160.597C75.6583 159.07 74.4597 157.776 72.9998 156.835C70.0878 154.999 66.4097 154.655 63.5509 152.737C61.6661 151.47 60.3105 149.641 59.2351 147.618C58.5512 146.295 57.9469 144.932 57.4257 143.537C56.6259 141.461 55.7897 139.233 53.9725 137.948C53.1075 137.337 52.0828 136.994 51.0558 136.726C48.4315 136.039 46.4136 136.443 44.5021 136.835C42.1822 137.308 40.0171 137.76 37.1099 136.216C31.9529 133.476 24.4132 119.81 16.8786 132.794C13.8565 138.001 18.0249 144.088 21.015 146.089Z" fill="#8DDBE0"/>
<path d="M280.432 32.9774C280.432 32.9774 278.459 31.7308 278.973 30.2869C279.488 28.8431 280.796 28.218 282.827 28.9177C284.272 29.4152 284.485 29.0831 285.778 28.5774C286.52 28.2879 288.852 28.6232 289.312 30.2553C289.805 32.0031 291.834 30.7727 291.802 33.5567C291.775 35.8867 291.096 38.8637 288.367 40.6939" fill="#0F1011"/>
<path d="M287.771 45.9465C287.771 45.9465 286.077 44.8755 286.838 40.0968L283.242 39.1422C283.242 39.1422 283.323 43.4848 281.373 44.7129L287.771 45.9465Z" fill="#E98862"/>
<g opacity="0.15">
<path d="M282.188 43.8686L285.396 41.7807L283.018 41.5746C282.886 42.3842 282.605 43.1622 282.188 43.8686Z" fill="black"/>
</g>
<path d="M289.05 38.3899C288.686 39.8296 287.785 41.1505 286.462 41.5238C284.892 41.9668 283.757 41.9185 281.996 41.7842C279.592 41.601 279.863 39.1001 279.988 36.5688C280.113 34.0265 280.522 31.3223 281.54 30.5108C283.57 28.8913 289.051 30.4327 289.503 33.4349C289.737 34.9876 289.397 37.0196 289.05 38.3899Z" fill="#E98862"/>
<path d="M286.568 41.3925C286.625 41.641 286.67 41.7507 286.898 41.6376C287.795 41.1932 289.81 40.2313 290.784 36.1265C291.658 32.4484 289.479 30.7377 287.688 30.0501C286.145 29.4576 282.468 29.0797 280.659 29.9901C279.101 30.7748 280.432 32.9775 280.432 32.9775C281.41 33.7983 284.351 33.7674 285.472 33.9005C286.499 34.0223 286.526 34.6519 286.459 35.0507C286.051 37.4741 286.365 40.5148 286.568 41.3925Z" fill="#0F1011"/>
<path d="M283.448 36.8315C283.631 36.8315 283.78 36.6829 283.78 36.4996C283.78 36.3163 283.631 36.1677 283.448 36.1677C283.265 36.1677 283.116 36.3163 283.116 36.4996C283.116 36.6829 283.265 36.8315 283.448 36.8315Z" fill="#0F1011"/>
<path d="M280.854 36.4185C281.038 36.4185 281.186 36.2699 281.186 36.0866C281.186 35.9033 281.038 35.7548 280.854 35.7548C280.671 35.7548 280.522 35.9033 280.522 36.0866C280.522 36.2699 280.671 36.4185 280.854 36.4185Z" fill="#0F1011"/>
<path d="M281.224 35.394H281.214L280.336 35.3384C280.296 35.335 280.258 35.3158 280.231 35.2849C280.205 35.254 280.191 35.2138 280.194 35.1731C280.196 35.1324 280.215 35.0943 280.245 35.067C280.275 35.0397 280.315 35.0254 280.356 35.0271L281.233 35.083C281.274 35.086 281.311 35.1044 281.338 35.1343C281.365 35.1641 281.379 35.2032 281.378 35.2434C281.376 35.2835 281.36 35.3216 281.331 35.3498C281.302 35.3779 281.264 35.3939 281.224 35.3945V35.394Z" fill="#0F1011"/>
<path d="M284.22 35.9551C284.203 35.9551 284.187 35.9525 284.172 35.9474L283.324 35.6737C283.285 35.661 283.252 35.6331 283.233 35.5962C283.214 35.5593 283.211 35.5164 283.223 35.4769C283.236 35.4374 283.264 35.4046 283.301 35.3857C283.338 35.3667 283.381 35.3632 283.42 35.3759L284.268 35.6508C284.303 35.6622 284.333 35.6859 284.352 35.7175C284.372 35.7492 284.379 35.7867 284.374 35.8234C284.368 35.8601 284.349 35.8935 284.321 35.9177C284.293 35.9418 284.257 35.9551 284.22 35.9551Z" fill="#0F1011"/>
<path d="M285.107 37.4407C285.078 37.6232 285.085 37.8096 285.128 37.9892C285.171 38.1689 285.249 38.3384 285.358 38.4879C285.466 38.6374 285.603 38.7642 285.761 38.8608C285.918 38.9575 286.093 39.0222 286.276 39.0512C286.458 39.0802 286.644 39.0731 286.824 39.0301C287.004 38.9871 287.173 38.9091 287.323 38.8006C287.472 38.6922 287.599 38.5553 287.696 38.3978C287.792 38.2404 287.857 38.0654 287.886 37.883C287.918 37.7002 287.913 37.5127 287.872 37.3318C287.83 37.1509 287.753 36.9802 287.644 36.83C287.535 36.6797 287.396 36.5529 287.237 36.4571C287.078 36.3613 286.902 36.2985 286.718 36.2724C285.72 36.1632 285.229 36.6732 285.107 37.4407Z" fill="#E98862"/>
<g opacity="0.15">
<path d="M281.847 38.2245C281.833 38.2245 281.818 38.2218 281.805 38.2165L281.026 37.9112C281.011 37.9052 280.998 37.8962 280.987 37.8847C280.975 37.8731 280.967 37.8593 280.961 37.8442C280.956 37.8291 280.953 37.8129 280.954 37.7968C280.955 37.7807 280.96 37.7651 280.968 37.7509L281.58 36.6244C281.587 36.6106 281.597 36.5983 281.608 36.5882C281.62 36.5782 281.634 36.5706 281.648 36.5659C281.663 36.5613 281.678 36.5596 281.694 36.5611C281.709 36.5625 281.724 36.5671 281.738 36.5744C281.751 36.5818 281.763 36.5918 281.773 36.6039C281.782 36.616 281.789 36.6299 281.793 36.6448C281.797 36.6596 281.799 36.6752 281.796 36.6905C281.794 36.7057 281.789 36.7205 281.781 36.7337L281.232 37.7463L281.889 38.0044C281.914 38.0142 281.934 38.0323 281.947 38.0556C281.96 38.0789 281.964 38.106 281.959 38.1321C281.954 38.1583 281.94 38.1819 281.92 38.1989C281.899 38.216 281.874 38.2253 281.847 38.2254V38.2245Z" fill="black"/>
</g>
<path d="M283.096 39.0948C283.096 39.0948 281.864 39.1305 281.031 38.7661C281.031 38.7661 280.976 39.5712 281.937 39.7242C282.898 39.8772 283.096 39.0948 283.096 39.0948Z" fill="white"/>
<path d="M210.443 98.2087H199.296C197.887 98.2087 196.745 99.351 196.745 100.76V110.402C196.745 111.811 197.887 112.953 199.296 112.953H210.443C211.852 112.953 212.994 111.811 212.994 110.402V100.76C212.994 99.351 211.852 98.2087 210.443 98.2087Z" fill="#C1D8ED"/>
<path d="M133.662 53.5969H118.625C116.725 53.5969 115.184 55.1378 115.184 57.0387V70.0461C115.184 71.947 116.725 73.4879 118.625 73.4879H133.662C135.563 73.4879 137.104 71.947 137.104 70.0461V57.0387C137.104 55.1378 135.563 53.5969 133.662 53.5969Z" fill="#FF6B00"/>
<path d="M158.33 48.0285C158.392 48.0272 158.454 48.0315 158.515 48.0414C160.057 48.5542 160.526 49.3061 160.782 49.9742C161.048 50.7465 161.144 51.5674 161.062 52.3802C160.939 53.6603 160.442 54.8759 159.635 55.877C159.237 56.3586 158.748 56.757 158.195 57.0492C157.643 57.3414 157.038 57.5217 156.416 57.5798C153.566 57.906 150.699 58.0615 147.831 58.0457C146.574 58.0457 145.283 58.0214 143.958 57.9729C146.167 55.6839 148.546 53.565 151.074 51.634C155.677 48.2024 157.926 48.0285 158.33 48.0285ZM158.33 42.5316C152.688 42.5316 143.901 49.0466 134.21 60.55C134.04 60.743 133.929 60.9803 133.889 61.2343C133.849 61.4882 133.882 61.7483 133.984 61.9842C134.076 62.228 134.236 62.4404 134.445 62.5967C134.653 62.7531 134.902 62.8469 135.162 62.8672C138.67 63.2194 143.161 63.5424 147.831 63.5424C150.921 63.558 154.009 63.3891 157.079 63.0364C162.981 62.3193 166.08 57.4431 166.532 52.9286C166.715 51.1089 166.801 45.0039 160.249 42.8248C159.629 42.6245 158.981 42.5255 158.33 42.5316Z" fill="#FF6B00"/>
<path d="M94.1988 48.0288C94.6031 48.0288 96.8529 48.2026 101.456 51.6341C103.984 53.565 106.362 55.6839 108.571 57.9729C107.248 58.0213 105.957 58.0455 104.698 58.0455C101.829 58.0614 98.9626 57.9059 96.1127 57.5796C95.4905 57.5215 94.886 57.3412 94.3336 57.049C93.7813 56.7567 93.2921 56.3584 92.894 55.8768C92.0865 54.8755 91.5902 53.6595 91.4664 52.3791C91.3852 51.5666 91.4811 50.7462 91.7474 49.9742C92.0028 49.3061 92.4719 48.5542 94.0064 48.0437C94.0699 48.032 94.1344 48.0268 94.1988 48.0288ZM94.1988 42.5321C93.5478 42.5259 92.9 42.6248 92.2804 42.8251C85.7286 45.0039 85.8142 51.1089 85.997 52.9286C86.4498 57.4431 89.5485 62.3191 95.4496 63.0365C98.5195 63.3893 101.608 63.5583 104.698 63.5426C109.369 63.5426 113.859 63.2195 117.368 62.8672C117.627 62.8469 117.876 62.7532 118.084 62.5969C118.293 62.4406 118.453 62.2282 118.545 61.9845C118.647 61.7486 118.68 61.4884 118.64 61.2344C118.6 60.9804 118.488 60.743 118.319 60.55C108.629 49.0466 99.8419 42.5321 94.1988 42.5321Z" fill="#FF6B00"/>
<path d="M178.281 75.3223H73.0908V165.574H178.281V75.3223Z" fill="#FF6B00"/>
<path d="M136.079 75.5027H115.294V165.574H136.079V75.5027Z" fill="white"/>
<g opacity="0.19">
<path d="M178.281 75.3221H73.0908V94.0789H178.281V75.3221Z" fill="black"/>
</g>
<path d="M185.589 61.4446H65.7832V80.0896H185.589V61.4446Z" fill="#FF6B00"/>
<path d="M140.771 61.4446H110.6V80.0896H140.771V61.4446Z" fill="white"/>
<path d="M229.925 95.0348C230.811 95.3476 231.024 95.7368 231.156 96.0787C231.325 96.5742 231.384 97.1004 231.331 97.621C231.279 98.135 230.893 100.714 228.347 101.024C226.148 101.275 223.937 101.395 221.724 101.383C221.304 101.383 220.878 101.379 220.448 101.372C225.68 96.3268 228.933 95.0409 229.925 95.0348ZM229.932 89.9959C225.521 89.9959 218.652 95.089 211.076 104.082C210.943 104.233 210.856 104.418 210.824 104.617C210.793 104.816 210.819 105.019 210.899 105.204C210.971 105.395 211.096 105.561 211.259 105.683C211.422 105.805 211.617 105.878 211.82 105.894C214.562 106.169 218.073 106.421 221.724 106.421C224.14 106.433 226.554 106.301 228.954 106.026C233.568 105.465 235.99 101.653 236.345 98.1238C236.487 96.7012 236.555 91.9276 231.432 90.225C230.948 90.0684 230.441 89.9911 229.932 89.9959Z" fill="#C1D8ED"/>
<path d="M179.804 95.0347C180.796 95.0409 184.049 96.3265 189.282 101.372C188.851 101.379 188.425 101.383 188.005 101.383C185.792 101.395 183.581 101.275 181.382 101.024C178.836 100.714 178.451 98.135 178.398 97.6199C178.345 97.0996 178.404 96.5739 178.573 96.0787C178.704 95.7367 178.918 95.3476 179.804 95.0347ZM179.797 89.9959C179.288 89.9911 178.781 90.0684 178.297 90.225C173.174 91.9276 173.242 96.7012 173.385 98.1238C173.739 101.653 176.161 105.465 180.775 106.026C183.174 106.301 185.589 106.434 188.005 106.421C191.656 106.421 195.167 106.169 197.909 105.893C198.112 105.878 198.307 105.804 198.47 105.682C198.633 105.56 198.758 105.394 198.83 105.203C198.91 105.019 198.936 104.815 198.904 104.616C198.873 104.418 198.786 104.232 198.653 104.081C191.078 95.0881 184.208 89.9952 179.797 89.9952V89.9959Z" fill="#C1D8ED"/>
<path d="M245.53 115.63H163.295V165.573H245.53V115.63Z" fill="#C1D8ED"/>
<path d="M212.537 115.771H196.288V165.573H212.537V115.771Z" fill="white"/>
<g opacity="0.19">
<path d="M245.531 115.63H163.296V130.294H245.531V115.63Z" fill="black"/>
</g>
<path d="M251.243 104.781H157.582V119.358H251.243V104.781Z" fill="#C1D8ED"/>
<path d="M216.207 104.781H192.619V119.358H216.207V104.781Z" fill="white"/>
<path d="M47.975 28.1069L50.4087 26.91C50.4087 26.91 50.3686 23.4014 47.2604 21.865C46.2297 21.3558 45.6363 22.5115 45.85 22.8469C46.5563 23.9549 47.3616 24.9588 47.4642 26.0834C47.0542 25.7728 46.4686 25.3816 46.3264 25.5609C45.9521 26.0321 47.975 28.1069 47.975 28.1069Z" fill="#E98862"/>
<path d="M15.8894 32.2664L13.2949 33.0575C13.2949 33.0575 11.1021 29.99 12.3189 26.7432C12.7223 25.6667 13.9451 26.1039 14.0193 26.4949C14.2619 27.7865 14.1831 29.5503 14.8777 30.4405C14.9645 29.9334 15.1242 29.2475 15.3507 29.2811C15.9462 29.3696 15.8894 32.2664 15.8894 32.2664Z" fill="#E98862"/>
<path d="M46.9295 39.2724C47.0353 40.1089 46.1966 40.9297 46.0869 41.7272C45.9744 42.5518 46.5557 43.5682 46.2397 44.3183C45.919 45.0792 44.7823 45.3719 44.2796 46.0203C43.7768 46.6687 43.7757 47.8425 43.1181 48.3423C42.4704 48.8349 41.3419 48.5241 40.5705 48.8384C39.825 49.1421 39.2389 50.1592 38.4022 50.2651C37.5656 50.3709 36.7449 49.531 35.9474 49.4222C35.1229 49.3097 34.1064 49.8913 33.3563 49.575C32.5955 49.2543 32.3027 48.1176 31.6543 47.6149C31.0059 47.1121 29.8321 47.111 29.3324 46.4536C28.8397 45.8057 29.1505 44.6772 28.8363 43.9058C28.5326 43.1603 27.5154 42.5742 27.4096 41.7375C27.3038 40.9009 28.1425 40.0805 28.2525 39.2827C28.3649 38.4582 27.7834 37.4417 28.0997 36.6916C28.4203 35.9308 29.5571 35.6381 30.0598 34.9897C30.5625 34.3412 30.5637 33.1677 31.221 32.6679C31.869 32.1752 32.9974 32.4847 33.7688 32.1716C34.5143 31.8679 35.1004 30.8507 35.9371 30.7451C36.7738 30.6395 37.5942 31.4781 38.3919 31.5878C39.2165 31.7002 40.2329 31.1189 40.983 31.435C41.7439 31.7556 42.0366 32.8924 42.685 33.3951C43.3334 33.8978 44.5072 33.899 45.0068 34.5565C45.4994 35.2043 45.1888 36.3327 45.5031 37.1041C45.8056 37.8496 46.8228 38.4357 46.9295 39.2724Z" fill="#0F1011"/>
<path d="M33.8682 49.7481C33.8682 49.7481 35.5963 48.7323 34.9904 43.9306L38.6163 43.0925C38.6163 43.0925 38.3951 47.4303 40.3046 48.7207L33.8682 49.7481Z" fill="#E98862"/>
<g opacity="0.15">
<path d="M39.5157 47.8513L36.3779 45.6613L38.7622 45.5319C38.8667 46.3452 39.1222 47.1319 39.5157 47.8513Z" fill="black"/>
</g>
<path d="M32.8344 42.1542C33.1516 43.6049 34.01 44.9542 35.3201 45.3699C36.7501 45.8661 38.2798 46.0049 39.7758 45.7742C43.7633 45.2703 42.5726 36.2057 40.5953 34.5216C38.618 32.8375 33.0907 34.2009 32.5419 37.1871C32.2581 38.7315 32.5325 40.7736 32.8344 42.1542Z" fill="#E98862"/>
<path d="M38.495 40.7776C38.6783 40.7776 38.8268 40.6291 38.8268 40.4458C38.8268 40.2625 38.6783 40.1139 38.495 40.1139C38.3117 40.1139 38.1631 40.2625 38.1631 40.4458C38.1631 40.6291 38.3117 40.7776 38.495 40.7776Z" fill="#0F1011"/>
<path d="M41.1014 40.4483C41.2847 40.4483 41.4333 40.2997 41.4333 40.1164C41.4333 39.9331 41.2847 39.7845 41.1014 39.7845C40.9181 39.7845 40.7695 39.9331 40.7695 40.1164C40.7695 40.2997 40.9181 40.4483 41.1014 40.4483Z" fill="#0F1011"/>
<path d="M40.7584 39.4123C40.718 39.4115 40.6794 39.3951 40.6509 39.3664C40.6224 39.3378 40.6061 39.2992 40.6055 39.2588C40.6049 39.2184 40.62 39.1793 40.6476 39.1498C40.6752 39.1203 40.7132 39.1027 40.7536 39.1006L41.6324 39.0731C41.6732 39.0727 41.7125 39.0883 41.7419 39.1165C41.7713 39.1448 41.7885 39.1834 41.7898 39.2242C41.7911 39.2649 41.7764 39.3046 41.7488 39.3346C41.7212 39.3646 41.683 39.3827 41.6422 39.3848L40.7634 39.4123H40.7584Z" fill="#0F1011"/>
<path d="M37.7452 39.8766C37.7076 39.8767 37.6711 39.8632 37.6427 39.8385C37.6142 39.8138 37.5956 39.7797 37.5904 39.7424C37.5851 39.7051 37.5936 39.6672 37.6141 39.6356C37.6347 39.604 37.6659 39.5809 37.7022 39.5706L38.559 39.3244C38.5787 39.3188 38.5992 39.317 38.6196 39.3193C38.6399 39.3217 38.6596 39.3279 38.6775 39.3379C38.6954 39.3478 38.7112 39.3611 38.724 39.3771C38.7367 39.3931 38.7462 39.4115 38.7518 39.4312C38.7575 39.4508 38.7592 39.4714 38.7569 39.4918C38.7546 39.5121 38.7483 39.5318 38.7384 39.5497C38.7285 39.5676 38.7152 39.5834 38.6991 39.5961C38.6831 39.6089 38.6648 39.6184 38.6451 39.624L37.7883 39.8704C37.7743 39.8745 37.7598 39.8766 37.7452 39.8766Z" fill="#0F1011"/>
<path d="M38.7627 43.0502C38.7627 43.0502 39.9924 43.1256 40.8371 42.7882C40.8371 42.7882 40.8655 43.5946 39.9006 43.7165C38.9356 43.8383 38.7627 43.0502 38.7627 43.0502Z" fill="white"/>
<path d="M35.3603 38.2489C35.7537 41.6644 35.5305 45.1228 34.7013 48.4594C34.7013 48.4594 31.6963 43.7735 31.0857 39.7874C30.5131 36.0506 33.1828 33.7126 35.0336 33.2126C42.0676 31.3116 42.8113 36.4796 42.8113 36.4796C41.6372 39.2281 34.647 39.5299 34.647 39.5299" fill="#0F1011"/>
<path d="M36.8829 41.9481C36.9281 42.3175 36.825 42.6898 36.5963 42.9834C36.3676 43.277 36.0319 43.468 35.6627 43.5147C35.2935 43.5613 34.9208 43.4598 34.6263 43.2323C34.3317 43.0048 34.1393 42.6699 34.0912 42.3008C34.0648 42.117 34.0757 41.9298 34.1232 41.7503C34.1706 41.5709 34.2537 41.4028 34.3676 41.2561C34.4814 41.1094 34.6235 40.9871 34.7856 40.8965C34.9476 40.8059 35.1262 40.7488 35.3108 40.7287C36.3113 40.6522 36.7856 41.1772 36.8829 41.9481Z" fill="#E98862"/>
<g opacity="0.15">
<path d="M40.042 42.2204C40.0149 42.2205 39.9886 42.2111 39.9678 42.1937C39.947 42.1763 39.933 42.1521 39.9284 42.1254C39.9238 42.0986 39.9288 42.0712 39.9426 42.0478C39.9563 42.0244 39.9779 42.0067 40.0035 41.9977L40.6677 41.7612L40.1501 40.7305C40.1364 40.7033 40.1341 40.6719 40.1436 40.643C40.1532 40.6141 40.1738 40.5902 40.2009 40.5766C40.2281 40.5629 40.2596 40.5606 40.2884 40.5701C40.3173 40.5797 40.3412 40.6003 40.3548 40.6274L40.9306 41.7726C40.938 41.7871 40.9421 41.803 40.9428 41.8192C40.9435 41.8355 40.9408 41.8517 40.9348 41.8667C40.9286 41.8818 40.9192 41.8955 40.9074 41.9067C40.8955 41.918 40.8815 41.9266 40.8661 41.932L40.0814 42.2137C40.0687 42.2182 40.0554 42.2204 40.042 42.2204Z" fill="black"/>
</g>
<path d="M8.0657 100.013C7.92576 99.9778 7.5002 99.8716 3.48633 98.3457L5.1954 93.8497C6.89692 94.4965 8.94497 95.2583 9.28601 95.3614C9.26448 95.355 9.24615 95.3504 9.23195 95.347L8.0657 100.013Z" fill="#E98862"/>
<path d="M0.0373225 103.6C0.00124553 103.724 -0.00882109 103.854 0.00775164 103.983C0.0243244 104.111 0.0671803 104.235 0.133642 104.346C0.200103 104.457 0.288742 104.553 0.394019 104.628C0.499297 104.703 0.618951 104.756 0.745506 104.783C0.92091 104.82 1.10331 104.806 1.27122 104.743C1.43913 104.68 1.58556 104.571 1.69326 104.427L5.07591 99.5885C5.14104 99.4946 5.18511 99.3878 5.20512 99.2753C5.22512 99.1629 5.22058 99.0474 5.1918 98.9369C4.89754 98.0476 4.89625 97.0874 5.18814 96.1973C5.4442 95.5125 5.88761 94.9135 6.46777 94.4686C6.52357 94.4308 6.56745 94.3779 6.59425 94.3161C6.62105 94.2542 6.62967 94.1861 6.61909 94.1195C6.60852 94.053 6.57918 93.9908 6.53453 93.9404C6.48988 93.8899 6.43176 93.8532 6.36699 93.8346L3.742 93.0604C3.66455 93.0376 3.58336 93.0303 3.50307 93.0389C3.42279 93.0475 3.34499 93.0719 3.27415 93.1106C3.20331 93.1494 3.14082 93.2018 3.09026 93.2647C3.03971 93.3277 3.00208 93.4 2.97953 93.4775L0.0373225 103.6Z" fill="#C1D8ED"/>
<path d="M27.7326 115.126L26.9141 110.386C28.7079 110.077 30.8583 109.689 31.2044 109.604C31.1815 109.609 31.1643 109.615 31.1503 109.619L32.5232 114.229C32.3858 114.27 31.9643 114.395 27.7326 115.126Z" fill="#E98862"/>
<path d="M27.4398 121.404C27.4721 121.53 27.5299 121.647 27.6095 121.749C27.6891 121.851 27.7889 121.935 27.9026 121.997C28.0163 122.059 28.1415 122.096 28.2704 122.107C28.3993 122.118 28.5291 122.103 28.6517 122.061C28.8215 122.004 28.9715 121.899 29.0839 121.76C29.1963 121.62 29.2664 121.451 29.2861 121.273L29.7332 115.387C29.7415 115.273 29.725 115.159 29.685 115.052C29.6449 114.945 29.5822 114.847 29.5012 114.767C28.7954 114.151 28.3058 113.326 28.104 112.411C27.9756 111.691 28.0522 110.95 28.3248 110.272C28.3534 110.211 28.3641 110.143 28.3556 110.077C28.3471 110.01 28.3199 109.947 28.2771 109.895C28.2342 109.844 28.1776 109.805 28.1137 109.784C28.0498 109.763 27.9813 109.761 27.9162 109.778L25.2622 110.448C25.1837 110.468 25.11 110.503 25.0451 110.551C24.9802 110.599 24.9255 110.66 24.8842 110.729C24.8428 110.799 24.8156 110.876 24.8041 110.956C24.7926 111.036 24.797 111.117 24.8171 111.196L27.4398 121.404Z" fill="#C1D8ED"/>
<path d="M53.7656 106.411L53.7427 106.217C53.1406 101.212 49.787 76.8139 49.391 74.2347H32.0497C32.0497 74.2347 25.3023 96.2876 25.0412 96.8987L8.46436 93.3644L6.38379 101.579L26.7933 107.582C27.8765 107.9 29.0371 107.828 30.0724 107.377C31.1077 106.927 31.9519 106.127 32.4576 105.118C32.4576 105.118 39.8672 86.1898 40.0158 85.8414L44.5902 103.921L29.116 108.325L31.4356 116.476L50.7226 110.987C51.6912 110.71 52.5296 110.098 53.0874 109.259C53.6451 108.421 53.8856 107.411 53.7656 106.411Z" fill="#262626"/>
<path d="M56.3034 41.1859L47.2633 51.6666C48.0443 54.722 47.5381 59.0714 47.9435 62.5871C48.7978 69.9759 50.9668 71.1096 50.2751 73.4916C49.5995 75.8003 31.0108 79.0961 30.271 75.2781C29.7992 72.8503 31.6842 70.4362 31.0749 65.6631C30.6535 62.3604 28.0493 58.6912 27.518 55.4068L14.8728 48.5769C14.5243 48.3886 14.2256 48.1201 14.0014 47.7935C13.7772 47.467 13.6339 47.0917 13.5834 46.6988L11.6709 31.8503L16.625 31.2136L18.3725 44.7909L29.1235 50.597C30.0924 49.7862 31.5078 49.1884 33.2164 48.9686C33.5417 50.2214 41.2831 49.2388 41.1823 47.9814C41.4801 47.9494 41.7091 47.9242 41.8511 47.9127C42.5122 47.8485 43.1791 47.8771 43.8323 47.9975L51.505 39.0994L46.5647 27.4711L51.1615 25.5175L56.7088 38.5772C56.8916 39.0065 56.9506 39.4784 56.8789 39.9395C56.8073 40.4005 56.6079 40.8323 56.3034 41.1859Z" fill="#4CB748"/>
<path d="M38.7595 51.568C35.9859 52.1086 33.542 50.2213 33.2168 48.9685H33.2237C35.9744 48.6158 39.5772 48.1623 41.1827 47.9813C41.2835 49.2387 40.8376 51.1627 38.7595 51.568Z" fill="#E98862"/>
<path d="M273.435 21.4662L270.891 20.5251C270.891 20.5251 270.571 17.0309 273.504 15.1833C274.477 14.571 275.187 15.6594 275.008 16.0149C274.419 17.1899 273.721 18.2711 273.735 19.4003C274.111 19.0492 274.654 18.6 274.813 18.7638C275.234 19.1946 273.435 21.4662 273.435 21.4662Z" fill="#E98862"/>
<path d="M311.115 99.0481L310.162 94.3338C310.148 94.3368 310.129 94.3405 310.107 94.3462C310.453 94.2587 312.533 93.5904 314.262 93.021L315.766 97.5898C311.687 98.9324 311.257 99.0195 311.115 99.0481Z" fill="#E98862"/>
<path d="M318.974 102.995C319.004 103.12 319.008 103.251 318.986 103.378C318.963 103.506 318.915 103.627 318.843 103.735C318.772 103.843 318.679 103.935 318.57 104.005C318.462 104.076 318.34 104.123 318.212 104.144C318.036 104.173 317.854 104.151 317.689 104.081C317.524 104.01 317.383 103.894 317.282 103.746L314.121 98.7594C314.06 98.6627 314.021 98.5539 314.006 98.4406C313.991 98.3273 314.001 98.2121 314.035 98.103C314.369 97.228 314.414 96.2688 314.163 95.3664C313.938 94.6708 313.522 94.0523 312.962 93.5815C312.909 93.5413 312.867 93.4866 312.843 93.4238C312.82 93.3609 312.814 93.2926 312.828 93.2268C312.841 93.161 312.873 93.1003 312.92 93.052C312.966 93.0036 313.026 92.9696 313.091 92.9538L315.748 92.2985C315.826 92.2791 315.908 92.2755 315.988 92.2877C316.068 92.2999 316.144 92.3278 316.213 92.3697C316.282 92.4117 316.342 92.4668 316.39 92.532C316.438 92.5972 316.472 92.6712 316.491 92.7497L318.974 102.995Z" fill="#C1D8ED"/>
<path d="M275.67 132.018C273.967 128.076 273.842 127.655 273.801 127.517L278.411 126.144C278.406 126.13 278.401 126.113 278.394 126.091C278.511 126.428 279.364 128.439 280.086 130.11L275.67 132.018Z" fill="#E98862"/>
<path d="M270.575 135.698C270.452 135.739 270.323 135.755 270.194 135.744C270.065 135.734 269.939 135.696 269.825 135.635C269.711 135.573 269.611 135.489 269.531 135.387C269.451 135.285 269.394 135.168 269.361 135.043C269.316 134.869 269.322 134.687 269.377 134.516C269.433 134.346 269.536 134.195 269.674 134.081L274.357 130.485C274.448 130.416 274.553 130.367 274.664 130.342C274.776 130.317 274.891 130.316 275.003 130.34C275.904 130.595 276.864 130.553 277.74 130.222C278.413 129.935 278.991 129.466 279.41 128.867C279.445 128.809 279.496 128.763 279.557 128.734C279.617 128.705 279.684 128.693 279.751 128.7C279.818 128.708 279.881 128.734 279.934 128.776C279.986 128.819 280.025 128.875 280.047 128.938L280.938 131.526C280.964 131.603 280.975 131.684 280.97 131.764C280.965 131.845 280.944 131.924 280.909 131.996C280.873 132.069 280.824 132.133 280.763 132.187C280.702 132.24 280.632 132.281 280.555 132.307L270.575 135.698Z" fill="#C1D8ED"/>
<path d="M265.495 101.324C265.731 96.1097 270.559 72.3846 271.07 69.826L288.394 70.6103C288.394 70.6103 294.138 92.9458 294.371 93.568L311.018 92.3885L312.725 100.689L292.137 104.161C291.04 104.43 289.884 104.305 288.87 103.808C287.856 103.311 287.049 102.474 286.59 101.443C286.59 101.443 280.044 82.1996 279.911 81.8448L274.524 99.698L280.605 127.139L272.513 129.657C272.513 129.657 265.4 103.433 265.495 101.324Z" fill="#262626"/>
<path d="M304.302 28.3811L307.009 28.5478C307.009 28.5478 308.429 25.055 306.492 22.1806C305.851 21.2275 304.762 21.9366 304.781 22.3338C304.845 23.6464 305.331 25.3436 304.862 26.371C304.66 25.8978 304.345 25.2678 304.133 25.353C303.574 25.5763 304.302 28.3811 304.302 28.3811Z" fill="#E98862"/>
<path d="M308.601 27.8329L305.791 42.5806C305.723 42.9332 305.581 43.2671 305.372 43.5596C305.164 43.852 304.895 44.0962 304.584 44.2755L293.918 50.4206C294.055 54.0806 290.42 58.256 289.756 62.0717C288.932 66.8105 290.705 69.307 290.125 71.7119C289.213 75.4933 270.792 71.3592 270.224 69.023C269.638 66.6135 271.857 65.576 273.043 58.2353C273.609 54.7425 273.3 50.3725 274.218 47.3561L265.662 36.4768C265.41 36.1564 265.241 35.7795 265.168 35.3787C265.095 34.978 265.122 34.5655 265.245 34.1773L270.006 19.1982L274.766 20.7099L270.405 34.4292L277.812 43.8472C278.469 43.7546 279.136 43.7562 279.793 43.8518C279.935 43.8701 280.162 43.9045 280.457 43.9503C280.302 45.2008 287.99 46.5338 288.373 45.297C289.349 45.4585 290.292 45.778 291.165 46.243L301.101 40.5193L303.695 26.8985L308.601 27.8329Z" fill="#4CB748"/>
<path d="M288.372 45.2971C287.99 46.5339 285.464 48.3089 282.717 47.6424C280.661 47.1454 280.301 45.2009 280.457 43.9503C282.056 44.2023 285.631 44.8184 288.363 45.2948C288.366 45.2944 288.37 45.2952 288.372 45.2971Z" fill="#E98862"/>
</g>
<defs>
<clipPath id="clip0_58_31701">
<rect width="319" height="150.573" fill="white" transform="translate(0 15)"/>
</clipPath>
</defs>
</svg>
