<svg width="240" height="181" viewBox="0 0 240 181" fill="none" xmlns="http://www.w3.org/2000/svg">
<rect width="240" height="180" fill="white"/>
<g clip-path="url(#clip0_58_31268)">
<path opacity="0.08" d="M58.9951 167.833C101.979 196.334 163.919 170.309 202.185 135.731C238.912 102.544 256.772 16.3679 190.491 2.2618C162.892 -3.61159 150.341 2.51374 130.016 14.1783C113.608 23.5955 91.0616 19.1379 74.7554 10.6966C51.6984 -1.23914 23.2828 16.1212 11.1174 42.3013C-3.78607 74.3844 14.3594 138.237 58.9951 167.833Z" fill="white"/>
<path opacity="0.1" d="M58.9951 167.833C101.979 196.334 163.919 170.309 202.185 135.731C238.912 102.544 256.772 16.3679 190.491 2.2618C162.892 -3.61159 150.341 2.51374 130.016 14.1783C113.608 23.5955 91.0616 19.1379 74.7554 10.6966C51.6984 -1.23914 23.2828 16.1212 11.1174 42.3013C-3.78607 74.3844 14.3594 138.237 58.9951 167.833Z" fill="#4CB748"/>
<path d="M66.6605 27.7832C66.6605 27.7832 65.7214 41.8744 62.5515 46.985C53.4248 61.7025 50.7807 78.2589 59.9202 86.9094C69.0596 95.5598 127.354 95.6797 131.77 75.7837C135.488 59.034 127.51 57.2328 125.568 43.4162C124.69 37.164 122.273 24.0539 122.273 24.0539" fill="#0A0A0A"/>
<path d="M116.681 72.8706C116.581 72.8575 115.464 91.3856 93.9393 89.7703C79.038 88.6541 73.725 72.843 73.3838 72.843C74.9904 72.5014 77.6957 72.005 78.4091 71.6244C80.7557 70.3634 83.6578 69.0516 84.4154 64.4948C84.8528 61.8704 84.1092 48.4327 84.3393 45.7742L107.214 50.8799C106.895 56.4917 104.658 69.5022 112.498 71.8046C113.801 72.1856 115.206 72.5355 116.681 72.8706Z" fill="#E98862"/>
<path opacity="0.5" d="M107.533 66.4877C107.174 65.3331 106.944 64.1426 106.845 62.9378C106.593 60.1881 106.644 57.4193 106.994 54.6806C102.346 54.053 97.9667 52.1342 94.3544 49.1422C93.9296 50.7107 91.5935 57.5648 92.2404 59.0554C93.4612 61.8731 99.2055 66.4877 107.533 66.4877Z" fill="#0C0C0C"/>
<path d="M104.575 60.7149C95.5571 61.5897 83.889 57.9802 81.472 45.971L79.2911 35.1349C76.874 23.1257 81.2222 12.1203 92.5294 9.84454C103.837 7.57007 114.248 15.6033 116.665 27.6125L117.631 32.4112C118.558 37.0179 120.665 59.1582 104.575 60.7149Z" fill="#E98862"/>
<path d="M110.99 46.3529C108.06 47.8425 104.717 48.3136 101.489 47.6917C101.377 47.6707 101.262 47.6818 101.156 47.724C101.051 47.7661 100.959 47.8374 100.893 47.9296C100.826 48.0217 100.787 48.131 100.78 48.2444C100.774 48.3579 100.799 48.471 100.854 48.5705C101.817 50.2663 104.099 53.1631 108.015 51.9822C110.543 51.2193 111.498 48.6181 111.853 47.0094C111.877 46.8981 111.869 46.7823 111.829 46.6755C111.79 46.5687 111.721 46.4753 111.63 46.4064C111.54 46.3375 111.431 46.2958 111.318 46.2863C111.204 46.2768 111.091 46.2999 110.99 46.3529Z" fill="white"/>
<path d="M111.173 33.3215C111.955 33.3215 112.589 32.6876 112.589 31.9056C112.589 31.1236 111.955 30.4897 111.173 30.4897C110.391 30.4897 109.757 31.1236 109.757 31.9056C109.757 32.6876 110.391 33.3215 111.173 33.3215Z" fill="#0C0C0C"/>
<path d="M97.5682 35.7035C98.3502 35.7035 98.9841 35.0696 98.9841 34.2877C98.9841 33.5057 98.3502 32.8718 97.5682 32.8718C96.7862 32.8718 96.1523 33.5057 96.1523 34.2877C96.1523 35.0696 96.7862 35.7035 97.5682 35.7035Z" fill="#0C0C0C"/>
<path opacity="0.1" d="M98.843 44.9781C100.327 44.801 101.425 43.775 101.295 42.6865C101.165 41.598 99.8567 40.8591 98.3727 41.0362C96.8886 41.2133 95.7908 42.2392 95.9207 43.3277C96.0506 44.4163 97.3589 45.1551 98.843 44.9781Z" fill="#0C0C0C"/>
<path opacity="0.1" d="M114.524 40.6261C114.655 41.713 115.965 42.4509 117.449 42.2759C117.706 42.2452 117.958 42.1879 118.203 42.1049C118.272 40.8089 118.276 39.5619 118.238 38.4076C117.826 38.3047 117.398 38.2796 116.977 38.3337C115.493 38.5091 114.395 39.5343 114.524 40.6261Z" fill="#0C0C0C"/>
<path opacity="0.5" d="M107.967 43.9857L107.989 43.9822C108.448 43.8867 108.9 43.766 109.345 43.6205C110.009 43.3983 110.876 43.0335 110.757 42.4329C110.62 41.7484 107.258 34.7426 106.876 33.9474C106.861 33.9119 106.838 33.8799 106.809 33.8534C106.781 33.8269 106.747 33.8063 106.711 33.7929C106.674 33.7796 106.635 33.7737 106.596 33.7756C106.558 33.7774 106.519 33.7871 106.484 33.804C106.449 33.8208 106.418 33.8446 106.392 33.8737C106.366 33.9029 106.347 33.937 106.334 33.9739C106.322 34.0108 106.317 34.0498 106.32 34.0886C106.323 34.1274 106.334 34.1652 106.352 34.1998C107.785 37.1833 110.094 42.0883 110.186 42.5493C110.114 42.7641 109.012 43.1835 107.876 43.4127C107.799 43.425 107.731 43.4671 107.686 43.5296C107.641 43.5922 107.622 43.6701 107.635 43.7462C107.647 43.8224 107.689 43.8905 107.752 43.9357C107.814 43.9809 107.892 43.9993 107.968 43.987L107.967 43.9857Z" fill="#0C0C0C"/>
<path d="M70.2685 39.0247L80.4056 37.0446C88.0632 33.8424 90.2357 20.497 90.2357 20.497C90.2357 20.497 99.6861 29.4969 122.273 24.0543C122.273 24.0543 117.366 -7.47556 84.0155 2.09691C73.262 5.18276 65.6447 16.1435 66.7776 30.6621C67.5715 40.8347 70.2685 39.0247 70.2685 39.0247Z" fill="#0A0A0A"/>
<path d="M82.9104 49.4886C79.4742 50.1802 75.9488 47.0646 75.256 43.6275C74.5631 40.1904 76.9688 37.7353 80.405 37.0438L82.6393 38.9897L85.8642 48.8929L82.9104 49.4886Z" fill="#E98862"/>
<path d="M109.313 28.3601C110.173 27.752 111.178 27.3827 112.227 27.2897C112.753 27.2396 113.284 27.2691 113.802 27.3772C114.324 27.4839 114.831 27.6556 115.311 27.8885L115.326 27.8955C115.38 27.9207 115.441 27.9235 115.496 27.9034C115.552 27.8834 115.597 27.8421 115.622 27.7886C115.648 27.7351 115.65 27.6738 115.63 27.6183C115.61 27.5627 115.569 27.5174 115.515 27.4923C115.007 27.224 114.467 27.0207 113.908 26.8873C113.344 26.7504 112.764 26.699 112.186 26.7347C111.014 26.7991 109.881 27.1767 108.905 27.8282C108.869 27.8529 108.838 27.8845 108.814 27.9212C108.79 27.9579 108.773 27.999 108.765 28.0421C108.756 28.0853 108.757 28.1296 108.766 28.1726C108.775 28.2156 108.792 28.2564 108.817 28.2927C108.841 28.329 108.873 28.3601 108.91 28.3842C108.946 28.4083 108.988 28.4249 109.031 28.4331C109.074 28.4413 109.118 28.4409 109.161 28.432C109.204 28.4231 109.245 28.4057 109.281 28.381L109.289 28.3754L109.313 28.3601Z" fill="#0C0C0C"/>
<path d="M100.051 29.6399C98.9002 29.4113 97.7087 29.4956 96.6012 29.884C96.0537 30.0725 95.5377 30.3422 95.0703 30.684C94.6048 31.0213 94.1837 31.4159 93.8167 31.8584C93.7779 31.9022 93.7579 31.9594 93.7611 32.0178C93.7642 32.0762 93.7901 32.1311 93.8333 32.1705C93.8765 32.2099 93.9335 32.2307 93.992 32.2285C94.0504 32.2262 94.1056 32.2011 94.1456 32.1584L94.1574 32.1462C94.5114 31.7475 94.9141 31.3948 95.3559 31.0964C95.7932 30.7981 96.273 30.5677 96.7792 30.4128C97.7839 30.0976 98.8542 30.054 99.8812 30.2864L99.9066 30.2925C99.9927 30.3134 100.084 30.2992 100.159 30.253C100.235 30.2069 100.289 30.1326 100.31 30.0465C100.331 29.9603 100.317 29.8694 100.271 29.7937C100.225 29.7181 100.15 29.6638 100.064 29.643L100.051 29.6399Z" fill="#0C0C0C"/>
<path d="M80.4125 36.8784C87.2267 34.3415 89.4881 29.636 90.1844 26.1341C90.6351 23.7987 90.593 21.3949 90.0606 19.0767L89.8498 19.1345C90.3741 21.4225 90.4146 23.7949 89.9688 26.0996C89.2812 29.5441 87.0522 34.1744 80.3359 36.6737L80.4125 36.8784Z" fill="#0C0C0C"/>
<path d="M143.518 84.3021L171.387 158.403L148.257 151.86L200.861 112.625L219.602 138.252L166.27 176.49C164.418 177.815 162.295 178.713 160.054 179.118C157.813 179.523 155.511 179.425 153.312 178.832C151.113 178.239 149.074 177.166 147.341 175.689C145.607 174.212 144.224 172.369 143.289 170.292L143.14 169.947L111.127 97.5399L143.518 84.3021Z" fill="#4CB748"/>
<path d="M93.5373 85.1366C78.6255 84.4337 77.9978 71.7767 77.9978 71.7767C77.9978 71.7767 70.6093 72.2543 65.6977 72.9187C57.6566 74.007 52.3518 76.7337 48.13 80.955C44.2031 84.882 41.8123 89.1309 44.3422 116.258C46.174 135.9 44.8845 179.103 44.8845 179.103H134.879C134.879 179.103 140.276 122.475 141.028 113.634C142.464 96.7543 148.343 87.2409 140.125 78.5463C134.166 72.2408 118.78 71.7767 112.588 71.778C112.487 71.7771 113.845 86.0936 93.5373 85.1366Z" fill="#4CB748"/>
<path d="M180.048 87.9556C174.455 78.5078 161.795 77.3732 152.348 82.9693L151.749 83.341L151.347 82.6941C145.565 73.3605 133.777 68.4922 124.443 74.2746C119.961 77.0515 116.766 81.4951 115.56 86.6279C114.354 91.7607 115.237 97.1623 118.014 101.644L137.223 131.99C137.846 132.974 138.831 133.674 139.966 133.938C141.1 134.203 142.293 134.01 143.287 133.402L173.774 114.757C178.076 111.962 181.131 107.613 182.3 102.618C183.469 97.6229 182.663 92.3694 180.048 87.9556Z" fill="#4CB748"/>
<path opacity="0.6" d="M180.048 87.9556C174.455 78.5078 161.795 77.3732 152.348 82.9693L151.749 83.341L151.347 82.6941C145.565 73.3605 133.777 68.4922 124.443 74.2746C119.961 77.0515 116.766 81.4951 115.56 86.6279C114.354 91.7607 115.237 97.1623 118.014 101.644L137.223 131.99C137.846 132.974 138.831 133.674 139.966 133.938C141.1 134.203 142.293 134.01 143.287 133.402L173.774 114.757C178.076 111.962 181.131 107.613 182.3 102.618C183.469 97.6229 182.663 92.3694 180.048 87.9556Z" fill="white"/>
<path d="M147.841 107.495C137.923 101.517 125.598 106.792 119.62 116.71L119.25 117.355L118.554 116.955C108.517 111.177 95.1349 112.549 89.3573 122.585C86.5824 127.405 85.8358 133.129 87.2816 138.499C88.7275 143.869 92.2473 148.445 97.0669 151.22L130.079 169.801C131.15 170.404 132.415 170.561 133.601 170.239C134.787 169.917 135.798 169.142 136.417 168.08L155.409 135.522C158.007 130.776 158.671 125.21 157.26 119.987C155.85 114.764 152.475 110.288 147.841 107.495Z" fill="#4CB748"/>
<path opacity="0.8" d="M147.841 107.495C137.923 101.517 125.598 106.792 119.62 116.71L119.25 117.355L118.554 116.955C108.517 111.177 95.1349 112.549 89.3573 122.585C86.5824 127.405 85.8358 133.129 87.2816 138.499C88.7275 143.869 92.2473 148.445 97.0669 151.22L130.079 169.801C131.15 170.404 132.415 170.561 133.601 170.239C134.787 169.917 135.798 169.142 136.417 168.08L155.409 135.522C158.007 130.776 158.671 125.21 157.26 119.987C155.85 114.764 152.475 110.288 147.841 107.495Z" fill="#8DDBE0"/>
<path d="M139.192 121.559C139.196 121.501 139.223 121.447 139.266 121.408C139.31 121.37 139.367 121.35 139.425 121.354C139.483 121.357 139.537 121.384 139.575 121.428C139.614 121.471 139.633 121.528 139.63 121.586L137.799 150.815C137.796 150.868 137.774 150.917 137.737 150.955C137.7 150.992 137.651 151.016 137.598 151.02C137.588 151.02 137.578 151.02 137.567 151.02C137.51 151.016 137.455 150.99 137.417 150.946C137.379 150.903 137.359 150.846 137.363 150.788" fill="#0C0C0C"/>
<path d="M207.415 118.935C207.438 118.614 207.526 118.301 207.674 118.015C207.822 117.729 208.027 117.476 208.276 117.272C208.525 117.068 208.812 116.916 209.122 116.827C209.431 116.738 209.756 116.712 210.075 116.753C210.691 116.852 211.246 117.181 211.628 117.674C212.01 118.167 212.191 118.786 212.134 119.407L211.906 122.6L216.593 113.999C217.168 112.906 218.574 111.931 219.758 112.658C220.755 113.183 222.632 112.897 223.324 114.213C223.336 114.217 226.955 127.028 226.421 128.045C224.157 132.35 216.542 135.218 211.702 134.737L204.084 133.974L207.415 118.935Z" fill="#E98862"/>
<g opacity="0.1">
<path d="M207.416 118.935C207.439 118.614 207.527 118.301 207.675 118.015C207.823 117.729 208.028 117.476 208.277 117.272C208.525 117.068 208.813 116.916 209.123 116.827C209.432 116.738 209.757 116.712 210.076 116.753C210.692 116.852 211.247 117.181 211.629 117.674C212.011 118.167 212.192 118.786 212.135 119.407L211.907 122.6L216.594 113.999C217.169 112.906 218.575 111.931 219.759 112.658C220.756 113.183 222.633 112.897 223.325 114.213C223.337 114.217 226.956 127.028 226.422 128.045C224.158 132.35 216.543 135.218 211.703 134.737L204.085 133.974L207.416 118.935Z" fill="#0C0C0C"/>
</g>
<path d="M215.757 109.198C207.009 98.1321 190.694 98.8639 179.628 107.612L178.928 108.189L178.306 107.434C169.339 96.5426 153.489 92.3738 142.599 101.343C140.01 103.475 137.866 106.097 136.289 109.058C134.713 112.019 133.736 115.262 133.413 118.601C133.09 121.94 133.427 125.31 134.407 128.518C135.386 131.727 136.988 134.711 139.121 137.3L168.8 172.636C169.763 173.782 171.138 174.503 172.628 174.644C174.118 174.785 175.604 174.335 176.765 173.39L212.375 144.403C217.372 140.105 220.513 134.041 221.144 127.48C221.774 120.92 219.844 114.369 215.757 109.198Z" fill="#FF6B00"/>
<path d="M216.152 125.11C216.151 124.686 216.288 124.275 216.543 123.937C216.798 123.599 217.157 123.354 217.564 123.239C217.549 123.208 217.493 123.143 217.548 123.121L215.952 122.838C215.48 122.765 215.051 122.524 214.743 122.159C214.436 121.794 214.271 121.33 214.279 120.853C214.302 120.382 214.499 119.936 214.832 119.602C215.165 119.269 215.61 119.07 216.081 119.046C216.07 119.031 216.073 119.009 216.068 118.991L215.411 118.874C214.967 118.804 214.561 118.582 214.262 118.246C213.963 117.911 213.789 117.482 213.769 117.033C213.763 116.751 213.819 116.471 213.934 116.213C214.049 115.955 214.219 115.726 214.433 115.543C214.647 115.359 214.899 115.225 215.171 115.151C215.443 115.076 215.729 115.063 216.006 115.112L217.519 115.38C217.519 115.372 217.512 115.366 217.513 115.357C217.514 115.349 217.526 115.341 217.529 115.331C217.131 115.164 216.802 114.867 216.595 114.488C216.389 114.109 216.317 113.671 216.392 113.246C216.514 112.137 217.824 111.724 218.802 111.898L221.84 112.685C222.309 112.806 222.74 113.041 223.096 113.369C223.452 113.697 223.721 114.108 223.88 114.566C225.255 118.524 228.599 128.948 225.478 128.395L217.795 127.034C217.346 126.941 216.941 126.702 216.644 126.353C216.346 126.005 216.173 125.567 216.152 125.11Z" fill="#E98862"/>
<path d="M123.367 139.877L135.3 130.82C135.562 130.621 135.863 130.479 136.183 130.403C136.503 130.326 136.836 130.318 137.16 130.377C137.483 130.436 137.791 130.562 138.064 130.747C138.336 130.932 138.567 131.171 138.742 131.45C139.049 131.975 139.15 132.595 139.025 133.19C138.901 133.785 138.559 134.313 138.068 134.671L135.509 136.613L146.359 134.199C147.561 133.91 149.221 134.323 149.457 135.692C149.582 136.213 149.526 136.762 149.3 137.247C149.074 137.733 148.689 138.127 148.21 138.367C148.216 138.377 148.22 138.388 148.223 138.4C148.224 138.409 148.224 138.418 148.223 138.427L150.076 137.981C150.419 137.899 150.777 137.894 151.122 137.967C151.467 138.04 151.792 138.189 152.072 138.404C152.353 138.618 152.582 138.893 152.743 139.207C152.904 139.521 152.992 139.867 153.003 140.22C153.007 140.776 152.821 141.317 152.475 141.752C152.128 142.188 151.643 142.491 151.1 142.611L150.313 142.801C150.308 142.826 150.299 142.85 150.285 142.872C150.847 142.868 151.393 143.063 151.824 143.424C152.256 143.784 152.545 144.286 152.64 144.841C152.727 145.45 152.58 146.07 152.229 146.576C151.878 147.082 151.35 147.438 150.749 147.571L148.79 148.043C148.823 148.056 148.851 148.076 148.874 148.102C148.897 148.129 148.913 148.16 148.922 148.194C148.93 148.234 148.926 148.277 148.91 148.315C149.412 148.45 149.856 148.746 150.174 149.158C150.491 149.57 150.664 150.074 150.667 150.594C150.658 151.14 150.466 151.668 150.12 152.091C149.775 152.514 149.297 152.808 148.763 152.926L132.238 156.906C129.926 157.463 127.501 157.316 125.273 156.486C123.044 155.655 121.115 154.178 119.732 152.243C118.54 150.575 118.044 148.508 118.352 146.481C118.659 144.454 119.745 142.626 121.378 141.386L123.367 139.877Z" fill="#E98862"/>
<g opacity="0.2">
<path d="M137.482 140.809C137.496 140.864 137.531 140.912 137.58 140.942C137.628 140.973 137.687 140.982 137.742 140.97L148.058 138.661C148.115 138.649 148.164 138.614 148.195 138.565C148.226 138.516 148.236 138.457 148.224 138.4C148.211 138.343 148.176 138.294 148.127 138.263C148.078 138.232 148.019 138.221 147.962 138.234L137.646 140.543C137.618 140.549 137.592 140.561 137.568 140.577C137.545 140.594 137.525 140.615 137.509 140.639C137.494 140.664 137.483 140.691 137.479 140.719C137.474 140.748 137.475 140.777 137.481 140.805L137.482 140.809Z" fill="#0C0C0C"/>
</g>
<g opacity="0.2">
<path d="M138.374 145.387C138.388 145.442 138.423 145.49 138.471 145.52C138.52 145.55 138.578 145.56 138.634 145.547L150.146 142.971C150.174 142.965 150.201 142.953 150.225 142.937C150.248 142.92 150.268 142.899 150.284 142.874C150.299 142.85 150.309 142.823 150.314 142.794C150.319 142.766 150.318 142.737 150.312 142.709C150.297 142.653 150.262 142.605 150.213 142.574C150.165 142.543 150.106 142.532 150.049 142.543L138.537 145.12C138.509 145.126 138.482 145.138 138.459 145.154C138.435 145.171 138.415 145.192 138.4 145.217C138.385 145.241 138.374 145.268 138.369 145.297C138.364 145.325 138.365 145.354 138.372 145.382L138.374 145.387Z" fill="#0C0C0C"/>
</g>
<g opacity="0.2">
<path d="M139.313 150.35C139.327 150.405 139.362 150.453 139.41 150.483C139.459 150.513 139.518 150.523 139.573 150.511L148.759 148.455C148.815 148.442 148.865 148.407 148.896 148.358C148.927 148.309 148.937 148.25 148.924 148.193C148.912 148.137 148.877 148.088 148.828 148.057C148.779 148.025 148.72 148.015 148.663 148.028L139.478 150.084C139.449 150.09 139.423 150.102 139.399 150.118C139.376 150.135 139.356 150.156 139.34 150.18C139.325 150.205 139.315 150.232 139.31 150.26C139.305 150.289 139.306 150.318 139.312 150.346L139.313 150.35Z" fill="#0C0C0C"/>
</g>
<path d="M128.491 161.548L52.6518 178.788C50.1324 179.062 47.5837 178.749 45.2057 177.873C42.8277 176.996 40.6851 175.581 38.9461 173.738C37.207 171.894 35.9187 169.673 35.1823 167.248C34.4459 164.823 34.2815 162.26 34.7018 159.761L43.3807 89.9523C44.1024 85.6624 46.4988 81.8349 50.0425 79.3118C53.5863 76.7887 57.9872 75.7767 62.2772 76.4984C66.5671 77.2201 70.3946 79.6164 72.9177 83.1602C75.4408 86.704 76.4528 91.1049 75.7311 95.3949L71.5518 145.361L124.243 133.437L128.491 161.548Z" fill="#4CB748"/>
<path d="M60.8886 147.324C60.8306 147.328 60.7733 147.309 60.7292 147.271C60.6852 147.233 60.6581 147.179 60.6539 147.121C60.6497 147.063 60.6686 147.006 60.7067 146.962C60.7447 146.918 60.7986 146.891 60.8566 146.887L71.4246 144.631C71.4531 144.626 71.4821 144.627 71.5102 144.634C71.5382 144.64 71.5645 144.653 71.5877 144.67C71.6109 144.687 71.6304 144.709 71.645 144.733C71.6597 144.758 71.6692 144.786 71.6731 144.814C71.6816 144.872 71.667 144.93 71.6326 144.977C71.5982 145.023 71.5466 145.054 71.4894 145.063L60.9214 147.319C60.9106 147.322 60.8996 147.323 60.8886 147.324Z" fill="#0C0C0C"/>
<path d="M54.9267 179.103C54.8687 179.107 54.8116 179.087 54.7679 179.049C54.7242 179.011 54.6976 178.956 54.6938 178.898C54.6901 178.84 54.7095 178.783 54.7478 178.74C54.7862 178.696 54.8403 178.669 54.8983 178.666L128.015 161.445L123.872 133.757L71.4954 145.066C71.4614 145.07 71.4269 145.067 71.3946 145.056C71.3622 145.044 71.333 145.026 71.3092 145.001C71.2854 144.976 71.2677 144.946 71.2576 144.914C71.2475 144.881 71.2452 144.846 71.2509 144.813L74.1889 116.264C74.1932 116.235 74.2032 116.208 74.2183 116.183C74.2335 116.159 74.2534 116.137 74.2769 116.121C74.3004 116.104 74.327 116.092 74.3552 116.086C74.3833 116.08 74.4125 116.079 74.4408 116.084C74.498 116.094 74.549 116.126 74.5827 116.173C74.6163 116.22 74.6298 116.279 74.6202 116.336L71.7333 144.592L123.974 133.277C124.002 133.269 124.031 133.267 124.06 133.271C124.089 133.274 124.117 133.284 124.142 133.299C124.167 133.313 124.189 133.333 124.207 133.356C124.224 133.38 124.237 133.406 124.244 133.435L128.492 161.547C128.506 161.603 128.497 161.661 128.468 161.71C128.44 161.759 128.393 161.795 128.338 161.81L54.9552 179.101C54.9457 179.102 54.9362 179.103 54.9267 179.103Z" fill="#0C0C0C"/>
<path d="M222.623 51.7595C219.736 46.8821 213.2 46.2964 208.322 49.1841L208.013 49.3762L207.806 49.042C204.821 44.2236 198.735 41.7107 193.917 44.6955C191.603 46.1291 189.954 48.4227 189.332 51.0722C188.709 53.7216 189.165 56.5098 190.598 58.8235L200.514 74.489C200.836 74.9971 201.345 75.3584 201.93 75.4948C202.516 75.6312 203.132 75.5318 203.645 75.2181L219.383 65.5927C221.603 64.15 223.179 61.9052 223.783 59.3273C224.387 56.7495 223.971 54.038 222.623 51.7595Z" fill="#FF6B00"/>
<path opacity="0.2" d="M222.623 51.7595C219.736 46.8821 213.2 46.2964 208.322 49.1841L208.013 49.3762L207.806 49.042C204.821 44.2236 198.735 41.7107 193.917 44.6955C191.603 46.1291 189.954 48.4227 189.332 51.0722C188.709 53.7216 189.165 56.5098 190.598 58.8235L200.514 74.489C200.836 74.9971 201.345 75.3584 201.93 75.4948C202.516 75.6312 203.132 75.5318 203.645 75.2181L219.383 65.5927C221.603 64.15 223.179 61.9052 223.783 59.3273C224.387 56.7495 223.971 54.038 222.623 51.7595Z" fill="white"/>
<path d="M179.522 5.75879C176.9 4.22396 173.684 5.64944 172.15 8.27165L172.055 8.44179L171.871 8.33944C169.218 6.85754 165.712 7.26257 164.23 9.91408C163.878 10.5448 163.653 11.2388 163.569 11.9565C163.485 12.6742 163.542 13.4014 163.739 14.0967C163.936 14.7919 164.268 15.4416 164.716 16.0086C165.164 16.5755 165.719 17.0487 166.35 17.401L175.073 22.1639C175.356 22.3184 175.689 22.3554 175.999 22.2669C176.309 22.1785 176.572 21.9716 176.73 21.691L181.603 13.0857C182.268 11.8319 182.423 10.3694 182.036 9.004C181.648 7.63855 180.747 6.47579 179.522 5.75879Z" fill="#4CB748"/>
<path opacity="0.5" d="M179.522 5.75879C176.9 4.22396 173.684 5.64944 172.15 8.27165L172.055 8.44179L171.871 8.33944C169.218 6.85754 165.712 7.26257 164.23 9.91408C163.878 10.5448 163.653 11.2388 163.569 11.9565C163.485 12.6742 163.542 13.4014 163.739 14.0967C163.936 14.7919 164.268 15.4416 164.716 16.0086C165.164 16.5755 165.719 17.0487 166.35 17.401L175.073 22.1639C175.356 22.3184 175.689 22.3554 175.999 22.2669C176.309 22.1785 176.572 21.9716 176.73 21.691L181.603 13.0857C182.268 11.8319 182.423 10.3694 182.036 9.004C181.648 7.63855 180.747 6.47579 179.522 5.75879Z" fill="white"/>
<path d="M221.044 179.54H28.0644C27.9483 179.54 27.8371 179.494 27.7551 179.412C27.673 179.33 27.627 179.219 27.627 179.103C27.627 178.987 27.673 178.876 27.7551 178.794C27.8371 178.712 27.9483 178.666 28.0644 178.666H221.045C221.161 178.666 221.272 178.712 221.354 178.794C221.436 178.876 221.482 178.987 221.482 179.103C221.482 179.219 221.436 179.33 221.354 179.412C221.272 179.494 221.161 179.54 221.045 179.54H221.044Z" fill="#292A2E"/>
</g>
<defs>
<clipPath id="clip0_58_31268">
<rect width="229" height="180.003" fill="white" transform="translate(6)"/>
</clipPath>
</defs>
</svg>
