<svg width="250" height="180" viewBox="0 0 250 180" fill="none" xmlns="http://www.w3.org/2000/svg">
<rect width="240" height="180" transform="translate(5)" fill="white"/>
<g clip-path="url(#clip0_58_31090)">
<path d="M214.097 113.278L213.63 113.329L219.394 166.005L219.861 165.953L214.097 113.278Z" fill="#292A2E"/>
<path d="M229.026 136.274L226.19 164.328L226.658 164.375L229.493 136.321L229.026 136.274Z" fill="#292A2E"/>
<path d="M233.903 160.937H212.861V167.765H233.903V160.937Z" fill="#292A2E"/>
<path opacity="0.2" d="M233.903 160.937H212.861V167.765H233.903V160.937Z" fill="white"/>
<path d="M246.587 148.363C250.573 143.065 248.673 134.91 242.343 130.147C236.012 125.384 227.65 125.818 223.664 131.115C219.678 136.413 221.578 144.569 227.908 149.332C234.238 154.094 242.601 153.661 246.587 148.363Z" fill="#FF6B00"/>
<path opacity="0.2" d="M246.587 148.363C250.573 143.065 248.673 134.91 242.343 130.147C236.012 125.384 227.65 125.818 223.664 131.115C219.678 136.413 221.578 144.569 227.908 149.332C234.238 154.094 242.601 153.661 246.587 148.363Z" fill="white"/>
<path opacity="0.5" d="M246.586 148.364C246.319 148.721 246.026 149.06 245.712 149.377C241.324 152.18 234.848 151.739 229.71 147.872C223.38 143.11 221.481 134.955 225.467 129.657C225.735 129.301 226.026 128.963 226.339 128.644C230.73 125.839 237.204 126.282 242.344 130.147C248.673 134.911 250.573 143.066 246.586 148.364Z" fill="white"/>
<path d="M217.223 128.265C223.494 123.424 225.198 115.122 221.03 109.722C216.861 104.322 208.399 103.869 202.128 108.709C195.857 113.55 194.153 121.851 198.321 127.252C202.489 132.652 210.952 133.105 217.223 128.265Z" fill="#FF6B00"/>
<path opacity="0.2" d="M215.235 126.875C210.379 130.626 204.207 131.198 199.733 128.756C199.215 128.3 198.743 127.795 198.321 127.249C194.152 121.851 195.856 113.548 202.126 108.708C206.983 104.959 213.155 104.386 217.627 106.826C218.146 107.282 218.619 107.787 219.041 108.334C223.21 113.733 221.506 122.035 215.235 126.875Z" fill="white"/>
<path d="M207.085 22.9706H48.6708C44.7806 22.9706 41.627 26.1243 41.627 30.0145V145.998C41.627 149.888 44.7806 153.042 48.6708 153.042H207.085C210.975 153.042 214.129 149.888 214.129 145.998V30.0145C214.129 26.1243 210.975 22.9706 207.085 22.9706Z" fill="white"/>
<path d="M207.085 153.277H48.6713C46.7415 153.274 44.8915 152.507 43.5269 151.142C42.1624 149.778 41.3948 147.928 41.3926 145.998V30.0145C41.3948 28.0848 42.1623 26.2347 43.5269 24.8701C44.8914 23.5056 46.7415 22.738 48.6713 22.7358H207.085C209.015 22.738 210.865 23.5055 212.23 24.8701C213.594 26.2346 214.362 28.0848 214.364 30.0145V145.998C214.362 147.928 213.594 149.778 212.23 151.142C210.865 152.507 209.015 153.274 207.085 153.277ZM48.6713 23.2054C46.866 23.2074 45.1352 23.9254 43.8587 25.202C42.5822 26.4785 41.8642 28.2093 41.8622 30.0145V145.998C41.8642 147.803 42.5822 149.534 43.8587 150.81C45.1352 152.087 46.866 152.805 48.6713 152.807H207.085C208.89 152.805 210.621 152.087 211.898 150.81C213.174 149.534 213.892 147.803 213.894 145.998V30.0145C213.892 28.2093 213.174 26.4785 211.898 25.202C210.621 23.9254 208.89 23.2074 207.085 23.2054H48.6713Z" fill="#292A2E"/>
<path d="M72.4175 86.5434C72.3249 86.5435 72.2333 86.5253 72.1479 86.4898C72.0624 86.4544 71.9848 86.4025 71.9195 86.337L68.6323 83.0498C68.504 82.917 68.433 82.739 68.4346 82.5543C68.4362 82.3697 68.5103 82.193 68.6409 82.0624C68.7715 81.9318 68.9481 81.8577 69.1328 81.8561C69.3175 81.8545 69.4955 81.9255 69.6283 82.0538L72.9155 85.341C73.0139 85.4395 73.081 85.565 73.1082 85.7016C73.1353 85.8382 73.1214 85.9798 73.0681 86.1085C73.0148 86.2372 72.9245 86.3472 72.8087 86.4246C72.6929 86.502 72.5567 86.5433 72.4175 86.5434Z" fill="#FF6B00"/>
<path d="M69.13 86.5434C68.9907 86.5433 68.8546 86.502 68.7388 86.4246C68.623 86.3472 68.5327 86.2372 68.4794 86.1085C68.4261 85.9798 68.4121 85.8382 68.4393 85.7016C68.4665 85.565 68.5335 85.4395 68.632 85.341L71.9192 82.0538C72.052 81.9255 72.23 81.8545 72.4146 81.8561C72.5993 81.8577 72.776 81.9318 72.9066 82.0624C73.0372 82.193 73.1113 82.3697 73.1129 82.5543C73.1145 82.739 73.0435 82.917 72.9152 83.0498L69.628 86.337C69.5627 86.4025 69.4851 86.4545 69.3996 86.4899C69.3142 86.5253 69.2225 86.5435 69.13 86.5434Z" fill="#FF6B00"/>
<path d="M166.535 117.962L165.597 120.114L171.371 122.631L172.309 120.479L166.535 117.962Z" fill="#FF6B00"/>
<path d="M168.358 60.2581L162.927 63.4495L164.116 65.4739L169.547 62.2825L168.358 60.2581Z" fill="#FF6B00"/>
<path d="M77.8563 65.7234L77.1289 67.9559L83.1186 69.9075L83.846 67.675L77.8563 65.7234Z" fill="#FF6B00"/>
<path d="M84.8672 103.167L79.708 106.776L81.0534 108.699L86.2126 105.09L84.8672 103.167Z" fill="#FF6B00"/>
<path d="M179.495 94.8928L179.279 97.2308L185.415 97.7965L185.631 95.4584L179.495 94.8928Z" fill="#FF6B00"/>
<path d="M185.743 78.0745C185.651 78.0746 185.559 78.0564 185.474 78.021C185.388 77.9856 185.311 77.9336 185.245 77.8681L181.958 74.5809C181.891 74.5159 181.837 74.4382 181.8 74.3523C181.763 74.2663 181.744 74.1739 181.743 74.0804C181.742 73.9869 181.76 73.8941 181.796 73.8075C181.831 73.721 181.883 73.6423 181.949 73.5762C182.016 73.51 182.094 73.4577 182.181 73.4223C182.267 73.3869 182.36 73.3691 182.454 73.3699C182.547 73.3707 182.64 73.3901 182.726 73.4271C182.812 73.464 182.889 73.5176 182.954 73.5849L186.241 76.8721C186.34 76.9706 186.407 77.0961 186.434 77.2327C186.461 77.3693 186.447 77.5109 186.394 77.6396C186.341 77.7683 186.25 77.8783 186.135 77.9557C186.019 78.0331 185.883 78.0744 185.743 78.0745Z" fill="#FF6B00"/>
<path d="M182.457 78.0745C182.318 78.0744 182.182 78.0331 182.066 77.9557C181.95 77.8783 181.86 77.7683 181.807 77.6396C181.753 77.5109 181.739 77.3693 181.766 77.2327C181.794 77.0961 181.861 76.9706 181.959 76.8721L185.246 73.5849C185.311 73.5176 185.389 73.464 185.475 73.4271C185.561 73.3901 185.653 73.3707 185.747 73.3699C185.84 73.3691 185.933 73.3869 186.02 73.4223C186.106 73.4577 186.185 73.51 186.251 73.5762C186.317 73.6423 186.37 73.721 186.405 73.8075C186.44 73.8941 186.458 73.9869 186.457 74.0804C186.457 74.1739 186.437 74.2663 186.4 74.3523C186.363 74.4382 186.31 74.5159 186.242 74.5809L182.955 77.8681C182.89 77.9336 182.812 77.9855 182.727 78.021C182.641 78.0564 182.55 78.0746 182.457 78.0745Z" fill="#FF6B00"/>
<path opacity="0.4" d="M127.878 128.87C148.565 128.87 165.335 112.1 165.335 91.4129C165.335 70.7261 148.565 53.9561 127.878 53.9561C107.191 53.9561 90.4209 70.7261 90.4209 91.4129C90.4209 112.1 107.191 128.87 127.878 128.87Z" fill="#FF6B00"/>
<path d="M127.878 117.608C142.346 117.608 154.074 105.88 154.074 91.4129C154.074 76.9455 142.346 65.2173 127.878 65.2173C113.411 65.2173 101.683 76.9455 101.683 91.4129C101.683 105.88 113.411 117.608 127.878 117.608Z" fill="#FF6B00"/>
<path d="M122.522 102.651C122.316 102.651 122.112 102.61 121.923 102.529C121.734 102.448 121.563 102.33 121.421 102.181L113.083 93.504C112.942 93.36 112.83 93.1894 112.755 93.0021C112.68 92.8147 112.643 92.6143 112.646 92.4125C112.649 92.2107 112.691 92.0114 112.772 91.8263C112.852 91.6412 112.969 91.4738 113.114 91.334C113.26 91.1941 113.432 91.0845 113.62 91.0115C113.808 90.9385 114.009 90.9036 114.211 90.9087C114.412 90.9139 114.611 90.959 114.795 91.0414C114.98 91.1239 115.146 91.2421 115.284 91.3892L122.6 99.0032L141.728 81.8445C141.876 81.7084 142.051 81.6032 142.24 81.5349C142.43 81.4665 142.631 81.4365 142.833 81.4464C143.034 81.4564 143.232 81.5062 143.414 81.5929C143.596 81.6796 143.759 81.8015 143.893 81.9516C144.028 82.1017 144.132 82.277 144.198 82.4673C144.265 82.6577 144.293 82.8593 144.281 83.0606C144.269 83.2619 144.217 83.4588 144.129 83.64C144.041 83.8213 143.917 83.9832 143.766 84.1164L123.541 102.26C123.261 102.512 122.898 102.651 122.522 102.651Z" fill="white"/>
<path d="M214.129 30.0136V37.1014H41.6279V30.0136C41.6279 28.1455 42.3701 26.3538 43.691 25.0328C45.012 23.7118 46.8037 22.9697 48.6718 22.9697H207.085C208.953 22.9697 210.745 23.7118 212.066 25.0328C213.387 26.3538 214.129 28.1455 214.129 30.0136Z" fill="#292A2E"/>
<path d="M9.38454 153.892C7.96609 153.891 6.56868 153.548 5.31126 152.892C4.05384 152.236 2.97361 151.285 2.16253 150.121C1.35145 148.958 0.83351 147.615 0.652802 146.208C0.472093 144.802 0.633963 143.372 1.12463 142.041C1.62264 140.69 14.3965 107.715 16.6212 101.985L31.9936 110.93C30.7433 114.153 26.2131 126.367 22.5738 136.206L28.62 135.549L30.523 151.647L10.3385 153.841C10.0217 153.875 9.7032 153.892 9.38454 153.892Z" fill="#4CB748"/>
<path d="M19.9359 154.401L17.251 167.765H69.399L66.3953 154.147L19.9359 154.401Z" fill="#262626"/>
<path d="M59.6655 95.1274C59.6115 95.1204 58.1323 100.687 46.5873 99.821C38.5948 99.2223 36.646 93.7821 36.4629 93.7821C37.3246 93.5989 38.724 93.4087 39.1067 93.2045C40.3652 92.5283 41.2819 91.7051 41.7435 89.9384C42.1043 88.5569 42.2882 83.2385 42.2882 80.5701L54.5868 83.3336C54.4154 86.3437 53.2156 93.3219 57.4208 94.5569C58.1205 94.7612 58.8742 94.949 59.6655 95.1274Z" fill="#E98862"/>
<path d="M54.1617 89.2514C49.3134 89.6342 43.0852 87.587 41.9021 81.1183L40.8347 75.2818C39.6515 68.8131 42.0901 62.9479 48.1807 61.834C54.2711 60.7201 59.7827 65.1313 60.9656 71.5999L61.4383 74.1841C61.8915 76.6659 62.8116 88.5691 54.1617 89.2514Z" fill="#E98862"/>
<path d="M31.2116 94.6775C26.8547 95.0008 22.4121 95.4725 19.2062 98.4406C15.3452 102.015 14.6455 106.41 17.1088 118.506C19.228 128.913 18.3875 133.461 19.8052 152.665C19.847 153.231 19.9364 154.401 19.9364 154.401L66.5435 154.324C66.5435 154.324 70.9107 128.844 73.3219 117.093C75.1554 108.158 79.9715 97.3124 59.6652 95.1267C59.6116 95.1208 43.3254 93.7787 31.2116 94.6775Z" fill="#4CB748"/>
<path d="M19.9356 154.519C19.9052 154.519 19.876 154.507 19.8541 154.486C19.8322 154.465 19.8193 154.436 19.8182 154.406L18.3575 116.492C18.3564 116.461 18.3676 116.431 18.3888 116.408C18.41 116.385 18.4393 116.372 18.4704 116.37C18.486 116.369 18.5016 116.371 18.5164 116.376C18.5311 116.381 18.5447 116.389 18.5561 116.4C18.5676 116.411 18.5767 116.423 18.5829 116.438C18.5892 116.452 18.5923 116.467 18.5923 116.483L20.053 154.397C20.0541 154.428 20.0429 154.458 20.0217 154.481C20.0005 154.504 19.9711 154.517 19.94 154.518L19.9356 154.519Z" fill="#0C0C0C"/>
<path d="M94.7225 108.215L97.9969 100.869C98.0689 100.708 98.1737 100.563 98.3046 100.445C98.4355 100.326 98.5898 100.236 98.7574 100.18C98.9251 100.124 99.1025 100.104 99.2785 100.121C99.4544 100.137 99.625 100.19 99.7793 100.276C100.059 100.444 100.267 100.71 100.363 101.022C100.458 101.335 100.433 101.671 100.294 101.967L99.5924 103.542L104.074 99.6022C104.564 99.1561 105.452 98.9213 105.917 99.5045C106.11 99.7173 106.226 99.9895 106.245 100.276C106.264 100.564 106.185 100.849 106.021 101.085C106.027 101.088 106.032 101.092 106.036 101.097C106.039 101.101 106.041 101.105 106.044 101.11L106.8 100.421C106.94 100.294 107.107 100.199 107.289 100.144C107.47 100.089 107.661 100.076 107.849 100.104C108.036 100.133 108.215 100.203 108.371 100.309C108.528 100.415 108.66 100.555 108.756 100.718C108.902 100.979 108.954 101.281 108.903 101.576C108.853 101.87 108.703 102.138 108.478 102.335L108.157 102.628C108.161 102.641 108.162 102.655 108.162 102.669C108.425 102.521 108.733 102.472 109.029 102.53C109.325 102.589 109.591 102.75 109.779 102.987C109.977 103.251 110.068 103.581 110.034 103.91C110 104.239 109.843 104.542 109.594 104.76L108.796 105.488C108.814 105.486 108.833 105.488 108.851 105.495C108.868 105.501 108.884 105.511 108.897 105.525C108.911 105.542 108.92 105.563 108.923 105.585C109.194 105.519 109.479 105.544 109.735 105.655C109.991 105.767 110.203 105.96 110.338 106.204C110.476 106.463 110.521 106.761 110.468 107.049C110.415 107.337 110.266 107.599 110.045 107.793L103.298 113.935C102.354 114.794 101.175 115.352 99.9123 115.537C98.6493 115.722 97.3598 115.526 96.2092 114.973C95.2171 114.496 94.4498 113.652 94.0705 112.619C93.6912 111.585 93.7298 110.445 94.178 109.44L94.7225 108.215Z" fill="#E98862"/>
<g opacity="0.2">
<path d="M101.605 105.005C101.625 105.028 101.654 105.042 101.685 105.043C101.716 105.045 101.746 105.034 101.769 105.014L106.026 101.262C106.038 101.252 106.047 101.239 106.054 101.226C106.061 101.212 106.065 101.197 106.066 101.181C106.066 101.166 106.064 101.15 106.059 101.136C106.054 101.121 106.047 101.108 106.036 101.096C106.026 101.085 106.014 101.075 106 101.068C105.986 101.062 105.971 101.058 105.956 101.057C105.94 101.056 105.925 101.058 105.91 101.063C105.896 101.068 105.882 101.076 105.871 101.086L101.614 104.837C101.602 104.848 101.593 104.86 101.586 104.874C101.579 104.888 101.575 104.903 101.574 104.918C101.573 104.934 101.576 104.949 101.581 104.964C101.586 104.978 101.593 104.992 101.604 105.003L101.605 105.005Z" fill="#0C0C0C"/>
</g>
<g opacity="0.2">
<path d="M103.208 106.929C103.228 106.951 103.257 106.965 103.288 106.966C103.319 106.968 103.349 106.957 103.372 106.937L108.123 102.75C108.134 102.74 108.144 102.727 108.151 102.713C108.157 102.7 108.161 102.685 108.162 102.669C108.163 102.654 108.161 102.638 108.156 102.624C108.151 102.609 108.143 102.596 108.133 102.584C108.112 102.562 108.083 102.548 108.052 102.546C108.022 102.544 107.991 102.554 107.967 102.574L103.217 106.761C103.205 106.771 103.195 106.783 103.189 106.797C103.182 106.811 103.178 106.826 103.177 106.841C103.176 106.857 103.178 106.872 103.183 106.887C103.188 106.901 103.196 106.915 103.206 106.926L103.208 106.929Z" fill="#0C0C0C"/>
</g>
<g opacity="0.2">
<path d="M104.932 109.021C104.953 109.044 104.982 109.058 105.013 109.059C105.043 109.061 105.074 109.05 105.097 109.03L108.886 105.69C108.91 105.669 108.924 105.64 108.926 105.609C108.928 105.578 108.917 105.548 108.897 105.524C108.876 105.501 108.847 105.487 108.816 105.485C108.785 105.483 108.754 105.493 108.731 105.514L104.941 108.854C104.93 108.864 104.92 108.876 104.913 108.89C104.907 108.904 104.903 108.919 104.902 108.934C104.901 108.95 104.903 108.965 104.908 108.98C104.913 108.994 104.921 109.008 104.931 109.019L104.932 109.021Z" fill="#0C0C0C"/>
</g>
<path d="M58.657 83.3125C57.7869 78.9397 57.3877 76.0223 57.434 72.9444C58.6598 70.7941 58.3375 68.3264 58.0587 67.2599C59.2602 67.9155 59.7627 67.9878 60.8934 67.9878C60.8934 67.9878 58.8662 59.8519 51.9759 57.6626C50.708 57.1696 47.4739 56.5467 43.1785 57.1358C39.5251 57.6368 30.5192 60.3684 29.2316 70.5074V70.5133C29.1889 70.8495 28.3244 80.1909 26.6005 84.6729C24.2828 90.6983 21.0295 92.5703 21.1119 99.5219C21.218 108.464 37.6571 109.654 47.5734 108.984C57.4898 108.314 63.0231 105.055 63.0954 98.6109C63.1752 91.3907 60.3983 92.0613 58.657 83.3125Z" fill="#0A0A0A"/>
<path d="M58.6598 79.6471C56.8089 79.9854 54.9463 78.2796 54.6079 76.429C54.2696 74.5783 55.583 73.2827 57.4339 72.9443L58.6598 79.6471Z" fill="#E98862"/>
<path d="M78.5679 152.559C76.7061 152.558 74.8923 151.968 73.3868 150.873C71.8812 149.778 70.7614 148.234 70.188 146.462L57.9551 108.629L74.7106 103.211L81.144 123.111L92.2624 105.43L107.17 114.803L86.0196 148.44C85.227 149.701 84.1277 150.74 82.8245 151.46C81.5213 152.18 80.0568 152.558 78.5679 152.559Z" fill="#4CB748"/>
<path d="M68.6956 142.113C68.6884 142.113 68.6811 142.112 68.674 142.111C68.6434 142.105 68.6163 142.088 68.5987 142.062C68.5811 142.036 68.5744 142.005 68.5801 141.974L72.7386 119.401C72.7442 119.37 72.7618 119.343 72.7874 119.325C72.8131 119.307 72.8447 119.301 72.8754 119.306C72.906 119.312 72.9331 119.329 72.9508 119.355C72.9685 119.381 72.9753 119.412 72.9696 119.443L68.8111 142.017C68.8062 142.044 68.7919 142.068 68.7708 142.086C68.7497 142.103 68.7231 142.113 68.6956 142.113Z" fill="#0C0C0C"/>
<path d="M82.6397 128.439C82.6136 128.439 82.5883 128.431 82.5677 128.415C82.5471 128.399 82.5323 128.377 82.5258 128.352L81.1405 123.016C81.1366 123.001 81.1357 122.985 81.1378 122.97C81.14 122.955 81.1451 122.94 81.1529 122.927C81.1607 122.913 81.1711 122.902 81.1834 122.892C81.1957 122.883 81.2097 122.876 81.2247 122.872C81.2396 122.869 81.2551 122.868 81.2704 122.87C81.2856 122.872 81.3004 122.877 81.3136 122.885C81.3269 122.893 81.3385 122.903 81.3478 122.915C81.3571 122.928 81.3639 122.942 81.3678 122.957L82.7531 128.293C82.7608 128.323 82.7563 128.355 82.7405 128.382C82.7247 128.408 82.6989 128.428 82.6688 128.436C82.6593 128.438 82.6495 128.439 82.6397 128.439Z" fill="#0C0C0C"/>
<path d="M5.9262 168H240.638C240.701 168 240.76 167.975 240.804 167.931C240.848 167.887 240.873 167.828 240.873 167.765C240.873 167.703 240.848 167.643 240.804 167.599C240.76 167.555 240.701 167.531 240.638 167.531H5.9262C5.86393 167.531 5.80421 167.555 5.76018 167.599C5.71614 167.643 5.69141 167.703 5.69141 167.765C5.69141 167.828 5.71614 167.887 5.76018 167.931C5.80421 167.975 5.86393 168 5.9262 168Z" fill="#292A2E"/>
</g>
<defs>
<clipPath id="clip0_58_31090">
<rect width="248.838" height="156.784" fill="white" transform="translate(0.581055 11.2158)"/>
</clipPath>
</defs>
</svg>
