<svg width="179" height="45" viewBox="0 0 179 45" fill="none" xmlns="http://www.w3.org/2000/svg"><defs><style>.cls-1{fill:#fff;}.cls-2{fill:#ffffff;}</style></defs>
<path d="M38.4324 13.968H36.197C34.3455 13.968 32.8444 12.467 32.8444 10.6155V8.38011C32.8444 3.75254 29.0919 -7.62939e-06 24.4643 -7.62939e-06C19.8345 -7.62939e-06 16.0831 3.75254 16.0831 8.38011V10.6155C16.0831 12.467 14.582 13.968 12.7306 13.968H10.4963C5.86761 13.968 2.11621 17.7206 2.11621 22.3481C2.11621 26.9768 5.86876 30.7282 10.4963 30.7282H12.7317C14.5832 30.7282 16.0842 32.2293 16.0842 34.0807V36.315C16.0842 40.9437 19.8368 44.6962 24.4655 44.6962C27.7085 44.6962 30.5145 42.8505 31.9083 40.1563L22.6463 23.3868C22.1021 22.3954 22.4376 21.1503 23.4072 20.567C24.3929 19.9721 25.6737 20.2787 26.2847 21.2564L32.4502 31.1709C32.4098 30.2763 32.9897 29.4774 33.7425 28.977C35.028 28.1239 36.6858 28.2173 37.6876 29.5638C37.8075 29.7241 37.9066 29.8924 37.9931 30.0642C37.5677 28.977 37.992 27.8496 39.3938 27.3181C40.5052 26.8973 41.6638 26.9526 42.5653 28.1631C42.8547 28.5516 43.0518 29.0635 43.0518 29.0635C43.0322 28.3533 43.2951 27.9083 43.9338 27.5809C44.3396 27.3734 44.7788 27.2639 45.2123 27.2616C46.2153 25.8805 46.8136 24.1858 46.8136 22.3481C46.8125 17.7206 43.0611 13.968 38.4324 13.968ZM30.3428 23.8987C30.2736 24.1616 30.0038 24.3195 29.741 24.2503C29.4781 24.18 29.3202 23.9114 29.3905 23.6485C29.7387 22.3331 29.5519 20.9601 28.8659 19.7842C28.1811 18.6094 27.079 17.7701 25.7636 17.4231C24.4482 17.075 23.0751 17.2617 21.8992 17.9477C20.7233 18.6325 19.8852 19.7346 19.5382 21.05C19.19 22.3666 19.3768 23.7385 20.0616 24.9132C20.7475 26.0891 21.8485 26.9273 23.1639 27.2743C23.4279 27.3434 23.5847 27.6144 23.5155 27.8761C23.4567 28.0974 23.2573 28.2427 23.0394 28.2427C22.9979 28.2427 22.9552 28.2381 22.9137 28.2265C21.3436 27.8138 20.0281 26.812 19.2096 25.4101C18.3922 24.0059 18.1709 22.3677 18.5848 20.7987C18.9986 19.2273 19.9993 17.9131 21.4023 17.0945C22.8054 16.2772 24.4436 16.0535 26.0138 16.4685C27.584 16.8824 28.8982 17.8831 29.7168 19.2861C30.5353 20.6915 30.7566 22.3285 30.3428 23.8987ZM33.9201 24.8429C33.9005 24.9155 33.8544 24.9766 33.7909 25.0135C33.7252 25.0527 33.6491 25.0619 33.5765 25.0423C33.5039 25.0239 33.4428 24.9778 33.4059 24.9132C33.3678 24.8475 33.3575 24.7714 33.3771 24.6988C34.0042 22.3193 33.6676 19.8372 32.4283 17.709C31.1889 15.582 29.1957 14.0648 26.815 13.4365C24.4413 12.8105 21.958 13.1483 19.8275 14.3899C17.6971 15.6316 16.1799 17.6237 15.5528 19.9997C14.9268 22.3758 15.2645 24.8579 16.505 26.9872C17.7466 29.1165 19.7388 30.6349 22.116 31.2609C22.1874 31.2805 22.2497 31.3266 22.2866 31.3911C22.3246 31.4568 22.3339 31.5329 22.3154 31.6056C22.2831 31.7289 22.1713 31.8154 22.0433 31.8154C22.0203 31.8154 21.9961 31.8119 21.9719 31.805C16.7575 30.4296 13.6344 25.07 15.0086 19.8556C15.6738 17.3332 17.2843 15.2189 19.5439 13.9023C21.8035 12.5857 24.4367 12.2272 26.9591 12.8924C32.1723 14.2666 35.2954 19.6285 33.9201 24.8429Z" fill="white"/>
<path d="M7.19648 10.725C5.8142 11.2346 4.54491 12.0116 3.48428 12.9938C2.42134 13.9749 1.56938 15.1566 0.977968 16.4409C0.387706 17.7275 0.0579889 19.1167 0.00726317 20.5012C-0.0446154 21.8858 0.182497 23.2646 0.654016 24.5362C0.326604 23.2197 0.259739 21.8547 0.45803 20.5428C0.652863 19.2308 1.10939 17.973 1.77805 16.8617C2.44786 15.7503 3.33095 14.7854 4.35238 14.0349C5.37266 13.2821 6.53013 12.7471 7.73371 12.4497C8.21906 12.3298 8.51534 11.8387 8.39429 11.3533C8.2744 10.868 7.78328 10.5717 7.29793 10.6916C7.26565 10.6997 7.23337 10.71 7.20224 10.7216L7.19648 10.725Z" fill="white"/>
<path d="M63.0105 25.7767C63.0105 26.4177 62.5827 26.8304 61.8657 27.2581C61.2858 27.5636 60.5065 27.7931 59.5138 27.7931C56.7966 27.7931 54.0781 25.5634 54.0781 22.3412C54.0781 19.119 56.8277 16.8893 59.4689 16.8893C60.5076 16.8893 61.3019 17.1337 61.8807 17.4393C62.5528 17.852 63.0116 18.2785 63.0116 18.9045C63.0116 19.6378 62.4317 20.0355 61.8507 20.0355C61.378 20.0355 61.0575 19.8061 60.9042 19.715C60.7981 19.67 60.3554 19.2723 59.515 19.2723C57.9725 19.2723 56.7055 20.6465 56.7055 22.3412C56.7055 24.0359 57.9425 25.4101 59.5461 25.4101C60.3393 25.4101 60.7981 25.0135 60.9042 24.9674C61.0575 24.8763 61.363 24.6469 61.8507 24.6469C62.4294 24.6469 63.0105 25.0446 63.0105 25.7767Z" fill="white"/>
<path d="M74.6613 22.3412C74.6613 25.5634 72.0189 27.7931 69.3316 27.7931C66.6443 27.7931 64.002 25.5634 64.002 22.3412C64.002 19.119 66.6443 16.8893 69.3316 16.8893C72.0189 16.8893 74.6613 19.119 74.6613 22.3412ZM66.6282 22.3412C66.6282 24.1742 67.8502 25.3951 69.3316 25.3951C70.813 25.3951 72.0201 24.1731 72.0201 22.3412C72.0201 20.5082 70.8442 19.2723 69.3316 19.2723C67.8502 19.2723 66.6282 20.5093 66.6282 22.3412Z" fill="white"/>
<path d="M85.3926 18.2336V26.5561C85.3926 27.3654 84.8738 27.7931 84.2017 27.7931C83.6518 27.7931 83.2091 27.4876 82.9036 27.0599L78.902 21.5319V26.5099C78.902 27.197 78.3371 27.7931 77.635 27.7931C76.9168 27.7931 76.3369 27.1982 76.3369 26.5099V18.1725C76.3369 17.3782 76.8569 16.9505 77.5428 16.9505C78.0777 16.9505 78.5204 17.2398 78.8259 17.6837L82.8275 23.1966V18.2336C82.8275 17.5465 83.3924 16.9505 84.0945 16.9505C84.8277 16.9505 85.3926 17.5465 85.3926 18.2336Z" fill="white"/>
<path d="M91.8828 18.2336V26.5561C91.8828 27.3654 91.3629 27.7931 90.6919 27.7931C90.1409 27.7931 89.6993 27.4876 89.3938 27.0599L85.3923 21.5319V26.5099C85.3923 27.197 84.8273 27.7931 84.1253 27.7931C83.407 27.7931 82.8271 27.1982 82.8271 26.5099V18.1725C82.8271 17.3782 83.3471 16.9505 84.033 16.9505C84.568 16.9505 85.0107 17.2398 85.3162 17.6837L89.3177 23.1966V18.2336C89.3177 17.5465 89.8826 16.9505 90.5847 16.9505C91.3179 16.9505 91.8828 17.5465 91.8828 18.2336Z" fill="white"/>
<path d="M100.081 25.5023C100.692 25.5023 101.196 25.9911 101.196 26.5872C101.196 27.1982 100.692 27.6858 100.081 27.6858H95.1031C94.2938 27.6858 93.7139 27.106 93.7139 26.2967V18.3869C93.7139 17.5776 94.2938 16.9977 95.1031 16.9977H99.9289C100.539 16.9977 101.044 17.4865 101.044 18.0664C101.044 18.6924 100.539 19.1812 99.9289 19.1812H96.2179V21.2737H98.5236C99.1346 21.2737 99.6234 21.7625 99.6234 22.3124C99.6234 22.8923 99.1346 23.3661 98.5236 23.3661H96.2179V25.5035H100.081V25.5023Z" fill="white"/>
<path d="M110.815 25.7767C110.815 26.4177 110.387 26.8304 109.67 27.2581C109.09 27.5636 108.312 27.7931 107.319 27.7931C104.601 27.7931 101.883 25.5634 101.883 22.3412C101.883 19.119 104.631 16.8893 107.274 16.8893C108.312 16.8893 109.107 17.1337 109.686 17.4393C110.359 17.852 110.816 18.2785 110.816 18.9045C110.816 19.6378 110.236 20.0355 109.657 20.0355C109.183 20.0355 108.862 19.8061 108.71 19.715C108.603 19.67 108.16 19.2723 107.32 19.2723C105.777 19.2723 104.51 20.6465 104.51 22.3412C104.51 24.0359 105.747 25.4101 107.351 25.4101C108.144 25.4101 108.603 25.0135 108.71 24.9674C108.862 24.8763 109.168 24.6469 109.657 24.6469C110.234 24.6469 110.815 25.0446 110.815 25.7767Z" fill="white"/>
<path d="M120.294 18.1114C120.294 18.7224 119.791 19.2112 119.196 19.2112H117.302V26.4949C117.302 27.2132 116.722 27.8092 116.065 27.8092C115.378 27.8092 114.798 27.2132 114.798 26.4949V19.2112H112.919C112.324 19.2112 111.804 18.7224 111.804 18.1114C111.804 17.4854 112.324 16.9966 112.919 16.9966H119.196C119.791 16.9966 120.294 17.4854 120.294 18.1114Z" fill="white"/>
<path d="M134.312 20.5393C134.312 22.4473 132.77 24.0371 130.388 24.0371H128.708V26.556C128.708 27.2431 128.158 27.808 127.471 27.808C126.769 27.808 126.204 27.2431 126.204 26.556V18.3869C126.204 17.5776 126.784 16.9977 127.593 16.9977H130.388C132.77 16.9966 134.312 18.6152 134.312 20.5393ZM131.884 20.5393C131.884 19.3945 131.121 19.1351 130.251 19.1351H128.708V21.8985H130.251C131.12 21.8985 131.884 21.6691 131.884 20.5393Z" fill="white"/>
<path d="M143.578 16.9505C144.266 16.9505 144.83 17.5303 144.83 18.2186V26.4638C144.83 27.1509 144.264 27.732 143.578 27.732C142.876 27.732 142.326 27.1521 142.326 26.4638V23.471H138.264V26.4638C138.264 27.1509 137.715 27.732 137.027 27.732C136.325 27.732 135.76 27.1521 135.76 26.4638V18.2186C135.76 17.5315 136.325 16.9505 137.027 16.9505C137.714 16.9505 138.264 17.5303 138.264 18.2186V21.3336H142.326V18.2186C142.325 17.5315 142.875 16.9505 143.578 16.9505Z" fill="white"/>
<path d="M156.252 26.6171C156.252 27.2282 155.717 27.7469 155.03 27.7469C154.482 27.7469 154.023 27.4265 153.824 26.9376L153.245 25.5634H149.289L148.709 26.9376C148.496 27.4265 148.053 27.7469 147.503 27.7469C146.816 27.7469 146.281 27.2282 146.281 26.6171C146.281 26.3566 146.357 26.0972 146.45 25.8839L150.055 17.852C150.314 17.211 150.727 16.9205 151.26 16.9205C151.809 16.9205 152.207 17.2098 152.482 17.852L156.086 25.8839C156.177 26.0984 156.252 26.3578 156.252 26.6171ZM152.404 23.5932L151.259 20.8759L150.114 23.5932H152.404Z" fill="white"/>
<path d="M165.946 26.556C165.946 27.197 165.457 27.732 164.8 27.732C164.403 27.732 164.083 27.5486 163.884 27.2731L161.349 24.0359H160.204V26.556C160.204 27.2431 159.654 27.808 158.967 27.808C158.264 27.808 157.699 27.2431 157.699 26.556V18.3857C157.699 17.5776 158.279 16.9966 159.088 16.9966H161.883C164.266 16.9966 165.807 18.6152 165.807 20.5393C165.807 21.8674 165.059 23.0283 163.822 23.6232L165.639 25.7917C165.792 26.0061 165.946 26.2505 165.946 26.556ZM160.203 21.8985H161.746C162.616 21.8985 163.379 21.6691 163.379 20.5393C163.379 19.3945 162.616 19.1339 161.746 19.1339H160.203V21.8985Z" fill="white"/>
<path d="M179 18.1414V26.4488C179 27.1359 178.406 27.732 177.687 27.732C177 27.732 176.435 27.1371 176.435 26.4488V22.5245L174.313 26.5411C174.083 26.9838 173.672 27.2443 173.228 27.2443C172.785 27.2443 172.389 26.9999 172.159 26.5411L170.036 22.5245V26.4488C170.036 27.1359 169.456 27.732 168.769 27.732C168.051 27.732 167.471 27.1371 167.471 26.4488V18.1414C167.471 17.347 168.066 16.9505 168.63 16.9505C169.15 16.9505 169.638 17.3632 169.882 17.7759L173.227 23.7004L176.586 17.7759C176.831 17.3632 177.32 16.9505 177.838 16.9505C178.389 16.9505 179 17.347 179 18.1414Z" fill="white"/>
</svg>
