<svg width="240" height="192" viewBox="0 0 240 192" fill="none" xmlns="http://www.w3.org/2000/svg">
<rect width="240" height="180" fill="white"/>
<path d="M72.0988 151.795C72.0013 151.794 71.9077 151.756 71.8388 151.687C71.7698 151.618 71.7311 151.524 71.7311 151.427V148.553C71.7311 146.966 71.1007 145.444 69.9786 144.322C68.8565 143.2 67.3346 142.57 65.7477 142.57C64.1609 142.57 62.639 143.2 61.5169 144.322C60.3948 145.444 59.7644 146.966 59.7644 148.553V151.427C59.7644 151.524 59.7256 151.618 59.6566 151.687C59.5876 151.756 59.494 151.795 59.3964 151.795C59.2988 151.795 59.2052 151.756 59.1362 151.687C59.0672 151.618 59.0284 151.524 59.0284 151.427V148.553C59.0234 147.667 59.1934 146.79 59.5289 145.97C59.8643 145.15 60.3584 144.405 60.9828 143.777C61.6073 143.149 62.3497 142.651 63.1674 142.311C63.9851 141.97 64.862 141.795 65.7476 141.795C66.6332 141.795 67.5101 141.97 68.3278 142.311C69.1456 142.651 69.888 143.149 70.5124 143.777C71.1369 144.405 71.631 145.15 71.9664 145.97C72.3018 146.79 72.4719 147.667 72.4668 148.553V151.427C72.4668 151.524 72.428 151.618 72.359 151.687C72.29 151.756 72.1964 151.795 72.0988 151.795Z" fill="#494945"/>
<path d="M80.8146 148.943H73.0723V190.73H80.8146V148.943Z" fill="#FF6B00"/>
<path opacity="0.21" d="M80.8146 148.943H73.0723V190.73H80.8146V148.943Z" fill="#0A0A0A"/>
<path d="M73.0721 148.943H42.9375V190.73H73.0721V148.943Z" fill="#FF6B00"/>
<path d="M64.3566 151.795C64.2591 151.794 64.1655 151.756 64.0966 151.687C64.0276 151.618 63.9889 151.524 63.9889 151.427V148.553C63.9936 147.764 63.8424 146.982 63.5438 146.252C63.2453 145.522 62.8053 144.858 62.2492 144.299C61.6931 143.739 61.0319 143.295 60.3036 142.992C59.5753 142.689 58.7943 142.533 58.0054 142.533C57.2166 142.533 56.4356 142.689 55.7073 142.992C54.979 143.295 54.3177 143.739 53.7617 144.299C53.2056 144.858 52.7656 145.522 52.467 146.252C52.1685 146.982 52.0172 147.764 52.022 148.553V151.427C52.0232 151.476 52.0146 151.524 51.9966 151.57C51.9787 151.616 51.9518 151.657 51.9175 151.693C51.8832 151.728 51.8422 151.756 51.797 151.775C51.7518 151.794 51.7032 151.803 51.6541 151.803C51.605 151.803 51.5565 151.794 51.5112 151.775C51.466 151.756 51.425 151.728 51.3908 151.693C51.3565 151.657 51.3296 151.616 51.3116 151.57C51.2937 151.524 51.285 151.476 51.2862 151.427V148.553C51.2812 147.667 51.4513 146.79 51.7867 145.97C52.1221 145.15 52.6162 144.405 53.2406 143.777C53.8651 143.149 54.6075 142.651 55.4252 142.311C56.2429 141.97 57.1198 141.795 58.0054 141.795C58.8911 141.795 59.7679 141.97 60.5857 142.311C61.4034 142.651 62.1458 143.149 62.7702 143.777C63.3947 144.405 63.8888 145.15 64.2242 145.97C64.5596 146.79 64.7297 147.667 64.7246 148.553V151.427C64.7246 151.524 64.6859 151.618 64.6168 151.687C64.5478 151.756 64.4542 151.795 64.3566 151.795Z" fill="#494945"/>
<path opacity="0.11" d="M73.0723 148.943L76.9434 153.112L80.8144 148.943H73.0723Z" fill="#0A0A0A"/>
<path opacity="0.11" d="M73.0723 190.73L76.9434 186.561L80.8144 190.73H73.0723Z" fill="#0A0A0A"/>
<path d="M157.74 0H93.6165C88.3119 0 84.0117 4.30022 84.0117 9.60481V160.343C84.0117 165.648 88.3119 169.948 93.6165 169.948H157.74C163.044 169.948 167.344 165.648 167.344 160.343V9.60481C167.344 4.30022 163.044 0 157.74 0Z" fill="#292A2E"/>
<path d="M157.709 2.99927H93.6461C90.0036 2.99927 87.0508 5.9521 87.0508 9.5946V160.129C87.0508 163.772 90.0036 166.725 93.6461 166.725H157.709C161.351 166.725 164.304 163.772 164.304 160.129V9.5946C164.304 5.9521 161.351 2.99927 157.709 2.99927Z" fill="white"/>
<path d="M109.855 1.75928H141.499V5.03355C141.499 5.97247 141.126 6.87296 140.462 7.53696C139.798 8.20097 138.898 8.57412 137.959 8.57435H113.396C112.457 8.57435 111.557 8.2013 110.893 7.53727C110.229 6.87324 109.855 5.97263 109.855 5.03355V1.75928Z" fill="#292A2E"/>
<g opacity="0.15">
<path d="M157.368 53.5471H93.9859C93.1098 53.5461 92.27 53.1977 91.6505 52.5782C91.0311 51.9588 90.6826 51.1189 90.6816 50.2429V16.8073C90.6826 15.9312 91.0311 15.0914 91.6505 14.4719C92.27 13.8525 93.1098 13.504 93.9859 13.5031H157.368C158.244 13.504 159.084 13.8525 159.703 14.4719C160.323 15.0914 160.671 15.9312 160.672 16.8073V50.2429C160.671 51.1189 160.323 51.9588 159.703 52.5782C159.084 53.1977 158.244 53.5461 157.368 53.5471ZM93.9859 13.9403C93.2259 13.9413 92.4973 14.2437 91.9599 14.7812C91.4225 15.3186 91.1202 16.0473 91.1194 16.8073V50.2429C91.1202 51.0029 91.4224 51.7316 91.9598 52.269C92.4972 52.8065 93.2258 53.1089 93.9859 53.1098H157.368C158.128 53.109 158.857 52.8067 159.394 52.2692C159.932 51.7317 160.234 51.003 160.235 50.2429V16.8073C160.234 16.0472 159.932 15.3185 159.394 14.781C158.857 14.2435 158.128 13.9412 157.368 13.9403H93.9859Z" fill="#292A2E"/>
</g>
<g opacity="0.43">
<path d="M127.17 22.8934C128.304 22.8934 129.223 21.9741 129.223 20.8401C129.223 19.7061 128.304 18.7867 127.17 18.7867C126.036 18.7867 125.116 19.7061 125.116 20.8401C125.116 21.9741 126.036 22.8934 127.17 22.8934Z" fill="#4CB748"/>
<path d="M133.729 22.8934C134.863 22.8934 135.782 21.9741 135.782 20.8401C135.782 19.7061 134.863 18.7867 133.729 18.7867C132.595 18.7867 131.676 19.7061 131.676 20.8401C131.676 21.9741 132.595 22.8934 133.729 22.8934Z" fill="#4CB748"/>
<path d="M140.289 22.8934C141.423 22.8934 142.342 21.9741 142.342 20.8401C142.342 19.7061 141.423 18.7867 140.289 18.7867C139.155 18.7867 138.235 19.7061 138.235 20.8401C138.235 21.9741 139.155 22.8934 140.289 22.8934Z" fill="#4CB748"/>
<path d="M146.847 22.8934C147.981 22.8934 148.901 21.9741 148.901 20.8401C148.901 19.7061 147.981 18.7867 146.847 18.7867C145.713 18.7867 144.794 19.7061 144.794 20.8401C144.794 21.9741 145.713 22.8934 146.847 22.8934Z" fill="#4CB748"/>
<path d="M153.407 22.8934C154.541 22.8934 155.46 21.9741 155.46 20.8401C155.46 19.7061 154.541 18.7867 153.407 18.7867C152.273 18.7867 151.354 19.7061 151.354 20.8401C151.354 21.9741 152.273 22.8934 153.407 22.8934Z" fill="#4CB748"/>
</g>
<g opacity="0.15">
<path d="M155.461 27.1924H125.678V27.6297H155.461V27.1924Z" fill="#292A2E"/>
</g>
<g opacity="0.15">
<path d="M155.461 31.5654H125.678V32.0027H155.461V31.5654Z" fill="#292A2E"/>
</g>
<g opacity="0.15">
<path d="M141.5 35.9386H125.678V36.3759H141.5V35.9386Z" fill="#292A2E"/>
</g>
<g opacity="0.15">
<path d="M155.68 47.8669H145.508V44.6274H155.68V47.8669ZM145.945 47.4296H155.243V45.0647H145.945V47.4296Z" fill="#292A2E"/>
</g>
<path d="M141.434 44.8457H131.699V47.6479H141.434V44.8457Z" fill="#FF6B00"/>
<path d="M117.89 24.5761C117.417 23.3674 115.847 22.6248 112.959 21.717C112.868 21.6884 112.584 21.6188 112.296 21.5504C112.209 21.5295 112.118 21.5283 112.03 21.5469C111.942 21.5654 111.859 21.6032 111.788 21.6576C111.716 21.712 111.658 21.7816 111.616 21.8613C111.575 21.9411 111.551 22.0291 111.548 22.1189C111.548 22.1189 111.198 23.642 108.628 23.642C105.589 23.642 105.174 22.1189 105.174 22.1189C105.17 22.0291 105.147 21.9411 105.105 21.8613C105.064 21.7816 105.005 21.712 104.934 21.6576C104.862 21.6032 104.779 21.5654 104.692 21.5469C104.604 21.5283 104.513 21.5295 104.425 21.5504C104.138 21.6188 103.854 21.6884 103.762 21.717C100.874 22.6248 99.3044 23.3674 98.8319 24.5761C97.1732 28.8179 94.6465 42.1589 94.6465 42.1589L98.4092 43.1459L101.573 31.9511C102.025 33.6301 102.168 38.7585 102.168 38.7585H105.773H110.949H114.456C114.456 38.7585 114.697 33.6301 115.148 31.9511L118.312 43.1459L122.075 42.1589C122.075 42.1589 119.548 28.8179 117.89 24.5761Z" fill="#4CB748"/>
<path opacity="0.48" d="M117.89 24.5761C117.417 23.3674 115.847 22.6248 112.959 21.717C112.868 21.6884 112.584 21.6188 112.296 21.5504C112.209 21.5295 112.118 21.5283 112.03 21.5469C111.942 21.5654 111.859 21.6032 111.788 21.6576C111.716 21.712 111.658 21.7816 111.616 21.8613C111.575 21.9411 111.551 22.0291 111.548 22.1189C111.548 22.1189 111.198 23.642 108.628 23.642C105.589 23.642 105.174 22.1189 105.174 22.1189C105.17 22.0291 105.147 21.9411 105.105 21.8613C105.064 21.7816 105.005 21.712 104.934 21.6576C104.862 21.6032 104.779 21.5654 104.692 21.5469C104.604 21.5283 104.513 21.5295 104.425 21.5504C104.138 21.6188 103.854 21.6884 103.762 21.717C100.874 22.6248 99.3044 23.3674 98.8319 24.5761C97.1732 28.8179 94.6465 42.1589 94.6465 42.1589L98.4092 43.1459L101.573 31.9511C102.025 33.6301 102.168 38.7585 102.168 38.7585H105.773H110.949H114.456C114.456 38.7585 114.697 33.6301 115.148 31.9511L118.312 43.1459L122.075 42.1589C122.075 42.1589 119.548 28.8179 117.89 24.5761Z" fill="white"/>
<g opacity="0.15">
<path d="M157.368 100.629H93.9859C93.1099 100.628 92.27 100.28 91.6506 99.6605C91.0311 99.0411 90.6827 98.2013 90.6816 97.3253V63.8892C90.6827 63.0133 91.0312 62.1735 91.6507 61.5542C92.2701 60.9348 93.1099 60.5864 93.9859 60.5854H157.368C158.244 60.5864 159.084 60.9348 159.703 61.5542C160.323 62.1735 160.671 63.0133 160.672 63.8892V97.3253C160.671 98.2013 160.323 99.0411 159.703 99.6605C159.084 100.28 158.244 100.628 157.368 100.629ZM93.9859 61.0227C93.2259 61.0237 92.4974 61.326 91.96 61.8634C91.4227 62.4008 91.1204 63.1293 91.1194 63.8892V97.3253C91.1202 98.0853 91.4225 98.8139 91.9599 99.3513C92.4973 99.8887 93.2259 100.191 93.9859 100.192H157.368C158.128 100.191 158.857 99.8889 159.394 99.3514C159.932 98.814 160.234 98.0853 160.235 97.3253V63.8892C160.234 63.1291 159.932 62.4004 159.394 61.863C158.857 61.3255 158.128 61.0232 157.368 61.0223L93.9859 61.0227Z" fill="#292A2E"/>
</g>
<g opacity="0.43">
<path d="M127.17 69.9757C128.304 69.9757 129.223 69.0564 129.223 67.9223C129.223 66.7883 128.304 65.869 127.17 65.869C126.036 65.869 125.116 66.7883 125.116 67.9223C125.116 69.0564 126.036 69.9757 127.17 69.9757Z" fill="#4CB748"/>
<path d="M133.729 69.9757C134.863 69.9757 135.782 69.0564 135.782 67.9223C135.782 66.7883 134.863 65.869 133.729 65.869C132.595 65.869 131.676 66.7883 131.676 67.9223C131.676 69.0564 132.595 69.9757 133.729 69.9757Z" fill="#4CB748"/>
<path d="M140.289 69.9757C141.423 69.9757 142.342 69.0564 142.342 67.9223C142.342 66.7883 141.423 65.869 140.289 65.869C139.155 65.869 138.235 66.7883 138.235 67.9223C138.235 69.0564 139.155 69.9757 140.289 69.9757Z" fill="#4CB748"/>
<path d="M146.847 69.9757C147.981 69.9757 148.901 69.0564 148.901 67.9223C148.901 66.7883 147.981 65.869 146.847 65.869C145.713 65.869 144.794 66.7883 144.794 67.9223C144.794 69.0564 145.713 69.9757 146.847 69.9757Z" fill="#4CB748"/>
<path d="M153.407 69.9757C154.541 69.9757 155.46 69.0564 155.46 67.9223C155.46 66.7883 154.541 65.869 153.407 65.869C152.273 65.869 151.354 66.7883 151.354 67.9223C151.354 69.0564 152.273 69.9757 153.407 69.9757Z" fill="#4CB748"/>
</g>
<g opacity="0.15">
<path d="M155.461 74.2745H125.678V74.7118H155.461V74.2745Z" fill="#292A2E"/>
</g>
<g opacity="0.15">
<path d="M155.461 78.6477H125.678V79.085H155.461V78.6477Z" fill="#292A2E"/>
</g>
<g opacity="0.15">
<path d="M141.5 83.0206H125.678V83.4579H141.5V83.0206Z" fill="#292A2E"/>
</g>
<g opacity="0.15">
<path d="M155.68 94.949H145.508V91.7095H155.68V94.949ZM145.945 94.5117H155.243V92.1468H145.945V94.5117Z" fill="#292A2E"/>
</g>
<path d="M141.434 91.9282H131.699V94.7304H141.434V91.9282Z" fill="#FF6B00"/>
<path opacity="0.48" d="M117.718 73.5159C117.008 72.6383 115.445 72.0783 113.619 71.6344C112.877 71.4545 112.374 71.3867 112.374 71.3867C111.787 72.8759 109.971 73.9539 108.37 73.9541H108.258C106.658 73.9541 104.935 72.8759 104.347 71.3867C104.347 71.3867 103.844 71.4543 103.101 71.6344C101.275 72.0783 99.7117 72.6383 99.0026 73.5159C97.9125 74.8643 96.3867 79.9401 96.3867 79.9401L100.81 81.7833C100.844 81.8752 100.878 81.9674 100.911 82.0599C100.934 82.1259 100.958 82.1918 100.981 82.2577C100.979 82.2512 100.976 82.2448 100.974 82.2383C100.979 82.2536 100.985 82.2693 100.99 82.2848C101.747 84.5208 102.272 86.8288 102.557 89.1723C102.576 89.1662 114.143 89.1662 114.161 89.1723C114.446 86.8288 114.972 84.5208 115.729 82.2848C115.734 82.2693 115.739 82.2538 115.745 82.2383C115.766 82.1788 115.787 82.1193 115.808 82.0599C115.841 81.9676 115.874 81.8754 115.909 81.7833L120.332 79.9401C120.332 79.9401 118.808 74.8654 117.718 73.5159Z" fill="white"/>
<path d="M117.718 73.5159C117.008 72.6383 115.445 72.0783 113.619 71.6344C112.877 71.4545 112.374 71.3867 112.374 71.3867C111.787 72.8759 109.971 73.9539 108.37 73.9541H108.258C106.658 73.9541 104.935 72.8759 104.347 71.3867C104.347 71.3867 103.844 71.4543 103.101 71.6344C101.275 72.0783 99.7117 72.6383 99.0026 73.5159C97.9125 74.8643 96.3867 79.9401 96.3867 79.9401L100.81 81.7833C100.844 81.8752 100.878 81.9674 100.911 82.0599C100.934 82.1259 100.958 82.1918 100.981 82.2577C100.979 82.2512 100.976 82.2448 100.974 82.2383C100.979 82.2536 100.985 82.2693 100.99 82.2848C101.747 84.5208 102.272 86.8288 102.557 89.1723C102.576 89.1662 114.143 89.1662 114.161 89.1723C114.446 86.8288 114.972 84.5208 115.729 82.2848C115.734 82.2693 115.739 82.2538 115.745 82.2383C115.766 82.1788 115.787 82.1193 115.808 82.0599C115.841 81.9676 115.874 81.8754 115.909 81.7833L120.332 79.9401C120.332 79.9401 118.808 74.8654 117.718 73.5159Z" fill="#4CB748"/>
<path opacity="0.48" d="M117.718 73.5159C117.008 72.6383 115.445 72.0783 113.619 71.6344C112.877 71.4545 112.374 71.3867 112.374 71.3867C111.787 72.8759 109.971 73.9539 108.37 73.9541H108.258C106.658 73.9541 104.935 72.8759 104.347 71.3867C104.347 71.3867 103.844 71.4543 103.101 71.6344C101.275 72.0783 99.7117 72.6383 99.0026 73.5159C97.9125 74.8643 96.3867 79.9401 96.3867 79.9401L100.81 81.7833C100.844 81.8752 100.878 81.9674 100.911 82.0599C100.934 82.1259 100.958 82.1918 100.981 82.2577C100.979 82.2512 100.976 82.2448 100.974 82.2383C100.979 82.2536 100.985 82.2693 100.99 82.2848C101.747 84.5208 102.272 86.8288 102.557 89.1723C102.576 89.1662 114.143 89.1662 114.161 89.1723C114.446 86.8288 114.972 84.5208 115.729 82.2848C115.734 82.2693 115.739 82.2538 115.745 82.2383C115.766 82.1788 115.787 82.1193 115.808 82.0599C115.841 81.9676 115.874 81.8754 115.909 81.7833L120.332 79.9401C120.332 79.9401 118.808 74.8654 117.718 73.5159Z" fill="white"/>
<g opacity="0.15">
<path d="M157.368 147.055H93.9859C93.1098 147.054 92.2699 146.706 91.6505 146.086C91.0311 145.467 90.6826 144.627 90.6816 143.751V110.315C90.6827 109.439 91.0311 108.6 91.6506 107.98C92.27 107.361 93.1099 107.012 93.9859 107.011H157.368C158.244 107.012 159.084 107.361 159.703 107.98C160.323 108.6 160.671 109.439 160.672 110.315V143.751C160.671 144.627 160.323 145.467 159.703 146.086C159.084 146.706 158.244 147.054 157.368 147.055ZM93.9859 107.449C93.2258 107.45 92.4971 107.752 91.9597 108.289C91.4222 108.827 91.1199 109.555 91.1189 110.315V143.751C91.1197 144.511 91.422 145.24 91.9595 145.777C92.497 146.315 93.2257 146.617 93.9859 146.618H157.368C158.128 146.617 158.857 146.315 159.394 145.777C159.932 145.24 160.234 144.511 160.235 143.751V110.315C160.234 109.555 159.932 108.827 159.394 108.289C158.857 107.752 158.128 107.45 157.368 107.449H93.9859Z" fill="#292A2E"/>
</g>
<g opacity="0.43">
<path d="M127.17 116.401C128.304 116.401 129.223 115.482 129.223 114.348C129.223 113.214 128.304 112.295 127.17 112.295C126.036 112.295 125.116 113.214 125.116 114.348C125.116 115.482 126.036 116.401 127.17 116.401Z" fill="#4CB748"/>
<path d="M133.729 116.401C134.863 116.401 135.782 115.482 135.782 114.348C135.782 113.214 134.863 112.295 133.729 112.295C132.595 112.295 131.676 113.214 131.676 114.348C131.676 115.482 132.595 116.401 133.729 116.401Z" fill="#4CB748"/>
<path d="M140.289 116.401C141.423 116.401 142.342 115.482 142.342 114.348C142.342 113.214 141.423 112.295 140.289 112.295C139.155 112.295 138.235 113.214 138.235 114.348C138.235 115.482 139.155 116.401 140.289 116.401Z" fill="#4CB748"/>
<path d="M146.847 116.401C147.981 116.401 148.901 115.482 148.901 114.348C148.901 113.214 147.981 112.295 146.847 112.295C145.713 112.295 144.794 113.214 144.794 114.348C144.794 115.482 145.713 116.401 146.847 116.401Z" fill="#4CB748"/>
<path d="M153.407 116.401C154.541 116.401 155.46 115.482 155.46 114.348C155.46 113.214 154.541 112.295 153.407 112.295C152.273 112.295 151.354 113.214 151.354 114.348C151.354 115.482 152.273 116.401 153.407 116.401Z" fill="#4CB748"/>
</g>
<g opacity="0.15">
<path d="M155.461 120.701H125.678V121.138H155.461V120.701Z" fill="#292A2E"/>
</g>
<g opacity="0.15">
<path d="M155.461 125.074H125.678V125.511H155.461V125.074Z" fill="#292A2E"/>
</g>
<g opacity="0.15">
<path d="M141.5 129.447H125.678V129.884H141.5V129.447Z" fill="#292A2E"/>
</g>
<g opacity="0.15">
<path d="M155.68 141.375H145.508V138.135H155.68V141.375ZM145.945 140.938H155.243V138.573H145.945V140.938Z" fill="#292A2E"/>
</g>
<path d="M141.434 138.354H131.699V141.156H141.434V138.354Z" fill="#FF6B00"/>
<path opacity="0.48" d="M114.457 138.57C114.574 138.57 114.689 138.543 114.795 138.492C114.9 138.44 114.992 138.365 115.064 138.273C115.136 138.181 115.186 138.073 115.211 137.958C115.235 137.844 115.233 137.725 115.205 137.611C114.419 134.346 114.36 128.199 115.037 125.557L115.787 122.634L115.786 122.62C115.799 122.52 115.789 122.418 115.757 122.322C115.726 122.227 115.672 122.139 115.602 122.067C112.766 119.157 113.14 116.168 113.14 116.168H111.918C111.997 116.873 111.951 117.585 111.782 118.273C111.475 119.481 110.661 120.822 108.596 121.144C107.94 121.242 107.273 121.242 106.617 121.144C104.552 120.822 103.738 119.481 103.432 118.273C103.262 117.585 103.216 116.873 103.295 116.168H102.074C102.074 116.168 102.447 119.157 99.6112 122.067C99.5408 122.139 99.4876 122.226 99.4558 122.322C99.424 122.418 99.4142 122.52 99.4273 122.62L99.417 122.634L100.167 125.557C100.845 128.199 100.785 134.347 99.9997 137.611C99.9714 137.725 99.9694 137.844 99.9938 137.958C100.018 138.073 100.068 138.18 100.14 138.273C100.212 138.365 100.304 138.44 100.41 138.491C100.515 138.543 100.63 138.57 100.747 138.57L114.457 138.57Z" fill="white"/>
<path d="M114.457 138.57C114.574 138.57 114.689 138.543 114.795 138.492C114.9 138.44 114.992 138.365 115.064 138.273C115.136 138.181 115.186 138.073 115.211 137.958C115.235 137.844 115.233 137.725 115.205 137.611C114.419 134.346 114.36 128.199 115.037 125.557L115.787 122.634L115.786 122.62C115.799 122.52 115.789 122.418 115.757 122.322C115.726 122.227 115.672 122.139 115.602 122.067C112.766 119.157 113.14 116.168 113.14 116.168H111.918C111.997 116.873 111.951 117.585 111.782 118.273C111.475 119.481 110.661 120.822 108.596 121.144C107.94 121.242 107.273 121.242 106.617 121.144C104.552 120.822 103.738 119.481 103.432 118.273C103.262 117.585 103.216 116.873 103.295 116.168H102.074C102.074 116.168 102.447 119.157 99.6112 122.067C99.5408 122.139 99.4876 122.226 99.4558 122.322C99.424 122.418 99.4142 122.52 99.4273 122.62L99.417 122.634L100.167 125.557C100.845 128.199 100.785 134.347 99.9997 137.611C99.9714 137.725 99.9694 137.844 99.9938 137.958C100.018 138.073 100.068 138.18 100.14 138.273C100.212 138.365 100.304 138.44 100.41 138.491C100.515 138.543 100.63 138.57 100.747 138.57L114.457 138.57Z" fill="#4CB748"/>
<path opacity="0.48" d="M114.457 138.57C114.574 138.57 114.689 138.543 114.795 138.492C114.9 138.44 114.992 138.365 115.064 138.273C115.136 138.181 115.186 138.073 115.211 137.958C115.235 137.844 115.233 137.725 115.205 137.611C114.419 134.346 114.36 128.199 115.037 125.557L115.787 122.634L115.786 122.62C115.799 122.52 115.789 122.418 115.757 122.322C115.726 122.227 115.672 122.139 115.602 122.067C112.766 119.157 113.14 116.168 113.14 116.168H111.918C111.997 116.873 111.951 117.585 111.782 118.273C111.475 119.481 110.661 120.822 108.596 121.144C107.94 121.242 107.273 121.242 106.617 121.144C104.552 120.822 103.738 119.481 103.432 118.273C103.262 117.585 103.216 116.873 103.295 116.168H102.074C102.074 116.168 102.447 119.157 99.6112 122.067C99.5408 122.139 99.4876 122.226 99.4558 122.322C99.424 122.418 99.4142 122.52 99.4273 122.62L99.417 122.634L100.167 125.557C100.845 128.199 100.785 134.347 99.9997 137.611C99.9714 137.725 99.9694 137.844 99.9938 137.958C100.018 138.073 100.068 138.18 100.14 138.273C100.212 138.365 100.304 138.44 100.41 138.491C100.515 138.543 100.63 138.57 100.747 138.57L114.457 138.57Z" fill="white"/>
<path d="M185.257 181.486C185.257 181.486 184.269 186.603 179.478 186.889C174.687 187.175 175.726 190.991 175.726 190.991H194.035V181.843L185.257 181.486Z" fill="#4CB748"/>
<path d="M190.904 88.1384C190.904 88.1384 190.846 86.6 190.858 90.0894C190.904 103.106 191.129 117.973 191.681 126.673C192.568 140.658 194.843 184.752 194.843 184.752L182.812 184.651L171.15 87.6095L190.904 88.1384Z" fill="#262626"/>
<path d="M177.317 103.487C177.317 103.487 176.818 112.932 176.727 115.15C176.513 120.278 176.438 125.588 176.438 131.608L174.542 115.826C174.542 115.826 175.929 110.88 177.317 103.487Z" fill="#0A0A0A"/>
<path d="M163.838 181.486C163.838 181.486 162.85 186.603 158.059 186.889C153.268 187.175 154.307 190.991 154.307 190.991H172.616V181.843L163.838 181.486Z" fill="#4CB748"/>
<path d="M158.012 89.1491C158.012 89.1491 156.946 133.635 157.103 135.809L161.577 184.414L173.409 184.633L172.256 134.05C172.256 134.05 173.07 120.097 176.441 107.14C178.166 100.491 179.204 93.6813 179.539 86.8196L158.012 89.1491Z" fill="#262626"/>
<path d="M191.035 88.1374L191.075 88.1396C191.075 88.1396 191.046 87.3804 191.035 88.1374Z" fill="#333333"/>
<path d="M156.318 64.4577C156.566 67.3728 157.773 85.5593 158.011 89.15H190.891C191.077 85.9116 191.911 71.751 192.615 65.4183C193.287 59.3752 194.606 56.3496 193.64 54.5632C192.06 51.6434 187.742 49.9561 184.798 49.5575C183.001 49.3141 180.297 49.1396 180.297 49.1396C180.297 49.1396 180.068 53.77 174.608 54.0282C167.178 54.378 167.674 49.1394 167.637 49.1394C166.433 49.1394 159.423 49.7055 157.874 50.8987C155.164 52.985 155.791 58.2794 156.318 64.4577Z" fill="#4CB748"/>
<path d="M155.864 60.8041C155.836 60.8042 155.809 60.7935 155.789 60.7744C155.768 60.7552 155.756 60.729 155.755 60.7011L155.489 56.0721C155.488 56.0432 155.498 56.0148 155.517 55.9931C155.536 55.9715 155.563 55.9584 155.592 55.9567C155.621 55.9553 155.649 55.9653 155.671 55.9845C155.692 56.0037 155.706 56.0306 155.708 56.0594L155.973 60.6885C155.975 60.7174 155.965 60.7458 155.945 60.7675C155.926 60.7891 155.899 60.8022 155.87 60.8039L155.864 60.8041Z" fill="#0C0C0C"/>
<path d="M197.998 88.9586C198.965 88.9585 199.917 88.7247 200.775 88.2772C201.632 87.8297 202.368 87.1817 202.921 86.3883C203.474 85.595 203.828 84.6798 203.951 83.7206C204.074 82.7614 203.964 81.7867 203.629 80.8793C203.289 79.9582 195.326 58.871 193.81 54.9637L182.585 59.5116C183.438 61.7086 186.526 70.0357 189.007 76.7436L184.885 76.2956L183.587 88.231L197.348 88.9234C197.564 88.9469 197.781 88.9586 197.998 88.9586Z" fill="#4CB748"/>
<path d="M163.72 48.7394C163.756 48.7346 164.765 52.5299 172.636 51.9394C178.085 51.5312 179.414 47.8222 179.538 47.8222C178.951 47.6974 177.997 47.5677 177.736 47.4286C176.878 46.9677 176.253 46.4065 175.938 45.2021C175.692 44.2602 175.566 40.6343 175.566 38.8152L167.182 40.6993C167.299 42.7513 168.117 47.5087 165.25 48.3507C164.773 48.4897 164.259 48.6179 163.72 48.7394Z" fill="#E98862"/>
<path d="M167.472 44.7336C170.778 44.9943 175.024 43.5989 175.831 39.1889L176.558 35.2095C177.365 30.7996 175.702 26.8009 171.55 26.0416C167.398 25.2822 163.64 28.2895 162.834 32.6994L162.512 34.4611C162.202 36.1534 161.575 44.2684 167.472 44.7336Z" fill="#E98862"/>
<path d="M164.408 40.6847C165.001 37.7034 165.273 35.7145 165.241 33.6162C164.406 32.1512 164.625 30.4676 164.815 29.7408C164.24 30.1065 163.563 30.28 162.883 30.2365C162.883 30.2365 164.265 24.6898 168.962 23.1973C169.826 22.861 172.032 22.4364 174.96 22.8381C177.451 23.1796 183.59 25.0421 184.467 31.954V31.9579C184.496 32.1871 185.086 38.5557 186.26 41.6113C187.84 45.7191 190.058 46.9953 190.002 51.7347C189.93 57.8309 178.722 58.6423 171.964 58.1862C165.205 57.7301 161.43 55.5075 161.381 51.1142C161.327 46.1918 163.22 46.649 164.408 40.6847Z" fill="#0A0A0A"/>
<path d="M191.593 65.5398L190.785 89.1462L191.004 89.1537L191.812 65.5473L191.593 65.5398Z" fill="#0C0C0C"/>
<path d="M120.268 38.5563L123.801 42.7294L123.583 42.0129C123.517 41.7803 123.542 41.5312 123.652 41.3161C123.763 41.101 123.951 40.9359 124.178 40.8541C124.297 40.816 124.423 40.8025 124.547 40.8145C124.672 40.8264 124.792 40.8636 124.902 40.9238C125.011 40.9839 125.107 41.0657 125.184 41.1642C125.261 41.2627 125.317 41.3759 125.349 41.4967L126.964 47.5791C127.168 48.3469 127.064 49.164 126.674 49.8561C126.283 50.5482 125.638 51.0605 124.876 51.2836C123.991 51.5428 123.048 51.5317 122.169 51.2518C121.291 50.9719 120.515 50.4358 119.943 49.7124L117.357 46.4307C117.219 46.2628 117.144 46.0525 117.144 45.8354C117.143 45.6183 117.218 45.4077 117.355 45.2393C117.482 45.0897 117.653 44.9846 117.844 44.9394C118.035 44.8942 118.235 44.9113 118.415 44.9881C118.418 44.9776 118.423 44.9679 118.429 44.9593C118.436 44.9508 118.444 44.9437 118.454 44.9385C118.463 44.9333 118.474 44.9301 118.484 44.929C118.495 44.9279 118.506 44.9291 118.516 44.9323L118.037 44.3267C117.89 44.1491 117.813 43.9245 117.819 43.6942C117.825 43.4639 117.914 43.2436 118.07 43.0738C118.229 42.9107 118.443 42.8127 118.671 42.7988C118.898 42.785 119.123 42.8564 119.301 42.999C119.302 42.9893 119.305 42.9799 119.31 42.9713L119.113 42.7229C118.985 42.5528 118.915 42.3458 118.913 42.1327C118.911 41.9196 118.978 41.7117 119.104 41.5396C119.258 41.3543 119.478 41.2365 119.717 41.2115C119.956 41.1865 120.196 41.2562 120.385 41.4057L120.397 41.3933L118.913 39.6399C118.837 39.55 118.779 39.4455 118.745 39.3329C118.711 39.2202 118.699 39.1017 118.712 38.9845C118.725 38.8674 118.762 38.7541 118.82 38.6516C118.878 38.5491 118.957 38.4596 119.05 38.3884C119.237 38.2569 119.466 38.2012 119.692 38.2323C119.918 38.2635 120.124 38.3793 120.268 38.5563Z" fill="#E98862"/>
<path opacity="0.2" d="M120.349 41.5033C120.352 41.5127 120.358 41.5214 120.364 41.5289L121.826 43.2154C121.842 43.2293 121.862 43.2371 121.883 43.2372C121.904 43.2374 121.925 43.2298 121.941 43.216C121.957 43.2022 121.967 43.183 121.97 43.1621C121.973 43.1411 121.969 43.1198 121.957 43.1021L120.495 41.4159C120.482 41.4006 120.464 41.3905 120.444 41.3873C120.424 41.3841 120.403 41.3881 120.386 41.3985C120.368 41.409 120.355 41.4252 120.349 41.4443C120.342 41.4635 120.342 41.4844 120.349 41.5033H120.349Z" fill="#0C0C0C"/>
<path opacity="0.2" d="M119.303 43.0384C119.306 43.0476 119.311 43.0561 119.318 43.0635L120.456 44.3973C120.472 44.4107 120.492 44.418 120.513 44.4179C120.534 44.4178 120.554 44.4104 120.569 44.3969C120.585 44.3834 120.596 44.3648 120.599 44.3443C120.602 44.3238 120.598 44.3029 120.587 44.2851L119.449 42.9514C119.435 42.937 119.417 42.9277 119.397 42.925C119.378 42.9223 119.358 42.9264 119.34 42.9366C119.323 42.9467 119.31 42.9624 119.303 42.981C119.296 42.9996 119.296 43.02 119.302 43.0388L119.303 43.0384Z" fill="#0C0C0C"/>
<path opacity="0.2" d="M118.414 45.0451C118.418 45.055 118.423 45.064 118.431 45.0718L118.983 45.6894C118.99 45.7 118.999 45.709 119.01 45.7158C119.02 45.7226 119.032 45.7269 119.045 45.7286C119.057 45.7303 119.07 45.7292 119.082 45.7255C119.094 45.7218 119.105 45.7155 119.115 45.7071C119.124 45.6987 119.132 45.6883 119.137 45.6767C119.142 45.6651 119.144 45.6526 119.144 45.64C119.144 45.6274 119.141 45.6149 119.135 45.6036C119.129 45.5922 119.122 45.5822 119.112 45.5742L118.559 44.9565C118.545 44.9427 118.527 44.934 118.508 44.9317C118.488 44.9295 118.469 44.9338 118.452 44.944C118.435 44.9542 118.423 44.9697 118.416 44.988C118.409 45.0063 118.408 45.0264 118.414 45.0451Z" fill="#0C0C0C"/>
<path d="M137.709 77.8499C136.597 77.8499 135.503 77.5623 134.535 77.015C133.567 76.4677 132.756 75.6793 132.183 74.7263L117.886 50.9747L128.938 44.3217L139.807 62.3779L157.874 50.8988L165.528 61.1616L141.2 76.8234C140.159 77.4934 138.947 77.8498 137.709 77.8499Z" fill="#4CB748"/>
<path d="M156.501 67.0769C156.476 67.0769 156.452 67.0686 156.433 67.0535C156.414 67.0383 156.4 67.0172 156.395 66.9934C156.389 66.9696 156.391 66.9446 156.401 66.9223C156.412 66.9 156.429 66.8818 156.451 66.8705L159.573 65.2597C159.598 65.2464 159.628 65.2439 159.656 65.2527C159.684 65.2615 159.707 65.281 159.72 65.3068C159.733 65.3325 159.736 65.3625 159.727 65.3902C159.718 65.4178 159.699 65.4408 159.673 65.4541L156.551 67.0649C156.535 67.0729 156.518 67.077 156.501 67.0769Z" fill="#0C0C0C"/>
<path d="M106.796 190.73H99.0536L95.9199 159.001H103.662L106.796 190.73Z" fill="#4CB748"/>
<path opacity="0.21" d="M106.796 190.73H99.0536L95.9199 159.001H103.662L106.796 190.73Z" fill="#0A0A0A"/>
<path d="M99.0534 190.73H68.9189L72.0526 159.001H95.9197L99.0534 190.73Z" fill="#4CB748"/>
<path d="M83.9868 171.984C83.1044 171.984 82.2307 171.81 81.4154 171.472C80.6002 171.135 79.8595 170.64 79.2356 170.016C78.6117 169.392 78.1167 168.651 77.7791 167.836C77.4414 167.021 77.2677 166.147 77.2677 165.265V162.391C77.2665 162.342 77.2751 162.293 77.2931 162.247C77.311 162.202 77.3379 162.16 77.3722 162.125C77.4065 162.09 77.4474 162.062 77.4927 162.043C77.5379 162.024 77.5865 162.014 77.6356 162.014C77.6846 162.014 77.7332 162.024 77.7785 162.043C77.8237 162.062 77.8646 162.09 77.8989 162.125C77.9332 162.16 77.9601 162.202 77.9781 162.247C77.996 162.293 78.0046 162.342 78.0034 162.391V165.264C78.0034 166.851 78.6338 168.373 79.7559 169.495C80.878 170.617 82.3999 171.248 83.9868 171.248C85.5736 171.248 87.0955 170.617 88.2176 169.495C89.3397 168.373 89.9701 166.851 89.9701 165.264V162.391C89.9701 162.293 90.0089 162.2 90.0779 162.131C90.1469 162.062 90.2405 162.023 90.3381 162.023C90.4357 162.023 90.5293 162.062 90.5983 162.131C90.6673 162.2 90.7061 162.293 90.7061 162.391V165.264C90.7042 167.046 89.9956 168.754 88.736 170.014C87.4763 171.273 85.7683 171.982 83.9868 171.984Z" fill="white"/>
<path opacity="0.08" d="M95.9199 159.001L100.194 163.17L103.662 159.001H95.9199Z" fill="#0A0A0A"/>
<path opacity="0.08" d="M99.0537 190.73L102.512 186.561L106.796 190.73H99.0537Z" fill="#0A0A0A"/>
<path d="M201.483 191.16H37.1751C37.1524 191.161 37.1298 191.157 37.1086 191.149C37.0874 191.141 37.068 191.128 37.0517 191.113C37.0353 191.097 37.0223 191.078 37.0135 191.057C37.0046 191.036 37 191.014 37 190.991C37 190.968 37.0046 190.946 37.0135 190.925C37.0223 190.904 37.0353 190.885 37.0517 190.869C37.068 190.854 37.0874 190.841 37.1086 190.833C37.1298 190.825 37.1524 190.821 37.1751 190.822H201.483C201.506 190.821 201.528 190.825 201.55 190.833C201.571 190.841 201.59 190.854 201.606 190.869C201.623 190.885 201.636 190.904 201.645 190.925C201.654 190.946 201.658 190.968 201.658 190.991C201.658 191.014 201.654 191.036 201.645 191.057C201.636 191.078 201.623 191.097 201.606 191.113C201.59 191.128 201.571 191.141 201.55 191.149C201.528 191.157 201.506 191.161 201.483 191.16Z" fill="#3F3F3F"/>
</svg>
