<svg width="252" height="180" viewBox="0 0 252 180" fill="none" xmlns="http://www.w3.org/2000/svg">
<rect width="240" height="180" transform="translate(6)" fill="white"/>
<g clip-path="url(#clip0_58_31217)">
<path d="M198.957 6H148.759V71.3394H198.957V6Z" fill="#F4F4F4"/>
<path d="M198.958 71.3394H200.586V5.99998H198.958V71.3394Z" fill="#F4F4F4"/>
<path opacity="0.05" d="M198.958 71.3394H200.586V5.99998H198.958V71.3394Z" fill="#292A2E"/>
<path opacity="0.05" d="M189.812 17.9025H157.902V59.4372H189.812V17.9025Z" fill="#292A2E"/>
<path opacity="0.03" d="M189.812 17.9025H188.149V59.4372H189.812V17.9025Z" fill="#292A2E"/>
<path d="M240.011 87.4074H198.957V128.839H240.011V87.4074Z" fill="#F4F4F4"/>
<path opacity="0.05" d="M232.533 94.9548H206.436V121.292H232.533V94.9548Z" fill="#292A2E"/>
<path d="M240.011 128.839H241.64V87.4074H240.011V128.839Z" fill="#F4F4F4"/>
<path opacity="0.05" d="M240.011 128.839H241.64V87.4074H240.011V128.839Z" fill="#292A2E"/>
<path opacity="0.03" d="M232.532 94.9548H230.869V121.292H232.532V94.9548Z" fill="#292A2E"/>
<path d="M111.034 12.0659H5.83105V117.269H111.034V12.0659Z" fill="#F4F4F4"/>
<path d="M5.83087 12.0659H4.625V117.269H5.83087V12.0659Z" fill="#F4F4F4"/>
<path opacity="0.05" d="M5.83087 12.0659H4.625V117.269H5.83087V12.0659Z" fill="#292A2E"/>
<path opacity="0.05" d="M31.3167 84.5597V57.0352H53.8634V73.0262H88.7885V101.341H103.632V117.269H88.7885H85.9291H10.8916V84.5597H31.3167Z" fill="#292A2E"/>
<path opacity="0.34" d="M50.9695 60.0236H34.5508V63.0121H50.9695V60.0236Z" fill="#FFFFFA"/>
<path opacity="0.34" d="M50.9695 66.2167H34.5508V69.2052H50.9695V66.2167Z" fill="#FFFFFA"/>
<path opacity="0.34" d="M50.9695 72.4094H34.5508V75.3978H50.9695V72.4094Z" fill="#FFFFFA"/>
<path opacity="0.34" d="M16.83 87.4608H13.8037V90.4493H16.83V87.4608Z" fill="#FFFFFA"/>
<path opacity="0.34" d="M16.83 93.6536H13.8037V96.642H16.83V93.6536Z" fill="#FFFFFA"/>
<path opacity="0.34" d="M16.83 99.8466H13.8037V102.835H16.83V99.8466Z" fill="#FFFFFA"/>
<path opacity="0.34" d="M22.4287 87.4608H19.4023V90.4493H22.4287V87.4608Z" fill="#FFFFFA"/>
<path opacity="0.34" d="M22.4287 93.6536H19.4023V96.642H22.4287V93.6536Z" fill="#FFFFFA"/>
<path opacity="0.34" d="M22.4287 99.8466H19.4023V102.835H22.4287V99.8466Z" fill="#FFFFFA"/>
<path opacity="0.34" d="M27.8759 87.4608H24.8496V90.4493H27.8759V87.4608Z" fill="#FFFFFA"/>
<path opacity="0.34" d="M27.8759 93.6536H24.8496V96.642H27.8759V93.6536Z" fill="#FFFFFA"/>
<path opacity="0.34" d="M27.8759 99.8466H24.8496V102.835H27.8759V99.8466Z" fill="#FFFFFA"/>
<path d="M5.83105 64.0776H26.9998V12.0659H28.7504V64.0776H85.9294V12.0659H87.68V64.0776H111.035V65.8282H87.68V117.269H85.9294V65.8282H28.7504V117.269H26.9998V65.8282H5.83105V64.0776Z" fill="white"/>
<path d="M115.225 117.143H1.63965V120.641H115.225V117.143Z" fill="#F4F4F4"/>
<path opacity="0.1" d="M115.225 117.143H1.63965V120.641H115.225V117.143Z" fill="#292A2E"/>
<path opacity="0.1" d="M1.63996 117.143H0V120.641H1.63996V117.143Z" fill="#292A2E"/>
<path opacity="0.1" d="M1.63996 117.143H0V120.641H1.63996V117.143Z" fill="#292A2E"/>
<path d="M76.7718 64.0893C76.7718 64.0893 81.3291 60.143 81.9598 51.7249C82.4479 45.2058 76.7718 49.7883 76.7718 49.7883C76.7718 49.7883 77.0775 45.091 73.7176 45.7799C70.3578 46.4689 68.7842 51.4878 68.7842 51.4878" fill="#0C0C0C"/>
<path d="M56.2194 47.5004C56.2194 47.5004 39.5083 50.4326 47.1214 72.8331H51.6544" fill="#0C0C0C"/>
<path d="M75.0396 96.1212C74.9652 96.1115 74.1423 109.768 58.277 108.577C47.2938 107.755 43.3776 96.1018 43.126 96.1018C44.3102 95.8502 46.3043 95.4843 46.8303 95.2035C48.5595 94.2742 50.6996 93.3071 51.2569 89.9486C51.5784 88.0129 51.0334 78.1098 51.2009 76.1509L68.0602 79.9141C67.8247 84.0505 66.176 93.6399 71.9547 95.3371C72.9163 95.6179 73.9521 95.876 75.0396 96.1212Z" fill="#E98862"/>
<path opacity="0.52" d="M68.297 91.4181C68.0331 90.567 67.863 89.6896 67.7898 88.8016C67.6045 86.775 67.6415 84.7342 67.9001 82.7156C64.4735 82.253 61.2452 80.8386 58.5821 78.6332C58.2693 79.7892 56.5475 84.8411 57.0243 85.9399C57.9252 88.0169 62.1596 91.4181 68.297 91.4181Z" fill="#0C0C0C"/>
<path d="M65.3047 88.1184C58.6284 87.968 50.4047 84.3074 49.6866 75.3067L49.0397 67.1851C48.3216 58.1847 52.4684 50.5109 60.9412 49.8348C69.416 49.1585 76.3323 55.9483 77.0497 64.95L77.3366 68.5456C77.4135 69.7818 77.4061 71.0218 77.3146 72.257C77.0963 75.524 76.7518 80.4905 74.7777 83.9664C72.9136 87.2496 69.5699 88.2148 65.3047 88.1184Z" fill="#E98862"/>
<path d="M74.5353 70.4709C75.1136 70.4709 75.5824 70.0021 75.5824 69.4238C75.5824 68.8456 75.1136 68.3768 74.5353 68.3768C73.9571 68.3768 73.4883 68.8456 73.4883 69.4238C73.4883 70.0021 73.9571 70.4709 74.5353 70.4709Z" fill="#0C0C0C"/>
<path d="M64.9201 70.5365C65.4984 70.5365 65.9672 70.0678 65.9672 69.4895C65.9672 68.9112 65.4984 68.4424 64.9201 68.4424C64.3418 68.4424 63.873 68.9112 63.873 69.4895C63.873 70.0678 64.3418 70.5365 64.9201 70.5365Z" fill="#0C0C0C"/>
<path d="M50.4311 78.0066C47.8556 78.2123 45.5467 75.6236 45.3426 73.0482C45.1385 70.4728 47.1117 68.8859 49.6871 68.6815L51.1517 70.301L52.6455 77.831L50.4311 78.0066Z" fill="#E98862"/>
<path d="M52.718 73.6929C52.718 73.6929 52.7342 60.8879 56.5466 59.8419C59.0857 59.1451 65.5731 62.3781 71.2813 60.8879C73.7788 60.2358 76.2222 60.701 76.5466 61.8797C76.676 62.3464 77.7952 55.4427 73.488 50.5474C70.0593 46.6504 59.6596 46.1807 55.0541 47.8439C42.3019 52.4452 49.1933 69.2776 49.1933 69.2776L50.0666 73.6334L52.718 73.6929Z" fill="#0C0C0C"/>
<g opacity="0.52">
<path d="M69.3574 76.782H69.3739C70.2039 76.7173 71.5893 76.518 71.5411 75.897C71.5007 75.3824 69.6651 69.9372 69.4545 69.3181C69.435 69.2667 69.3963 69.225 69.3467 69.2015C69.297 69.1781 69.2402 69.1749 69.1882 69.1925C69.1361 69.21 69.093 69.2471 69.0677 69.2959C69.0425 69.3446 69.0371 69.4013 69.0527 69.4539C69.8682 71.8653 71.0906 75.58 71.1181 75.9297C71.0479 76.0827 70.2001 76.2926 69.339 76.3592C69.2833 76.3619 69.2309 76.3865 69.1932 76.4276C69.1555 76.4687 69.1355 76.523 69.1376 76.5788C69.1397 76.6345 69.1637 76.6872 69.2043 76.7253C69.245 76.7635 69.2991 76.7841 69.3549 76.7826L69.3574 76.782Z" fill="#0C0C0C"/>
</g>
<path d="M71.2137 64.0116C72.06 63.7149 72.9705 63.6516 73.8496 63.8285C74.282 63.9128 74.6993 64.0615 75.0875 64.2697C75.4717 64.4739 75.8287 64.7256 76.1501 65.0189C76.2028 65.0647 76.2356 65.1292 76.2417 65.1988C76.2477 65.2684 76.2265 65.3376 76.1825 65.3919C76.1385 65.4461 76.0751 65.4812 76.0058 65.4896C75.9364 65.498 75.8665 65.4792 75.8108 65.4371L75.7936 65.4242C75.4957 65.1808 75.1684 64.9757 74.8194 64.8138C74.4756 64.6525 74.1094 64.5441 73.7332 64.4923C72.9897 64.3841 72.2309 64.4744 71.5336 64.7539L71.5071 64.7649C71.4579 64.7881 71.4045 64.8011 71.3501 64.8031C71.2957 64.8051 71.2415 64.7962 71.1906 64.7767C71.1398 64.7573 71.0934 64.7278 71.0543 64.6901C71.0151 64.6523 70.984 64.607 70.9627 64.5569C70.9415 64.5068 70.9306 64.4529 70.9307 64.3985C70.9307 64.3441 70.9418 64.2902 70.9632 64.2402C70.9846 64.1902 71.0158 64.1449 71.0551 64.1073C71.0944 64.0696 71.1408 64.0403 71.1917 64.021L71.2137 64.0116Z" fill="#0C0C0C"/>
<path d="M65.0671 64.8413C64.3697 64.562 63.6109 64.4719 62.8676 64.5802C62.4913 64.632 62.1251 64.7404 61.7814 64.9017C61.4323 65.0636 61.105 65.2686 60.8071 65.5121L60.7906 65.5247C60.7349 65.5665 60.6652 65.5852 60.5961 65.5767C60.527 65.5683 60.4638 65.5334 60.4199 65.4794C60.3759 65.4254 60.3546 65.3565 60.3603 65.2871C60.366 65.2177 60.3984 65.1532 60.4506 65.1071C60.7719 64.8136 61.1289 64.5618 61.5132 64.3577C61.9015 64.1493 62.3189 64.0005 62.7514 63.9162C63.6305 63.7393 64.5409 63.8025 65.387 64.0992C65.4858 64.1372 65.5657 64.2123 65.6098 64.3085C65.6539 64.4047 65.6585 64.5143 65.6227 64.6138C65.5869 64.7134 65.5136 64.795 65.4184 64.8411C65.3232 64.8872 65.2137 64.8943 65.1134 64.8607L65.0936 64.8532L65.0671 64.8413Z" fill="#0C0C0C"/>
<path d="M70.3731 78.8907C67.9583 79.1695 65.5195 78.6357 63.4419 77.3736C63.3699 77.3302 63.2869 77.3082 63.2028 77.3102C63.1187 77.3122 63.0369 77.3381 62.967 77.3849C62.8971 77.4317 62.842 77.4974 62.8081 77.5744C62.7741 77.6514 62.7629 77.7365 62.7756 77.8197C63.0069 79.2429 63.843 81.84 66.8609 82.0289C68.8101 82.1509 70.1421 80.5937 70.802 79.5706C70.848 79.4996 70.8727 79.417 70.8732 79.3325C70.8737 79.2479 70.85 79.165 70.8049 79.0935C70.7598 79.022 70.6952 78.9649 70.6187 78.9289C70.5421 78.893 70.4569 78.8797 70.3731 78.8907Z" fill="white"/>
<path d="M69.3599 55.2651C71.241 54.7386 72.1379 52.0672 71.363 49.2983C70.588 46.5294 68.4349 44.7116 66.5537 45.2381C64.6725 45.7646 63.7757 48.436 64.5506 51.2049C65.3255 53.9737 67.4787 55.7916 69.3599 55.2651Z" fill="#0C0C0C"/>
<path d="M57.9619 105.172C46.9344 104.652 46.4702 95.2922 46.4702 95.2922C46.4702 95.2922 41.0062 95.6454 37.3741 96.1367C31.4275 96.9412 27.5045 98.9577 24.3828 102.08C21.4784 104.984 19.7104 108.126 21.5816 128.186C22.9363 142.712 21.9827 174.662 21.9827 174.662H88.5354C88.5354 174.662 92.5266 132.785 93.0826 126.246C94.1446 113.764 95.0066 102.89 92.415 100.298C87.0872 94.9703 76.63 95.2922 72.0504 95.2928C71.976 95.2928 72.9797 105.88 57.9619 105.172Z" fill="#4CB748"/>
<path d="M155.091 174.231L107.024 174.468C104.718 174.302 102.508 173.479 100.653 172.098C98.7991 170.717 97.3781 168.835 96.558 166.673L72.8506 114.078C71.7093 111.07 71.8094 107.732 73.1291 104.798C74.4488 101.864 76.8799 99.5748 79.8876 98.4334C86.1518 96.0562 92.3358 97.6545 94.7126 103.917L116.493 150.83L156.064 151.472C156.064 151.472 155.389 174.252 155.091 174.231Z" fill="#4CB748"/>
<path d="M92.1421 129.164C92.1448 129.121 92.1645 129.081 92.1967 129.053C92.2289 129.024 92.2711 129.01 92.314 129.013C92.3569 129.015 92.397 129.035 92.4254 129.067C92.4538 129.099 92.4683 129.142 92.4656 129.184L91.1125 150.801C91.1101 150.84 91.0937 150.876 91.0664 150.904C91.039 150.932 91.0026 150.949 90.9637 150.952C90.9561 150.952 90.9484 150.952 90.9408 150.952C90.9196 150.951 90.8988 150.945 90.8797 150.936C90.8606 150.926 90.8435 150.913 90.8295 150.897C90.8154 150.882 90.8046 150.863 90.7978 150.843C90.7909 150.823 90.788 150.801 90.7894 150.78" fill="#0C0C0C"/>
<path d="M100.339 152.345L90.5915 148.929L91.9908 148.832C92.4419 148.791 92.8609 148.581 93.1632 148.244C93.4655 147.907 93.6284 147.467 93.6191 147.015C93.6063 146.781 93.546 146.552 93.4419 146.343C93.3378 146.133 93.1921 145.947 93.0137 145.796C92.8353 145.645 92.6279 145.531 92.4042 145.463C92.1805 145.394 91.9452 145.372 91.7126 145.397L74.4678 147.23L74.9154 152.772C75.0546 154.493 75.7048 156.134 76.7825 157.483C77.8601 158.832 79.3163 159.829 80.9642 160.346L88.4324 162.672C88.8181 162.8 89.2363 162.792 89.6163 162.647C89.9963 162.503 90.3146 162.231 90.5174 161.879C90.6938 161.557 90.7626 161.187 90.714 160.823C90.6654 160.459 90.5017 160.121 90.247 159.856C90.2697 159.84 90.2874 159.818 90.2984 159.792C90.3073 159.768 90.3102 159.742 90.3069 159.716C90.3036 159.691 90.2941 159.666 90.2793 159.645L91.656 160.077C92.0853 160.221 92.5533 160.197 92.9655 160.009C93.3776 159.822 93.7032 159.484 93.8762 159.066C94.0179 158.687 94.0212 158.269 93.8856 157.888C93.75 157.506 93.4842 157.185 93.1349 156.98C93.1509 156.971 93.1651 156.959 93.1769 156.946L93.743 157.123C94.1287 157.251 94.5469 157.242 94.9269 157.098C95.3068 156.953 95.6252 156.682 95.828 156.33C96.0422 155.939 96.0968 155.481 95.9803 155.051C95.8637 154.621 95.5852 154.252 95.2031 154.023C95.2062 154.012 95.208 154 95.2086 153.988L99.2677 155.412C99.4697 155.485 99.6842 155.518 99.899 155.508C100.114 155.498 100.324 155.446 100.519 155.354C100.713 155.262 100.887 155.132 101.031 154.973C101.175 154.813 101.285 154.626 101.356 154.423C101.428 154.221 101.458 154.006 101.445 153.791C101.432 153.576 101.377 153.366 101.283 153.173C101.189 152.98 101.057 152.808 100.895 152.666C100.734 152.524 100.546 152.416 100.342 152.347L100.339 152.345Z" fill="#E98862"/>
<path opacity="0.2" d="M95.0474 154.146C95.0285 154.146 95.0098 154.143 94.9921 154.137L91.0655 152.709C91.0447 152.702 91.0254 152.692 91.0088 152.677C90.9922 152.663 90.9786 152.646 90.9689 152.626C90.9592 152.607 90.9536 152.585 90.9524 152.564C90.9512 152.542 90.9544 152.52 90.9619 152.499C90.9693 152.479 90.9809 152.46 90.9958 152.444C91.0107 152.428 91.0287 152.415 91.0487 152.407C91.0687 152.398 91.0903 152.393 91.1121 152.393C91.134 152.393 91.1556 152.397 91.1758 152.405L95.1027 153.833C95.1382 153.846 95.168 153.871 95.1869 153.904C95.2057 153.937 95.2125 153.975 95.2059 154.013C95.1993 154.05 95.1798 154.084 95.1509 154.108C95.1219 154.133 95.0853 154.146 95.0474 154.146Z" fill="#0A0A0A"/>
<path opacity="0.2" d="M93.0612 157.001C93.0428 157.001 93.0245 156.997 93.0072 156.991L89.9123 155.891C89.8732 155.876 89.8416 155.846 89.8242 155.808C89.8067 155.77 89.8048 155.726 89.8189 155.687C89.8329 155.647 89.8618 155.615 89.8993 155.596C89.9369 155.577 89.9803 155.574 90.0203 155.587L93.1152 156.685C93.1511 156.698 93.1813 156.723 93.2006 156.756C93.2198 156.788 93.2268 156.827 93.2203 156.865C93.2139 156.902 93.1944 156.936 93.1653 156.961C93.1361 156.985 93.0993 156.999 93.0612 156.999V157.001Z" fill="#0A0A0A"/>
<path opacity="0.2" d="M90.148 159.897C90.1282 159.897 90.1086 159.894 90.0901 159.887L88.6406 159.334C88.6018 159.318 88.5708 159.287 88.5542 159.248C88.5376 159.21 88.5366 159.166 88.5516 159.127C88.5666 159.088 88.5963 159.056 88.6344 159.038C88.6725 159.02 88.716 159.018 88.7558 159.032L90.2055 159.584C90.2408 159.598 90.2703 159.623 90.2888 159.656C90.3073 159.689 90.3136 159.728 90.3068 159.765C90.3 159.802 90.2803 159.836 90.2513 159.86C90.2223 159.884 90.1857 159.897 90.148 159.897Z" fill="#0A0A0A"/>
<path d="M81.6931 164.41L21.2578 174.428C19.3946 174.63 17.5098 174.399 15.7513 173.751C13.9927 173.103 12.4082 172.056 11.1221 170.693C9.83606 169.33 8.88336 167.687 8.33879 165.894C7.79422 164.1 7.67259 162.205 7.98346 160.357L20.8706 108.732C21.4043 105.56 23.1764 102.729 25.7971 100.863C28.4178 98.9974 31.6724 98.249 34.8449 98.7827C38.0173 99.3164 40.8479 101.089 42.7137 103.709C44.5796 106.33 45.328 109.585 44.7943 112.757L34.9109 148.738L78.8253 142.739L81.6931 164.41Z" fill="#4CB748"/>
<path d="M27.0334 149.867C26.9928 149.866 26.9538 149.851 26.9242 149.823C26.8946 149.795 26.8765 149.757 26.8735 149.717C26.8705 149.676 26.8829 149.636 26.9081 149.604C26.9334 149.573 26.9697 149.551 27.0098 149.545L34.5427 148.417C34.5637 148.414 34.5852 148.415 34.6059 148.42C34.6267 148.425 34.6462 148.434 34.6633 148.446C34.6805 148.459 34.6949 148.475 34.7058 148.493C34.7167 148.512 34.7238 148.532 34.7267 148.553C34.733 148.596 34.7222 148.639 34.6967 148.673C34.6711 148.708 34.633 148.731 34.5905 148.737L27.0577 149.865C27.0497 149.866 27.0416 149.867 27.0334 149.867Z" fill="#0C0C0C"/>
<path d="M22.94 174.662C22.8971 174.665 22.8549 174.65 22.8226 174.622C22.7903 174.593 22.7707 174.553 22.7679 174.51C22.7652 174.468 22.7796 174.425 22.808 174.393C22.8363 174.361 22.8764 174.341 22.9193 174.338L81.3543 164.287L78.5218 142.938L34.9107 148.737C34.8857 148.741 34.8602 148.738 34.8364 148.73C34.8126 148.721 34.791 148.708 34.7733 148.69C34.7556 148.671 34.7425 148.649 34.735 148.625C34.7274 148.601 34.7257 148.575 34.7299 148.55L39.4489 128.191C39.4522 128.17 39.4596 128.15 39.4708 128.132C39.482 128.113 39.4967 128.098 39.5141 128.085C39.5314 128.073 39.5511 128.064 39.5719 128.059C39.5927 128.055 39.6143 128.054 39.6353 128.058C39.6562 128.062 39.6763 128.069 39.6943 128.081C39.7123 128.092 39.728 128.107 39.7403 128.124C39.7526 128.141 39.7614 128.161 39.7661 128.182C39.7708 128.202 39.7714 128.224 39.7679 128.245L35.0851 148.389L78.6431 142.596C78.6644 142.593 78.6862 142.594 78.707 142.6C78.7278 142.606 78.7473 142.615 78.7642 142.629C78.7812 142.642 78.7953 142.659 78.8058 142.677C78.8163 142.696 78.8228 142.717 78.8252 142.738L81.693 164.411C81.6976 164.453 81.6855 164.495 81.6594 164.528C81.6333 164.561 81.5952 164.583 81.5533 164.588L22.961 174.66C22.954 174.661 22.947 174.662 22.94 174.662Z" fill="#0C0C0C"/>
<path d="M128.143 168.749L143.969 120.104C144.247 119.249 144.788 118.504 145.515 117.976C146.243 117.447 147.119 117.163 148.018 117.163H212.49C213.162 117.163 213.824 117.322 214.423 117.627C215.022 117.932 215.54 118.375 215.935 118.919C216.33 119.462 216.59 120.092 216.695 120.756C216.8 121.42 216.747 122.099 216.539 122.738L200.714 171.383C200.436 172.238 199.894 172.983 199.167 173.511C198.44 174.039 197.564 174.324 196.666 174.324H132.193C131.52 174.324 130.858 174.165 130.259 173.86C129.66 173.555 129.142 173.112 128.747 172.568C128.352 172.025 128.092 171.395 127.987 170.731C127.882 170.068 127.936 169.388 128.143 168.749Z" fill="#292A2E"/>
<path d="M141.053 170.38H97.8955C96.8201 170.38 95.9482 171.252 95.9482 172.327V172.377C95.9482 173.452 96.8201 174.324 97.8955 174.324H141.053C142.128 174.324 143 173.452 143 172.377V172.327C143 171.252 142.128 170.38 141.053 170.38Z" fill="#292A2E"/>
<path d="M172.341 154.879C176.076 154.879 179.103 151.851 179.103 148.117C179.103 144.382 176.076 141.355 172.341 141.355C168.607 141.355 165.579 144.382 165.579 148.117C165.579 151.851 168.607 154.879 172.341 154.879Z" fill="white"/>
<path d="M245.89 99.1169H174.706L165.581 105.953V70.6174C165.581 69.0399 166.208 67.5269 167.323 66.4114C168.439 65.2959 169.952 64.6693 171.529 64.6693H245.89C247.468 64.6693 248.98 65.2959 250.096 66.4114C251.212 67.5269 251.838 69.0399 251.838 70.6174V93.169C251.838 94.7465 251.211 96.2594 250.096 97.3748C248.98 98.4902 247.467 99.1169 245.89 99.1169Z" fill="white"/>
<path d="M165.581 106.115C165.556 106.115 165.531 106.109 165.508 106.098C165.481 106.084 165.459 106.063 165.443 106.038C165.427 106.012 165.419 105.983 165.419 105.953V70.6174C165.421 68.9975 166.065 67.4446 167.211 66.2991C168.356 65.1537 169.909 64.5094 171.529 64.5075H245.89C247.509 64.5094 249.062 65.1537 250.208 66.2991C251.353 67.4446 251.998 68.9975 252 70.6174V93.1687C251.998 94.7885 251.353 96.3415 250.208 97.4869C249.062 98.6324 247.509 99.2767 245.89 99.2786H174.76L165.678 106.082C165.65 106.103 165.616 106.115 165.581 106.115ZM171.529 64.831C169.995 64.8327 168.524 65.4429 167.439 66.5277C166.354 67.6125 165.744 69.0833 165.742 70.6174V105.63L174.611 98.9875C174.639 98.9665 174.673 98.9551 174.708 98.9551H245.89C247.424 98.9534 248.895 98.3432 249.979 97.2584C251.064 96.1736 251.674 94.7028 251.676 93.1687V70.6174C251.674 69.0833 251.064 67.6125 249.979 66.5277C248.895 65.4429 247.424 64.8327 245.89 64.831H171.529Z" fill="#292A2E"/>
<path d="M245.664 81.4984H199.045C198.984 81.4984 198.926 81.4743 198.883 81.4314C198.841 81.3885 198.816 81.3304 198.816 81.2697C198.816 81.2091 198.841 81.1509 198.883 81.108C198.926 81.0651 198.984 81.041 199.045 81.041H245.664C245.725 81.041 245.783 81.0651 245.826 81.108C245.869 81.1509 245.893 81.2091 245.893 81.2697C245.893 81.3304 245.869 81.3885 245.826 81.4314C245.783 81.4743 245.725 81.4984 245.664 81.4984Z" fill="#4CB748"/>
<path d="M245.664 87.2153H199.045C199.015 87.2153 198.985 87.2094 198.958 87.1979C198.93 87.1864 198.905 87.1696 198.883 87.1483C198.862 87.1271 198.845 87.1019 198.834 87.0741C198.822 87.0464 198.816 87.0167 198.816 86.9866C198.816 86.9566 198.822 86.9269 198.834 86.8991C198.845 86.8714 198.862 86.8462 198.883 86.8249C198.905 86.8037 198.93 86.7868 198.958 86.7753C198.985 86.7638 199.015 86.7579 199.045 86.7579H245.664C245.694 86.7579 245.724 86.7638 245.752 86.7753C245.779 86.7868 245.804 86.8037 245.826 86.8249C245.847 86.8462 245.864 86.8714 245.875 86.8991C245.887 86.9269 245.893 86.9566 245.893 86.9866C245.893 87.0167 245.887 87.0464 245.875 87.0741C245.864 87.1019 245.847 87.1271 245.826 87.1483C245.804 87.1696 245.779 87.1864 245.752 87.1979C245.724 87.2094 245.694 87.2153 245.664 87.2153Z" fill="#4CB748"/>
<path d="M224.398 92.9319H199.045C198.984 92.9319 198.926 92.9078 198.883 92.8649C198.841 92.822 198.816 92.7638 198.816 92.7032C198.816 92.6425 198.841 92.5844 198.883 92.5415C198.926 92.4986 198.984 92.4745 199.045 92.4745H224.398C224.428 92.4745 224.458 92.4804 224.485 92.4919C224.513 92.5034 224.538 92.5202 224.56 92.5415C224.581 92.5627 224.598 92.5879 224.609 92.6157C224.621 92.6434 224.627 92.6731 224.627 92.7032C224.627 92.7332 224.621 92.7629 224.609 92.7907C224.598 92.8184 224.581 92.8437 224.56 92.8649C224.538 92.8861 224.513 92.903 224.485 92.9145C224.458 92.926 224.428 92.9319 224.398 92.9319Z" fill="#4CB748"/>
<path d="M182.333 94.3703C188.672 94.3703 193.811 89.2313 193.811 82.8919C193.811 76.5525 188.672 71.4135 182.333 71.4135C175.994 71.4135 170.854 76.5525 170.854 82.8919C170.854 89.2313 175.994 94.3703 182.333 94.3703Z" fill="#292A2E"/>
<path d="M202.34 70.4592L203.274 72.8774L205.863 73.0188L203.852 74.6552L204.517 77.1611L202.34 75.7537L200.162 77.1611L200.827 74.6552L198.816 73.0188L201.405 72.8774L202.34 70.4592Z" fill="#4CB748"/>
<path d="M211.594 70.4592L212.529 72.8774L215.118 73.0188L213.107 74.6552L213.772 77.1611L211.594 75.7537L209.417 77.1611L210.082 74.6552L208.071 73.0188L210.66 72.8774L211.594 70.4592Z" fill="#4CB748"/>
<path d="M220.848 70.4592L221.783 72.8774L224.372 73.0188L222.361 74.6552L223.026 77.1611L220.848 75.7537L218.671 77.1611L219.336 74.6552L217.325 73.0188L219.914 72.8774L220.848 70.4592Z" fill="#4CB748"/>
<path d="M230.102 70.4592L231.037 72.8774L233.626 73.0188L231.615 74.6552L232.28 77.1611L230.102 75.7537L227.925 77.1611L228.59 74.6552L226.579 73.0188L229.168 72.8774L230.102 70.4592Z" fill="#4CB748"/>
<path d="M239.357 70.4592L240.292 72.8774L242.881 73.0188L240.87 74.6552L241.535 77.1611L239.357 75.7537L237.18 77.1611L237.845 74.6552L235.834 73.0188L238.423 72.8774L239.357 70.4592Z" fill="#4CB748"/>
<path d="M148.448 45.502H122.745C120.939 45.502 119.475 46.9663 119.475 48.7726V67.5833C119.475 69.3895 120.939 70.8538 122.745 70.8538H148.448C150.254 70.8538 151.718 69.3895 151.718 67.5833V48.7726C151.718 46.9663 150.254 45.502 148.448 45.502Z" fill="#292A2E"/>
<path d="M143.718 60.0311H143.602C143.963 60.1079 144.287 60.307 144.519 60.5949C144.75 60.8828 144.875 61.2418 144.873 61.6112C144.864 62.0395 144.686 62.447 144.378 62.7453C144.071 63.0435 143.658 63.2084 143.229 63.2042H142.961C143.291 63.3171 143.575 63.5345 143.77 63.8234C143.966 64.1123 144.061 64.4571 144.043 64.8054C144.015 65.2207 143.829 65.6096 143.524 65.8922C143.218 66.1749 142.816 66.33 142.4 66.3257H141.905L132.007 66.3169L132.021 53.6592C132.991 52.1654 134.698 49.6414 134.698 49.6414C134.962 49.2224 135.382 48.9254 135.865 48.8158C136.348 48.7062 136.855 48.793 137.274 49.0571C137.693 49.3211 137.99 49.7408 138.099 50.2238C138.209 50.7069 138.122 51.2136 137.858 51.6327L136.592 53.6427L138.085 53.6449H139.146L144.05 53.6504C144.47 53.6471 144.874 53.8061 145.18 54.0941C145.485 54.3821 145.668 54.7769 145.689 55.1963C145.697 55.4113 145.662 55.6257 145.585 55.8267C145.508 56.0278 145.392 56.2113 145.242 56.3663C145.093 56.5214 144.914 56.6449 144.716 56.7294C144.519 56.8139 144.306 56.8577 144.09 56.8582C144.452 56.935 144.776 57.1341 145.007 57.4219C145.239 57.7097 145.364 58.0686 145.362 58.438C145.353 58.8664 145.175 59.2738 144.867 59.572C144.559 59.8702 144.147 60.0352 143.718 60.0311Z" fill="white"/>
<path d="M132.02 53.5984V53.6579L132.01 66.3157V66.3267L126.723 66.3179L126.733 53.5893L132.02 53.5984Z" fill="#4CB748"/>
<path opacity="0.65" d="M129.371 56.932C129.974 56.932 130.463 56.4429 130.463 55.8397C130.463 55.2364 129.974 54.7473 129.371 54.7473C128.767 54.7473 128.278 55.2364 128.278 55.8397C128.278 56.4429 128.767 56.932 129.371 56.932Z" fill="white"/>
<path d="M182.334 51.5624C189.812 51.5624 195.874 45.5006 195.874 38.0229C195.874 30.5452 189.812 24.4833 182.334 24.4833C174.857 24.4833 168.795 30.5452 168.795 38.0229C168.795 45.5006 174.857 51.5624 182.334 51.5624Z" fill="#4CB748"/>
<path d="M189.261 37.9996C189.267 38.9133 189.093 39.8191 188.747 40.665C188.402 41.5109 187.893 42.2801 187.249 42.9283C186.605 43.5766 185.839 44.091 184.996 44.4421C184.152 44.7932 183.248 44.9739 182.334 44.9739C181.421 44.9739 180.516 44.7932 179.672 44.4421C178.829 44.091 178.063 43.5766 177.419 42.9283C176.776 42.2801 176.266 41.5109 175.921 40.665C175.576 39.8191 175.401 38.9133 175.407 37.9996H189.261Z" fill="white"/>
<path d="M177.445 33.7687C178.097 33.7687 178.625 33.2405 178.625 32.589C178.625 31.9375 178.097 31.4094 177.445 31.4094C176.794 31.4094 176.266 31.9375 176.266 32.589C176.266 33.2405 176.794 33.7687 177.445 33.7687Z" fill="#0C0C0C"/>
<path d="M187.224 33.7687C187.875 33.7687 188.403 33.2405 188.403 32.589C188.403 31.9375 187.875 31.4094 187.224 31.4094C186.572 31.4094 186.044 31.9375 186.044 32.589C186.044 33.2405 186.572 33.7687 187.224 33.7687Z" fill="#0C0C0C"/>
<path d="M182.333 83.4117C184.985 83.4117 187.134 81.2623 187.134 78.6109C187.134 75.9594 184.985 73.81 182.333 73.81C179.682 73.81 177.532 75.9594 177.532 78.6109C177.532 81.2623 179.682 83.4117 182.333 83.4117Z" fill="white"/>
<path d="M191.442 89.88C190.369 91.2763 188.99 92.4073 187.411 93.1856C185.832 93.964 184.095 94.3688 182.335 94.3688C180.574 94.3688 178.837 93.964 177.258 93.1856C175.679 92.4073 174.3 91.2763 173.228 89.88C174.36 88.5762 175.759 87.5306 177.33 86.8141C178.901 86.0976 180.608 85.7268 182.335 85.7268C184.061 85.7268 185.768 86.0976 187.339 86.8141C188.911 87.5306 190.31 88.5762 191.442 89.88Z" fill="white"/>
<path d="M182.333 94.5321C180.031 94.5321 177.78 93.8495 175.866 92.5705C173.952 91.2915 172.46 89.4736 171.579 87.3466C170.697 85.2196 170.467 82.8792 170.916 80.6212C171.365 78.3632 172.474 76.2891 174.102 74.6612C175.73 73.0332 177.804 71.9246 180.062 71.4754C182.32 71.0262 184.66 71.2567 186.787 72.1377C188.914 73.0187 190.732 74.5107 192.011 76.4249C193.29 78.3391 193.973 80.5897 193.973 82.8919C193.969 85.9779 192.742 88.9366 190.56 91.1188C188.378 93.301 185.419 94.5285 182.333 94.5321ZM182.333 71.5752C180.095 71.5751 177.907 72.2388 176.046 73.4822C174.185 74.7257 172.734 76.4931 171.877 78.5609C171.021 80.6288 170.797 82.9042 171.233 85.0995C171.67 87.2947 172.748 89.3112 174.33 90.8939C175.913 92.4766 177.929 93.5544 180.125 93.9911C182.32 94.4278 184.595 94.2037 186.663 93.3472C188.731 92.4907 190.499 91.0402 191.742 89.1791C192.986 87.3181 193.649 85.1301 193.649 82.8919C193.646 79.8916 192.453 77.0151 190.331 74.8936C188.21 72.772 185.333 71.5786 182.333 71.5752Z" fill="#292A2E"/>
<path d="M209.065 169.438C209.02 169.438 208.975 169.425 208.936 169.401C208.897 169.377 208.866 169.342 208.846 169.301L202.406 156.093C202.379 156.035 202.375 155.969 202.397 155.908C202.418 155.847 202.462 155.798 202.52 155.769C202.578 155.741 202.644 155.737 202.705 155.758C202.766 155.778 202.816 155.822 202.845 155.879L209.285 169.087C209.299 169.115 209.307 169.147 209.309 169.179C209.311 169.211 209.306 169.243 209.296 169.273C209.286 169.304 209.269 169.332 209.248 169.356C209.227 169.38 209.201 169.399 209.172 169.413C209.139 169.43 209.102 169.438 209.065 169.438Z" fill="#292A2E"/>
<path d="M219.951 168.67C219.897 168.67 219.844 168.652 219.802 168.619C219.759 168.586 219.728 168.54 219.715 168.488L212.263 140.04C212.254 140.009 212.251 139.976 212.254 139.943C212.258 139.911 212.268 139.879 212.284 139.851C212.3 139.822 212.322 139.797 212.348 139.777C212.374 139.757 212.404 139.743 212.435 139.734C212.467 139.726 212.5 139.724 212.532 139.729C212.565 139.734 212.596 139.745 212.624 139.762C212.652 139.779 212.676 139.801 212.695 139.828C212.715 139.855 212.728 139.885 212.735 139.917L220.187 168.365C220.197 168.401 220.198 168.439 220.19 168.476C220.183 168.513 220.167 168.547 220.144 168.577C220.121 168.606 220.092 168.63 220.058 168.647C220.025 168.663 219.988 168.671 219.951 168.671V168.67Z" fill="#292A2E"/>
<path d="M234.165 169.932C234.132 169.932 234.1 169.925 234.07 169.912C234.04 169.9 234.013 169.881 233.991 169.859C233.968 169.836 233.951 169.809 233.939 169.779C233.927 169.749 233.921 169.717 233.921 169.685C233.921 169.653 233.928 169.621 233.94 169.592L241.643 151.451C241.67 151.393 241.718 151.349 241.777 151.326C241.836 151.303 241.902 151.304 241.96 151.329C242.018 151.354 242.065 151.4 242.09 151.459C242.114 151.517 242.115 151.583 242.093 151.642L234.39 169.783C234.371 169.827 234.34 169.865 234.3 169.891C234.26 169.917 234.213 169.932 234.165 169.932Z" fill="#292A2E"/>
<path d="M220.227 174.134C220.207 174.134 220.187 174.132 220.167 174.127C220.136 174.119 220.107 174.105 220.081 174.086C220.055 174.067 220.034 174.043 220.017 174.015C220.001 173.988 219.99 173.957 219.985 173.926C219.98 173.894 219.982 173.862 219.99 173.831L228.94 138.023C228.956 137.96 228.996 137.906 229.052 137.873C229.107 137.84 229.174 137.83 229.237 137.846C229.299 137.861 229.353 137.901 229.387 137.957C229.42 138.013 229.43 138.079 229.414 138.142L220.463 173.949C220.45 174.002 220.42 174.049 220.377 174.082C220.334 174.116 220.281 174.134 220.227 174.134Z" fill="#292A2E"/>
<path d="M235.735 150.825C240.118 148.74 241.703 142.911 239.274 137.806C236.846 132.701 231.324 130.253 226.941 132.338C222.557 134.423 220.973 140.252 223.401 145.357C225.83 150.462 231.352 152.911 235.735 150.825Z" fill="#FF6B00"/>
<path opacity="0.4" d="M235.735 150.825C240.118 148.74 241.703 142.911 239.274 137.806C236.846 132.701 231.324 130.253 226.941 132.338C222.557 134.423 220.973 140.252 223.401 145.357C225.83 150.462 231.352 152.911 235.735 150.825Z" fill="white"/>
<path d="M245.532 160.917C248.168 159.855 249.278 156.445 248.011 153.3C246.744 150.155 243.581 148.465 240.945 149.527C238.309 150.588 237.2 153.999 238.466 157.144C239.733 160.289 242.897 161.978 245.532 160.917Z" fill="#FF6B00"/>
<path d="M217.091 146.514C218.547 141.709 216.554 136.852 212.639 135.665C208.723 134.479 204.369 137.412 202.913 142.218C201.457 147.023 203.45 151.88 207.365 153.067C211.281 154.253 215.635 151.319 217.091 146.514Z" fill="#FF6B00"/>
<path d="M205.566 158.43C206.081 155.354 204.727 152.564 202.541 152.198C200.356 151.832 198.167 154.029 197.652 157.105C197.136 160.181 198.49 162.971 200.676 163.337C202.861 163.703 205.051 161.506 205.566 158.43Z" fill="#FF6B00"/>
<path d="M241.349 164.995H203.328V174.47H241.349V164.995Z" fill="#292A2E"/>
<path opacity="0.3" d="M241.349 164.995H203.328V174.47H241.349V164.995Z" fill="white"/>
<path d="M232.136 167.173C235.367 165.871 236.733 161.703 235.186 157.865C233.639 154.026 229.765 151.97 226.534 153.273C223.302 154.575 221.937 158.742 223.484 162.581C225.031 166.419 228.904 168.475 232.136 167.173Z" fill="#FF6B00"/>
<path d="M214.89 166.255C218.107 166.255 220.715 163.647 220.715 160.43C220.715 157.213 218.107 154.605 214.89 154.605C211.673 154.605 209.065 157.213 209.065 160.43C209.065 163.647 211.673 166.255 214.89 166.255Z" fill="#FF6B00"/>
<path opacity="0.68" d="M245.532 160.917C248.168 159.855 249.278 156.445 248.011 153.3C246.744 150.155 243.581 148.465 240.945 149.527C238.309 150.588 237.2 153.999 238.466 157.144C239.733 160.289 242.897 161.978 245.532 160.917Z" fill="white"/>
<path opacity="0.68" d="M217.091 146.514C218.547 141.709 216.554 136.852 212.639 135.665C208.723 134.479 204.369 137.412 202.913 142.218C201.457 147.023 203.45 151.88 207.365 153.067C211.281 154.253 215.635 151.319 217.091 146.514Z" fill="white"/>
<path opacity="0.68" d="M205.566 158.43C206.081 155.354 204.727 152.564 202.541 152.198C200.356 151.832 198.167 154.029 197.652 157.105C197.136 160.181 198.49 162.971 200.676 163.337C202.861 163.703 205.051 161.506 205.566 158.43Z" fill="white"/>
<path opacity="0.68" d="M232.136 167.173C235.367 165.871 236.733 161.703 235.186 157.865C233.639 154.026 229.765 151.97 226.534 153.273C223.302 154.575 221.937 158.742 223.484 162.581C225.031 166.419 228.904 168.475 232.136 167.173Z" fill="white"/>
<path opacity="0.4" d="M214.89 166.255C218.107 166.255 220.715 163.647 220.715 160.43C220.715 157.213 218.107 154.605 214.89 154.605C211.673 154.605 209.065 157.213 209.065 160.43C209.065 163.647 211.673 166.255 214.89 166.255Z" fill="white"/>
<path d="M233.599 155.526C229.178 156.761 226.852 153.148 226.852 153.148L226.854 153.143C229.213 152.44 231.827 153.429 233.599 155.526Z" fill="#292A2E"/>
<path d="M205.673 157.005C203.497 156.172 201.694 154.583 200.593 152.529C201.189 152.211 201.873 152.095 202.541 152.2C204.382 152.506 205.632 154.535 205.673 157.005Z" fill="#292A2E"/>
<path d="M215.929 154.698C214.233 156.226 212.115 157.204 209.853 157.503C210.455 156.469 211.361 155.644 212.448 155.142C213.536 154.641 214.751 154.486 215.929 154.698Z" fill="#292A2E"/>
<path d="M248.296 174.985H0.48069C0.394902 174.985 0.312628 174.951 0.251967 174.891C0.191306 174.83 0.157227 174.748 0.157227 174.662C0.157227 174.576 0.191306 174.494 0.251967 174.433C0.312628 174.372 0.394902 174.338 0.48069 174.338H248.296C248.382 174.338 248.464 174.372 248.524 174.433C248.585 174.494 248.619 174.576 248.619 174.662C248.619 174.748 248.585 174.83 248.524 174.891C248.464 174.951 248.382 174.985 248.296 174.985Z" fill="#292A2E"/>
</g>
<defs>
<clipPath id="clip0_58_31217">
<rect width="252" height="168.985" fill="white" transform="translate(0 6)"/>
</clipPath>
</defs>
</svg>
